SplineFontDB: 3.0
FontName: AMALGAMWO
FullName: AmalgamWO
FamilyName: AmalgamWO
Weight: Medium
Copyright: 4: fans of WIPE'OUT" product
Version: 1.000;
ItalicAngle: 0
UnderlinePosition: -175
UnderlineWidth: 150
Ascent: 800
Descent: 200
LayerCount: 2
Layer: 0 1 "Back"  1
Layer: 1 1 "Fore"  0
XUID: [1021 488 28139 17742]
FSType: 4
OS2Version: 3
OS2_WeightWidthSlopeOnly: 0
OS2_UseTypoMetrics: 0
CreationTime: 1190266533
ModificationTime: 1260244161
PfmFamily: 17
TTFWeight: 500
TTFWidth: 5
LineGap: 0
VLineGap: 0
Panose: 2 11 6 4 0 2 3 2 2 3
OS2TypoAscent: 800
OS2TypoAOffset: 0
OS2TypoDescent: -200
OS2TypoDOffset: 0
OS2TypoLinegap: 0
OS2WinAscent: 800
OS2WinAOffset: 0
OS2WinDescent: 200
OS2WinDOffset: 0
HheadAscent: 800
HheadAOffset: 0
HheadDescent: -200
HheadDOffset: 0
OS2SubXSize: 650
OS2SubYSize: 600
OS2SubXOff: 0
OS2SubYOff: 75
OS2SupXSize: 650
OS2SupYSize: 600
OS2SupXOff: 0
OS2SupYOff: 350
OS2StrikeYSize: 150
OS2StrikeYPos: 480
OS2FamilyClass: 1807
OS2Vendor: 'UKWN'
OS2CodePages: 00000001.00000000
OS2UnicodeRanges: 00000043.00000000.00000000.00000000
DEI: 91125
TtTable: prep

EndTTInstrs
TtTable: fpgm

EndTTInstrs
ShortTable: cvt  5
  0
  0
  800
  800
  600
EndShort
ShortTable: maxp 16
  1
  0
  210
  375
  12
  0
  0
  2
  1
  2
  22
  0
  256
  0
  0
  0
EndShort
LangName: 1033 "" "" "Regular" "AmalgamWO : 22-11-2009" "" "Version 1.000" "" "" "" "" "" "" "" "" "" "" "" "Plain" "AmalgamWO" 
GaspTable: 1 65535 2 0
Encoding: UnicodeFull
UnicodeInterp: none
NameList: Adobe Glyph List
DisplaySize: -24
AntiAlias: 1
FitToEm: 0
WinInfo: 16 16 14
Grid
-1000 600 m 4
 2000 600 l 4
EndSplineSet
BeginChars: 1114179 254

StartChar: .notdef
Encoding: 1114112 -1 0
Width: 1100
Flags: W
LayerCount: 2
Fore
SplineSet
800 800 m 2,0,1
 1050 800 1050 800 1050 550 c 128,-1,2
 1050 300 1050 300 800 300 c 2,3,-1
 300 300 l 2,4,5
 250 300 250 300 250 250 c 2,6,-1
 250 225 l 1,7,-1
 50 225 l 1,8,-1
 50 250 l 2,9,10
 50 500 50 500 300 500 c 2,11,-1
 800 500 l 2,12,13
 850 500 850 500 850 550 c 128,-1,14
 850 600 850 600 800 600 c 2,15,-1
 350 600 l 1,16,-1
 50 600 l 1,17,-1
 50 800 l 1,18,-1
 350 800 l 1,19,-1
 800 800 l 2,0,1
220.5 170.5 m 128,-1,21
 250 141 250 141 250 100 c 128,-1,22
 250 59 250 59 220.5 29.5 c 128,-1,23
 191 0 191 0 150 0 c 128,-1,24
 109 0 109 0 79.5 29.5 c 128,-1,25
 50 59 50 59 50 100 c 128,-1,26
 50 141 50 141 79.5 170.5 c 128,-1,27
 109 200 109 200 150 200 c 128,-1,20
 191 200 191 200 220.5 170.5 c 128,-1,21
EndSplineSet
EndChar

StartChar: .null
Encoding: 1114113 -1 1
Width: 1170
Flags: W
HStem: 3 34<774.048 797 861 887.532> 190 28<1036.47 1076.83> 363 37<531.31 611> 518 35<370.078 409.681>
VStem: 368 40<518.501 547.707> 443 39<539 582>
LayerCount: 2
Fore
SplineSet
443 739 m 5,0,-1
 420 726 l 5,1,2
 401 726 401 726 385 729 c 5,3,-1
 360 729 l 5,4,5
 330 723 330 723 310 726 c 5,6,-1
 266 749 l 5,7,8
 130 772 130 772 81 666 c 5,9,10
 58 630 58 630 52 601.5 c 132,-1,11
 46 573 46 573 59 500 c 5,12,-1
 77 472 l 5,13,14
 80 420 80 420 100 384 c 5,15,16
 97 329 97 329 105 294 c 5,17,-1
 112 283 l 5,18,19
 119 270 119 270 128 265 c 5,20,-1
 211 153 l 5,21,-1
 213 145 l 5,22,-1
 254 65 l 5,23,24
 269 32 269 32 290 11 c 5,25,26
 413 -21 413 -21 459 35 c 5,27,28
 479 105 479 105 408 135 c 5,29,-1
 423 143 l 5,30,31
 499 135 499 135 553 166 c 5,32,33
 577 161 577 161 572 138 c 5,34,-1
 560 128 l 5,35,36
 472 115 472 115 497 35 c 5,37,38
 511 16 511 16 527 6 c 5,39,-1
 547 3 l 5,40,-1
 684 3 l 5,41,42
 707 9 707 9 724 22 c 5,43,44
 757 6 757 6 783 3 c 5,45,-1
 873 3 l 5,46,47
 934 1 934 1 971 9 c 5,48,49
 982 19 982 19 984 32 c 5,50,-1
 984 65 l 5,51,-1
 992 86 l 5,52,-1
 997 94 l 5,53,-1
 1015 143 l 5,54,55
 1027 158 1027 158 1032 172 c 5,56,57
 1045 185 1045 185 1058 190 c 5,58,59
 1184 195 1184 195 1169 332 c 5,60,-1
 1167 340 l 5,61,62
 1167 361 1167 361 1159 374 c 5,63,64
 1132 399 1132 399 1116 420 c 5,65,-1
 1088 449 l 6,66,67
 1075 462 1075 462 1071 470 c 5,68,-1
 1042 497 l 5,69,70
 1025 510 1025 510 1005 537 c 5,71,72
 987 553 987 553 967 580 c 5,73,74
 957 604 957 604 944 620 c 5,75,-1
 939 656 l 5,76,-1
 937 684 l 5,77,-1
 934 689 l 5,78,-1
 924 705 l 5,79,-1
 863 769 l 5,80,-1
 841 788 l 5,81,82
 744 814 744 814 666 778 c 5,83,84
 598 806 598 806 534 798 c 5,85,86
 474 785 474 785 443 739 c 5,0,-1
613 749 m 5,87,88
 689 742 689 742 707 674 c 5,89,90
 692 653 692 653 686 638 c 5,91,-1
 689 633 l 5,92,-1
 694 617 l 5,93,-1
 707 614 l 5,94,95
 747 640 747 640 773 601 c 5,96,97
 752 550 752 550 702 576 c 5,98,-1
 692 568 l 5,99,-1
 692 547 l 5,100,-1
 696 540 l 5,101,102
 719 518 719 518 731 503 c 5,103,104
 739 415 739 415 696 350 c 5,105,106
 666 283 666 283 608 257 c 5,107,108
 537 192 537 192 451 190 c 5,109,110
 368 143 368 143 274 213 c 5,111,112
 234 228 234 228 209 257 c 5,113,114
 142 294 142 294 130 358 c 5,115,116
 161 425 161 425 226 425 c 5,117,118
 368 485 368 485 472 381 c 5,119,-1
 487 377 l 5,120,121
 514 364 514 364 530 353 c 5,122,123
 572 347 572 347 605 363 c 5,124,125
 624 381 624 381 611 400 c 5,126,127
 537 389 537 389 511 446 c 5,128,129
 509 485 509 485 520 510 c 5,130,-1
 534 526 l 5,131,-1
 555 545 l 5,132,-1
 565 553 l 5,133,134
 598 570 598 570 618 593 c 5,135,136
 631 636 631 636 624 674 c 5,137,138
 582 767 582 767 482 713 c 5,139,-1
 474 718 l 5,140,141
 479 729 479 729 494 742 c 5,142,143
 530 752 530 752 552 767 c 5,144,145
 588 767 588 767 613 749 c 5,87,88
792 749 m 5,146,147
 883 734 883 734 896 643 c 5,148,149
 939 557 939 557 893 474 c 5,150,-1
 893 467 l 5,151,152
 891 443 891 443 891 425 c 5,153,154
 883 404 883 404 873 391 c 5,155,156
 851 283 851 283 787 211 c 5,157,158
 739 102 739 102 656 37 c 5,159,160
 588 22 588 22 543 60 c 5,161,162
 557 83 557 83 598 83 c 5,163,164
 615 102 615 102 624 117 c 5,165,-1
 626 138 l 6,166,167
 626 143 626 143 632 158.5 c 132,-1,168
 638 174 638 174 646 185 c 5,169,170
 648 200 648 200 653 211 c 5,171,172
 671 231 671 231 676 249 c 5,173,174
 747 324 747 324 764 412 c 5,175,176
 775 427 775 427 780 443 c 5,177,178
 780 480 780 480 770 508 c 5,179,180
 810 555 810 555 818 603 c 5,181,182
 808 617 808 617 802 627 c 5,183,184
 752 666 752 666 731 718 c 5,185,186
 721 729 721 729 717 739 c 5,187,188
 721 759 721 759 739 767 c 5,189,190
 770 767 770 767 792 749 c 5,146,147
292 622 m 5,191,-1
 279 614 l 5,192,193
 234 627 234 627 200 601 c 5,194,195
 188 576 188 576 190 543 c 5,196,197
 161 518 161 518 148 502.5 c 132,-1,198
 135 487 135 487 122 477 c 5,199,-1
 107 485 l 5,200,201
 102 506 102 506 105 521 c 5,202,203
 72 576 72 576 102 625 c 5,204,205
 128 689 128 689 156 702 c 4,206,207
 185 716 185 716 234 715 c 4,208,209
 304 713 304 713 292 622 c 5,191,-1
391 686 m 5,210,211
 421 666 421 666 443 656 c 5,212,213
 577 729 577 729 575 622 c 5,214,-1
 572 617 l 5,215,-1
 562 604 l 5,216,-1
 550 591 l 5,217,218
 501 550 501 550 479 500 c 5,219,220
 466 483 466 483 451 472 c 5,221,-1
 373 474 l 5,222,-1
 345 487 l 6,223,224
 332 493 332 493 323 493 c 6,225,-1
 279 493 l 5,226,227
 236 462 236 462 200 483 c 5,228,229
 216 508 216 508 234 521 c 5,230,231
 221 622 221 622 332 560 c 5,232,233
 368 563 368 563 394 580 c 5,234,-1
 423 583 l 5,235,236
 443 566 443 566 443 539 c 5,237,-1
 453 526 l 5,238,239
 472 534 472 534 482 545 c 5,240,241
 499 633 499 633 365 609 c 5,242,243
 347 614 347 614 337 625 c 5,244,245
 325 674 325 674 378 689 c 5,246,-1
 391 686 l 5,210,211
520 633 m 5,247,248
 527 653 527 653 504 653 c 5,249,250
 494 630 494 630 520 633 c 5,247,248
383 648 m 5,251,-1
 370 651 l 5,252,253
 373 625 373 625 383 648 c 5,251,-1
368 534 m 5,254,255
 375 506 375 506 403 518 c 5,256,257
 423 534 423 534 408 553 c 5,258,-1
 398 553 l 5,259,260
 381 545 381 545 368 534 c 5,254,255
277 531 m 5,261,262
 315 526 315 526 277 547 c 5,263,264
 274 539 274 539 277 531 c 5,261,262
977 508 m 5,265,-1
 1042 441 l 5,266,267
 1119 381 1119 381 1133 298 c 5,268,-1
 1123 281 l 5,269,270
 1119 259 1119 259 1106 244 c 5,271,272
 1081 234 1081 234 1065 223 c 5,273,274
 1050 218 1050 218 1036.5 218 c 132,-1,275
 1023 218 1023 218 1013 213 c 5,276,277
 964 158 964 158 957 97 c 5,278,-1
 929 45 l 5,279,280
 912 47 912 47 899 52 c 5,281,-1
 888 52 l 5,282,283
 873 45 873 45 861 42 c 5,284,285
 833 45 833 45 810 37 c 5,286,-1
 797 37 l 5,287,288
 775 49 775 49 762 68 c 5,289,290
 777 125 777 125 845 78 c 5,291,292
 861 83 861 83 868 91 c 5,293,-1
 871 120 l 5,294,295
 845 179 845 179 851 231 c 5,296,-1
 858 251 l 5,297,298
 868 265 868 265 873 278 c 6,299,-1
 881 298 l 5,300,-1
 891 314 l 5,301,302
 899 345 899 345 914 366 c 5,303,-1
 916 371 l 5,304,305
 919 410 919 410 937 438 c 5,306,-1
 939 457 l 5,307,-1
 942 474 l 5,308,-1
 944 503 l 5,309,-1
 957 513 l 5,310,-1
 977 508 l 5,265,-1
352 89 m 5,311,312
 358 81 358 81 362 78 c 5,313,314
 396 81 396 81 416 60 c 5,315,316
 413 47 413 47 403 37 c 5,317,318
 323 16 323 16 297 75 c 5,319,320
 273 96 273 96 266.5 117 c 132,-1,321
 260 138 260 138 271 158 c 5,322,323
 337 145 337 145 352 89 c 5,311,312
EndSplineSet
EndChar

StartChar: nonmarkingreturn
Encoding: 1114114 -1 2
Width: 900
Flags: W
HStem: 0 50<351.314 572.445> 100 250<412.232 488.303> 450 250<411.697 488.303> 750 50<327.555 572.445>
VStem: 50 50<267.005 522.445> 500 250<361.697 438.303> 800 50<277.555 522.445>
LayerCount: 2
Fore
SplineSet
450 450 m 128,-1,1
 429 450 429 450 414.5 435.5 c 128,-1,2
 400 421 400 421 400 400 c 128,-1,3
 400 379 400 379 414.5 364.5 c 128,-1,4
 429 350 429 350 450 350 c 128,-1,5
 471 350 471 350 485.5 364.5 c 128,-1,6
 500 379 500 379 500 400 c 128,-1,7
 500 421 500 421 485.5 435.5 c 128,-1,0
 471 450 471 450 450 450 c 128,-1,1
350 116 m 1,8,-1
 350 67 l 1,9,10
 401 50 401 50 450 50 c 0,11,12
 595 50 595 50 697.5 152.5 c 128,-1,13
 800 255 800 255 800 400 c 128,-1,14
 800 545 800 545 697.5 647.5 c 128,-1,15
 595 750 595 750 450 750 c 128,-1,16
 305 750 305 750 202.5 647.5 c 128,-1,17
 100 545 100 545 100 400 c 128,-1,18
 100 255 100 255 150 200 c 1,19,-1
 150 400 l 2,20,21
 150 524 150 524 238 612 c 128,-1,22
 326 700 326 700 450 700 c 128,-1,23
 574 700 574 700 662 612 c 128,-1,24
 750 524 750 524 750 400 c 128,-1,25
 750 276 750 276 662 188 c 128,-1,26
 574 100 574 100 450 100 c 0,27,28
 397 100 397 100 350 116 c 1,8,-1
850 400 m 128,-1,30
 850 234 850 234 733 117 c 128,-1,31
 616 0 616 0 450 0 c 128,-1,32
 284 0 284 0 167 117 c 128,-1,33
 50 234 50 234 50 400 c 128,-1,34
 50 566 50 566 167 683 c 128,-1,35
 284 800 284 800 450 800 c 128,-1,36
 616 800 616 800 733 683 c 128,-1,29
 850 566 850 566 850 400 c 128,-1,30
EndSplineSet
EndChar

StartChar: exclam
Encoding: 33 33 4
Width: 300
GlyphClass: 2
Flags: W
LayerCount: 2
Fore
SplineSet
250 300 m 1,0,-1
 50 300 l 1,1,-1
 50 800 l 1,2,-1
 250 800 l 1,3,-1
 250 300 l 1,0,-1
220.5 170.5 m 128,-1,5
 250 141 250 141 250 100 c 128,-1,6
 250 59 250 59 220.5 29.5 c 128,-1,7
 191 0 191 0 150 0 c 128,-1,8
 109 0 109 0 79.5 29.5 c 128,-1,9
 50 59 50 59 50 100 c 128,-1,10
 50 141 50 141 79.5 170.5 c 128,-1,11
 109 200 109 200 150 200 c 128,-1,4
 191 200 191 200 220.5 170.5 c 128,-1,5
EndSplineSet
EndChar

StartChar: quotedbl
Encoding: 34 34 5
Width: 600
GlyphClass: 2
Flags: W
LayerCount: 2
Fore
SplineSet
250 500 m 1,0,-1
 50 500 l 1,1,-1
 50 800 l 1,2,-1
 250 800 l 1,3,-1
 250 500 l 1,0,-1
550 500 m 1,4,-1
 350 500 l 1,5,-1
 350 800 l 1,6,-1
 550 800 l 1,7,-1
 550 500 l 1,4,-1
EndSplineSet
EndChar

StartChar: numbersign
Encoding: 35 35 6
Width: 750
GlyphClass: 2
Flags: W
LayerCount: 2
Fore
SplineSet
190 508 m 1,0,-1
 227 592 l 1,1,-1
 144 592 l 1,2,-1
 200 717 l 1,3,-1
 283 717 l 1,4,-1
 321 800 l 1,5,-1
 446 800 l 1,6,-1
 408 717 l 1,7,-1
 492 717 l 1,8,-1
 529 800 l 1,9,-1
 654 800 l 1,10,-1
 617 717 l 1,11,-1
 700 717 l 1,12,-1
 644 592 l 1,13,-1
 560 592 l 1,14,-1
 523 508 l 1,15,-1
 606 508 l 1,16,-1
 550 383 l 1,17,-1
 467 383 l 1,18,-1
 429 300 l 1,19,-1
 304 300 l 1,20,-1
 342 383 l 1,21,-1
 258 383 l 1,22,-1
 221 300 l 1,23,-1
 96 300 l 1,24,-1
 133 383 l 1,25,-1
 50 383 l 1,26,-1
 106 508 l 1,27,-1
 190 508 l 1,0,-1
352 592 m 1,28,-1
 315 508 l 1,29,-1
 398 508 l 1,30,-1
 435 592 l 1,31,-1
 352 592 l 1,28,-1
EndSplineSet
EndChar

StartChar: dollar
Encoding: 36 36 7
Width: 800
GlyphClass: 2
Flags: W
LayerCount: 2
Fore
SplineSet
450 353 m 1,0,-1
 450 205 l 1,1,-1
 605 205 l 2,2,3
 643 205 643 205 643 294 c 0,4,5
 643 353 643 353 605 353 c 2,6,-1
 450 353 l 1,0,-1
350 596 m 1,7,-1
 194 596 l 2,8,9
 155 596 155 596 155 527 c 128,-1,10
 155 458 155 458 194 458 c 2,11,-1
 350 458 l 1,12,-1
 350 596 l 1,7,-1
450 701 m 1,13,-1
 749 701 l 1,14,-1
 749 596 l 1,15,-1
 450 596 l 1,16,-1
 450 458 l 1,17,-1
 605 458 l 2,18,19
 749 458 749 458 749 294 c 0,20,21
 749 100 749 100 605 100 c 2,22,-1
 450 100 l 1,23,-1
 450 0 l 1,24,-1
 350 0 l 1,25,-1
 350 100 l 1,26,-1
 50 100 l 1,27,-1
 50 205 l 1,28,-1
 350 205 l 1,29,-1
 350 353 l 1,30,-1
 194 353 l 2,31,32
 50 353 50 353 50 527 c 128,-1,33
 50 701 50 701 194 701 c 2,34,-1
 350 701 l 1,35,-1
 350 800 l 1,36,-1
 450 800 l 1,37,-1
 450 701 l 1,13,-1
EndSplineSet
EndChar

StartChar: quoteright
Encoding: 8217 8217 10
Width: 300
GlyphClass: 2
Flags: W
LayerCount: 2
Fore
SplineSet
300 900 m 1,0,-1
 200 600 l 1,1,-1
 0 600 l 1,2,-1
 100 900 l 1,3,-1
 300 900 l 1,0,-1
EndSplineSet
EndChar

StartChar: parenleft
Encoding: 40 40 11
Width: 400
GlyphClass: 2
Flags: W
LayerCount: 2
Fore
SplineSet
350 0 m 1,0,1
 50 0 50 0 50 400 c 128,-1,2
 50 800 50 800 350 800 c 1,3,-1
 350 600 l 1,4,5
 250 600 250 600 250 397 c 0,6,7
 250 200 250 200 350 200 c 1,8,-1
 350 0 l 1,0,1
EndSplineSet
EndChar

StartChar: parenright
Encoding: 41 41 12
Width: 400
GlyphClass: 2
Flags: W
LayerCount: 2
Fore
SplineSet
50 800 m 1,0,1
 350 800 350 800 350 400 c 128,-1,2
 350 0 350 0 50 0 c 1,3,-1
 50 200 l 1,4,5
 150 200 150 200 150 403 c 0,6,7
 150 600 150 600 50 600 c 1,8,-1
 50 800 l 1,0,1
EndSplineSet
EndChar

StartChar: asterisk
Encoding: 42 42 13
Width: 600
GlyphClass: 2
Flags: W
LayerCount: 2
Fore
SplineSet
420 500 m 1,0,-1
 512 408 l 1,1,-1
 441 338 l 1,2,-1
 350 429 l 1,3,-1
 350 300 l 1,4,-1
 250 300 l 1,5,-1
 250 429 l 1,6,-1
 159 338 l 1,7,-1
 88 408 l 1,8,-1
 180 500 l 1,9,-1
 50 500 l 1,10,-1
 50 600 l 1,11,-1
 180 600 l 1,12,-1
 88 692 l 1,13,-1
 159 762 l 1,14,-1
 250 671 l 1,15,-1
 250 800 l 1,16,-1
 350 800 l 1,17,-1
 350 671 l 1,18,-1
 441 762 l 1,19,-1
 512 692 l 1,20,-1
 420 600 l 1,21,-1
 550 600 l 1,22,-1
 550 500 l 1,23,-1
 420 500 l 1,0,-1
EndSplineSet
EndChar

StartChar: plus
Encoding: 43 43 14
Width: 500
GlyphClass: 2
Flags: W
LayerCount: 2
Fore
SplineSet
150 600 m 1,0,-1
 350 600 l 1,1,-1
 350 500 l 1,2,-1
 450 500 l 1,3,-1
 450 300 l 1,4,-1
 350 300 l 1,5,-1
 350 200 l 1,6,-1
 150 200 l 1,7,-1
 150 300 l 1,8,-1
 50 300 l 1,9,-1
 50 500 l 1,10,-1
 150 500 l 1,11,-1
 150 600 l 1,0,-1
EndSplineSet
EndChar

StartChar: comma
Encoding: 44 44 15
Width: 400
GlyphClass: 2
Flags: W
LayerCount: 2
Fore
SplineSet
350 200 m 1,0,-1
 250 -100 l 1,1,-1
 50 -100 l 1,2,-1
 150 200 l 1,3,-1
 350 200 l 1,0,-1
EndSplineSet
EndChar

StartChar: hyphen
Encoding: 45 45 16
Width: 500
GlyphClass: 2
Flags: W
LayerCount: 2
Fore
SplineSet
450 300 m 1,0,-1
 50 300 l 1,1,-1
 50 500 l 1,2,-1
 450 500 l 1,3,-1
 450 300 l 1,0,-1
EndSplineSet
EndChar

StartChar: period
Encoding: 46 46 17
Width: 300
GlyphClass: 2
Flags: W
LayerCount: 2
Fore
SplineSet
220.5 170.5 m 128,-1,1
 250 141 250 141 250 100 c 128,-1,2
 250 59 250 59 220.5 29.5 c 128,-1,3
 191 0 191 0 150 0 c 128,-1,4
 109 0 109 0 79.5 29.5 c 128,-1,5
 50 59 50 59 50 100 c 128,-1,6
 50 141 50 141 79.5 170.5 c 128,-1,7
 109 200 109 200 150 200 c 128,-1,0
 191 200 191 200 220.5 170.5 c 128,-1,1
EndSplineSet
EndChar

StartChar: slash
Encoding: 47 47 18
Width: 700
GlyphClass: 2
Flags: W
LayerCount: 2
Fore
SplineSet
50 0 m 1,0,-1
 250 0 l 1,1,-1
 650 800 l 1,2,-1
 450 800 l 1,3,-1
 50 0 l 1,0,-1
EndSplineSet
EndChar

StartChar: zero
Encoding: 48 48 19
Width: 1300
GlyphClass: 2
Flags: W
LayerCount: 2
Fore
SplineSet
1250 400 m 128,-1,1
 1250 0 1250 0 950 0 c 2,2,-1
 350 0 l 2,3,4
 50 0 50 0 50 400 c 128,-1,5
 50 800 50 800 350 800 c 2,6,-1
 950 800 l 2,7,0
 1250 800 1250 800 1250 400 c 128,-1,1
349 600 m 2,8,9
 250 600 250 600 250 400 c 128,-1,10
 250 200 250 200 350 200 c 2,11,-1
 950 200 l 2,12,13
 1050 200 1050 200 1050 400 c 128,-1,14
 1050 600 1050 600 950 600 c 2,15,-1
 349 600 l 2,8,9
EndSplineSet
EndChar

StartChar: one
Encoding: 49 49 20
Width: 450
GlyphClass: 2
Flags: W
LayerCount: 2
Fore
SplineSet
400 0 m 1,0,-1
 200 0 l 1,1,-1
 200 500 l 2,2,3
 200 600 200 600 100 600 c 2,4,-1
 0 600 l 1,5,-1
 0 800 l 1,6,-1
 100 800 l 2,7,8
 400 800 400 800 400 500 c 2,9,-1
 400 0 l 1,0,-1
EndSplineSet
EndChar

StartChar: two
Encoding: 50 50 21
Width: 1000
GlyphClass: 2
Flags: W
LayerCount: 2
Fore
SplineSet
650 800 m 6,0,1
 950 800 950 800 950 548.5 c 4,2,3
 950 300 950 300 650 300 c 6,4,-1
 450 300 l 6,5,6
 250 300 250 300 250 200 c 5,7,-1
 950 200 l 1,8,-1
 950 0 l 1,9,-1
 50 0 l 1,10,-1
 50 200 l 6,11,12
 50 500 50 500 450 500 c 6,13,-1
 700 500 l 6,14,15
 750 500 750 500 750 550 c 132,-1,16
 750 600 750 600 700 600 c 6,17,-1
 50 600 l 5,18,-1
 50 800 l 5,19,-1
 650 800 l 6,0,1
EndSplineSet
EndChar

StartChar: three
Encoding: 51 51 22
Width: 900
GlyphClass: 2
Flags: W
LayerCount: 2
Fore
SplineSet
550 0 m 2,0,-1
 50 0 l 1,1,-1
 50 200 l 1,2,-1
 550 200 l 2,3,4
 650 200 650 200 650 300 c 1,5,-1
 50 300 l 1,6,-1
 50 500 l 1,7,-1
 650 500 l 1,8,9
 650 600 650 600 551 600 c 2,10,-1
 50 600 l 1,11,-1
 50 800 l 1,12,-1
 550 800 l 2,13,14
 850 800 850 800 850 400 c 128,-1,15
 850 0 850 0 550 0 c 2,0,-1
EndSplineSet
EndChar

StartChar: four
Encoding: 52 52 23
Width: 900
GlyphClass: 2
Flags: W
LayerCount: 2
Fore
SplineSet
50 800 m 1,0,-1
 250 800 l 1,1,-1
 250 406 l 2,2,3
 250 300 250 300 350 300 c 2,4,-1
 450 300 l 1,5,-1
 450 550 l 1,6,-1
 650 550 l 1,7,-1
 650 300 l 1,8,-1
 850 300 l 1,9,-1
 850 100 l 1,10,-1
 650 100 l 1,11,-1
 650 0 l 1,12,-1
 450 0 l 1,13,-1
 450 100 l 1,14,-1
 350 100 l 2,15,16
 50 100 50 100 50 400 c 2,17,-1
 50 800 l 1,0,-1
EndSplineSet
EndChar

StartChar: six
Encoding: 54 54 25
Width: 1200
GlyphClass: 2
Flags: W
LayerCount: 2
Fore
SplineSet
900 0 m 2,0,-1
 350 0 l 2,1,2
 50 0 50 0 50 400 c 128,-1,3
 50 800 50 800 350 800 c 2,4,-1
 1150 800 l 1,5,-1
 1150 600 l 1,6,-1
 350 600 l 2,7,8
 250 600 250 600 250 400 c 128,-1,9
 250 200 250 200 350 200 c 2,10,-1
 900 200 l 2,11,12
 950 200 950 200 950 250 c 128,-1,13
 950 300 950 300 900 300 c 2,14,-1
 350 300 l 1,15,-1
 350 500 l 1,16,-1
 900 500 l 2,17,18
 1150 500 1150 500 1150 250 c 128,-1,19
 1150 0 1150 0 900 0 c 2,0,-1
EndSplineSet
EndChar

StartChar: seven
Encoding: 55 55 26
Width: 900
GlyphClass: 2
Flags: W
LayerCount: 2
Fore
SplineSet
450 800 m 2,0,1
 750 800 750 800 750 500 c 2,2,-1
 750 400 l 1,3,-1
 850 400 l 1,4,-1
 850 200 l 1,5,-1
 750 200 l 1,6,-1
 750 0 l 1,7,-1
 550 0 l 1,8,-1
 550 200 l 1,9,-1
 250 200 l 1,10,-1
 250 400 l 1,11,-1
 550 400 l 1,12,-1
 550 500 l 2,13,14
 550 600 550 600 444 600 c 2,15,-1
 50 600 l 1,16,-1
 50 800 l 1,17,-1
 450 800 l 2,0,1
EndSplineSet
EndChar

StartChar: eight
Encoding: 56 56 27
Width: 1100
GlyphClass: 2
Flags: W
LayerCount: 2
Fore
SplineSet
300 600 m 2,0,1
 250 600 250 600 250 550 c 128,-1,2
 250 500 250 500 300 500 c 2,3,-1
 800 500 l 2,4,5
 850 500 850 500 850 550 c 128,-1,6
 850 600 850 600 800 600 c 2,7,-1
 300 600 l 2,0,1
800 200 m 2,8,9
 850 200 850 200 850 250 c 128,-1,10
 850 300 850 300 800 300 c 2,11,-1
 300 300 l 2,12,13
 250 300 250 300 250 250 c 128,-1,14
 250 200 250 200 300 200 c 2,15,-1
 800 200 l 2,8,9
800 800 m 2,16,17
 1050 800 1050 800 1050 550 c 0,18,19
 1050 450 1050 450 1000 400 c 1,20,21
 1050 350 1050 350 1050 250 c 0,22,23
 1050 0 1050 0 800 0 c 2,24,-1
 300 0 l 2,25,26
 50 0 50 0 50 250 c 1,27,28
 49 350 49 350 100 400 c 1,29,30
 50 450 50 450 50 550 c 0,31,32
 50 800 50 800 300 800 c 2,33,-1
 800 800 l 2,16,17
EndSplineSet
EndChar

StartChar: nine
Encoding: 57 57 28
Width: 1200
GlyphClass: 2
Flags: W
LayerCount: 2
Fore
SplineSet
50 500 m 128,-1,1
 50 800 50 800 400 800 c 2,2,-1
 800 800 l 2,3,4
 1150 800 1150 800 1150 500 c 2,5,-1
 1150 0 l 1,6,-1
 950 0 l 1,7,-1
 950 500 l 2,8,9
 950 600 950 600 800 600 c 2,10,-1
 400 600 l 2,11,12
 250 600 250 600 250 500 c 128,-1,13
 250 400 250 400 400 400 c 2,14,-1
 900 400 l 1,15,-1
 900 200 l 1,16,-1
 400 200 l 2,17,0
 50 200 50 200 50 500 c 128,-1,1
EndSplineSet
EndChar

StartChar: colon
Encoding: 58 58 29
Width: 300
GlyphClass: 2
Flags: W
LayerCount: 2
Fore
SplineSet
220.5 470.5 m 128,-1,1
 250 441 250 441 250 400 c 128,-1,2
 250 359 250 359 220.5 329.5 c 128,-1,3
 191 300 191 300 150 300 c 128,-1,4
 109 300 109 300 79.5 329.5 c 128,-1,5
 50 359 50 359 50 400 c 128,-1,6
 50 441 50 441 79.5 470.5 c 128,-1,7
 109 500 109 500 150 500 c 128,-1,0
 191 500 191 500 220.5 470.5 c 128,-1,1
220.5 170.5 m 128,-1,9
 250 141 250 141 250 100 c 128,-1,10
 250 59 250 59 220.5 29.5 c 128,-1,11
 191 0 191 0 150 0 c 128,-1,12
 109 0 109 0 79.5 29.5 c 128,-1,13
 50 59 50 59 50 100 c 128,-1,14
 50 141 50 141 79.5 170.5 c 128,-1,15
 109 200 109 200 150 200 c 128,-1,8
 191 200 191 200 220.5 170.5 c 128,-1,9
EndSplineSet
EndChar

StartChar: semicolon
Encoding: 59 59 30
Width: 400
GlyphClass: 2
Flags: W
LayerCount: 2
Fore
SplineSet
320.5 470.5 m 128,-1,1
 350 441 350 441 350 400 c 128,-1,2
 350 359 350 359 320.5 329.5 c 128,-1,3
 291 300 291 300 250 300 c 128,-1,4
 209 300 209 300 179.5 329.5 c 128,-1,5
 150 359 150 359 150 400 c 128,-1,6
 150 441 150 441 179.5 470.5 c 128,-1,7
 209 500 209 500 250 500 c 128,-1,0
 291 500 291 500 320.5 470.5 c 128,-1,1
350 200 m 1,8,-1
 250 -100 l 1,9,-1
 50 -100 l 1,10,-1
 150 200 l 1,11,-1
 350 200 l 1,8,-1
EndSplineSet
EndChar

StartChar: less
Encoding: 60 60 31
Width: 500
GlyphClass: 2
Flags: W
LayerCount: 2
Fore
SplineSet
450 0 m 1,0,-1
 250 0 l 1,1,-1
 50 400 l 1,2,-1
 250 800 l 1,3,-1
 450 800 l 1,4,-1
 250 400 l 1,5,-1
 450 0 l 1,0,-1
EndSplineSet
EndChar

StartChar: equal
Encoding: 61 61 32
Width: 500
GlyphClass: 2
Flags: W
LayerCount: 2
Fore
SplineSet
450 450 m 1,0,-1
 50 450 l 1,1,-1
 50 650 l 1,2,-1
 450 650 l 1,3,-1
 450 450 l 1,0,-1
450 150 m 1,4,-1
 50 150 l 1,5,-1
 50 350 l 1,6,-1
 450 350 l 1,7,-1
 450 150 l 1,4,-1
EndSplineSet
EndChar

StartChar: greater
Encoding: 62 62 33
Width: 500
GlyphClass: 2
Flags: W
LayerCount: 2
Fore
SplineSet
50 800 m 1,0,-1
 250 800 l 1,1,-1
 450 400 l 1,2,-1
 250 0 l 1,3,-1
 50 0 l 1,4,-1
 250 400 l 1,5,-1
 50 800 l 1,0,-1
EndSplineSet
EndChar

StartChar: question
Encoding: 63 63 34
Width: 1000
GlyphClass: 2
Flags: W
LayerCount: 2
Fore
SplineSet
253.59 225 m 1,0,1
 277 300 277 300 450 300 c 2,2,-1
 650 300 l 2,3,4
 950 300 950 300 950 548.5 c 0,5,6
 950 800 950 800 650 800 c 2,7,-1
 50 800 l 1,8,-1
 50 600 l 1,9,-1
 700 600 l 2,10,11
 750 600 750 600 750 550 c 128,-1,12
 750 500 750 500 700 500 c 2,13,-1
 450 500 l 2,14,15
 67 500 67 500 50.7246 225 c 9,16,17
 152 225 152 225 253.59 225 c 1,0,1
220.5 170.5 m 128,-1,19
 250 141 250 141 250 100 c 128,-1,20
 250 59 250 59 220.5 29.5 c 128,-1,21
 191 0 191 0 150 0 c 128,-1,22
 109 0 109 0 79.5 29.5 c 128,-1,23
 50 59 50 59 50 100 c 128,-1,24
 50 141 50 141 79.5 170.5 c 128,-1,25
 109 200 109 200 150 200 c 128,-1,18
 191 200 191 200 220.5 170.5 c 128,-1,19
EndSplineSet
EndChar

StartChar: at
Encoding: 64 64 35
Width: 1000
GlyphClass: 2
Flags: W
LayerCount: 2
Fore
SplineSet
450 200 m 2,0,1
 251 200 251 200 250 399 c 1,2,3
 250 600 250 600 450 600 c 2,4,-1
 550 600 l 2,5,6
 750 600 750 600 750 400 c 2,7,-1
 750 350 l 2,8,9
 750 300 750 300 800 300 c 128,-1,10
 850 300 850 300 850 350 c 2,11,-1
 850 400 l 2,12,13
 850 700 850 700 650 700 c 2,14,-1
 350 700 l 2,15,16
 150 700 150 700 150 400 c 128,-1,17
 150 100 150 100 350 100 c 2,18,-1
 850 100 l 1,19,-1
 850 0 l 1,20,-1
 350 0 l 2,21,22
 50 0 50 0 50 399 c 0,23,24
 50 800 50 800 350 800 c 2,25,-1
 650 800 l 2,26,27
 949 800 949 800 950 400 c 1,28,-1
 950 300 l 2,29,30
 950 200 950 200 850 200 c 2,31,-1
 750 200 l 2,32,33
 650 200 650 200 650 300 c 2,34,-1
 650 400 l 2,35,36
 650 500 650 500 550 500 c 2,37,-1
 450 500 l 2,38,39
 350 500 350 500 350 400 c 128,-1,40
 350 300 350 300 450 300 c 2,41,-1
 600 300 l 1,42,-1
 600 200 l 1,43,-1
 450 200 l 2,0,1
EndSplineSet
EndChar

StartChar: A
Encoding: 65 65 36
Width: 1200
GlyphClass: 2
Flags: W
HStem: 0 200<279.688 900> 600 200<279.688 920.312>
VStem: 50 200<229.688 570.312> 950 200<0 570.312>
LayerCount: 2
Fore
SplineSet
50 300 m 2,0,-1
 50 500 l 2,1,2
 50 800 50 800 350 800 c 2,3,-1
 850 800 l 2,4,5
 1150 800 1150 800 1150 500 c 2,6,-1
 1150 0 l 1,7,-1
 950 0 l 1,8,-1
 950 500 l 2,9,10
 950 600 950 600 850 600 c 2,11,-1
 350 600 l 2,12,13
 250 600 250 600 250 500 c 2,14,-1
 250 300 l 2,15,16
 250 200 250 200 350 200 c 2,17,-1
 900 200 l 1,18,-1
 900 0 l 1,19,-1
 350 0 l 2,20,21
 50 0 50 0 50 300 c 2,0,-1
EndSplineSet
EndChar

StartChar: B
Encoding: 66 66 37
Width: 1200
GlyphClass: 2
Flags: W
HStem: 0 200<300 944.092> 300 200<300 944.092> 600 200<278.223 944.092>
VStem: 50 200<0 571.777> 950 200<209.186 293.983 506.017 590.814>
CounterMasks: 1 e0
LayerCount: 2
Fore
SplineSet
50 0 m 1,0,-1
 50 600 l 2,1,2
 50 800 50 800 250 800 c 2,3,-1
 850 800 l 2,4,5
 1150 800 1150 800 1150 550 c 0,6,7
 1150 458 1150 458 1109 400 c 1,8,9
 1150 342 1150 342 1150 250 c 0,10,11
 1150 0 1150 0 850 0 c 2,12,-1
 300 0 l 1,13,-1
 300 200 l 1,14,-1
 900 200 l 2,15,16
 950 200 950 200 950 250 c 128,-1,17
 950 300 950 300 900 300 c 2,18,-1
 300 300 l 1,19,-1
 300 500 l 1,20,-1
 900 500 l 2,21,22
 950 500 950 500 950 550 c 128,-1,23
 950 600 950 600 900 600 c 2,24,-1
 350 600 l 2,25,26
 250 600 250 600 250 500 c 2,27,-1
 250 0 l 1,28,-1
 50 0 l 1,0,-1
EndSplineSet
EndChar

StartChar: C
Encoding: 67 67 38
Width: 900
GlyphClass: 2
Flags: W
LayerCount: 2
Fore
SplineSet
850 0 m 1,0,-1
 350 0 l 2,1,2
 50 0 50 0 50 400 c 128,-1,3
 50 800 50 800 350 800 c 2,4,-1
 850 800 l 1,5,-1
 850 600 l 1,6,-1
 350 600 l 2,7,8
 250 600 250 600 250 400 c 128,-1,9
 250 200 250 200 350 200 c 2,10,-1
 850 200 l 1,11,-1
 850 0 l 1,0,-1
EndSplineSet
EndChar

StartChar: D
Encoding: 68 68 39
Width: 1200
GlyphClass: 2
Flags: W
LayerCount: 2
Fore
SplineSet
850 0 m 2,0,-1
 300 0 l 1,1,-1
 300 200 l 1,2,-1
 850 200 l 2,3,4
 950 200 950 200 950 350 c 2,5,-1
 950 450 l 2,6,7
 950 600 950 600 850 600 c 2,8,-1
 350 600 l 2,9,10
 250 600 250 600 250 500 c 2,11,-1
 250 0 l 1,12,-1
 50 0 l 1,13,-1
 50 500 l 2,14,15
 50 800 50 800 350 800 c 2,16,-1
 850 800 l 2,17,18
 1150 800 1150 800 1150 450 c 2,19,-1
 1150 350 l 2,20,21
 1150 0 1150 0 850 0 c 2,0,-1
EndSplineSet
EndChar

StartChar: E
Encoding: 69 69 40
Width: 900
GlyphClass: 2
Flags: W
HStem: 0 200<279.688 850> 300 200<250 850> 600 200<279.688 850>
VStem: 50 200<228.223 300 500 571.777>
CounterMasks: 1 e0
LayerCount: 2
Fore
SplineSet
50 400 m 128,-1,1
 50 800 50 800 350 800 c 2,2,-1
 850 800 l 1,3,-1
 850 600 l 1,4,-1
 349 600 l 2,5,6
 250 600 250 600 250 500 c 1,7,-1
 850 500 l 1,8,-1
 850 300 l 1,9,-1
 250 300 l 1,10,11
 250 200 250 200 350 200 c 2,12,-1
 850 200 l 1,13,-1
 850 0 l 1,14,-1
 350 0 l 2,15,0
 50 0 50 0 50 400 c 128,-1,1
EndSplineSet
EndChar

StartChar: F
Encoding: 70 70 41
Width: 900
GlyphClass: 2
Flags: W
LayerCount: 2
Fore
SplineSet
850 800 m 1,0,-1
 850 600 l 1,1,-1
 350 600 l 2,2,3
 250 600 250 600 250 500 c 2,4,-1
 250 400 l 1,5,-1
 850 400 l 1,6,-1
 850 200 l 1,7,-1
 250 200 l 1,8,-1
 250 0 l 1,9,-1
 50 0 l 1,10,-1
 50 500 l 2,11,12
 50 800 50 800 350 800 c 2,13,-1
 850 800 l 1,0,-1
EndSplineSet
EndChar

StartChar: G
Encoding: 71 71 42
Width: 1200
GlyphClass: 2
Flags: W
LayerCount: 2
Fore
SplineSet
900 0 m 2,0,-1
 350 0 l 2,1,2
 50 0 50 0 50 400 c 128,-1,3
 50 800 50 800 350 800 c 2,4,-1
 1150 800 l 1,5,-1
 1150 600 l 1,6,-1
 350 600 l 2,7,8
 250 600 250 600 250 400 c 128,-1,9
 250 200 250 200 350 200 c 2,10,-1
 900 200 l 2,11,12
 950 200 950 200 950 250 c 128,-1,13
 950 300 950 300 900 300 c 2,14,-1
 350 300 l 1,15,-1
 350 500 l 1,16,-1
 900 500 l 2,17,18
 1150 500 1150 500 1150 250 c 128,-1,19
 1150 0 1150 0 900 0 c 2,0,-1
EndSplineSet
EndChar

StartChar: H
Encoding: 72 72 43
Width: 900
GlyphClass: 2
Flags: W
LayerCount: 2
Fore
SplineSet
850 0 m 1,0,-1
 650 0 l 1,1,-1
 650 300 l 1,2,-1
 250 300 l 1,3,-1
 250 0 l 1,4,-1
 50 0 l 1,5,-1
 50 800 l 1,6,-1
 250 800 l 1,7,-1
 250 500 l 1,8,-1
 650 500 l 1,9,-1
 650 800 l 1,10,-1
 850 800 l 1,11,-1
 850 0 l 1,0,-1
EndSplineSet
EndChar

StartChar: I
Encoding: 73 73 44
Width: 300
GlyphClass: 2
Flags: W
LayerCount: 2
Fore
SplineSet
250 0 m 1,0,-1
 50 0 l 1,1,-1
 50 800 l 1,2,-1
 250 800 l 1,3,-1
 250 0 l 1,0,-1
EndSplineSet
EndChar

StartChar: J
Encoding: 74 74 45
Width: 800
GlyphClass: 2
Flags: W
LayerCount: 2
Fore
SplineSet
750 300 m 2,0,1
 750 0 750 0 450 0 c 2,2,-1
 50 0 l 1,3,-1
 50 200 l 1,4,-1
 450 200 l 2,5,6
 550 200 550 200 550 300 c 2,7,-1
 550 800 l 1,8,-1
 750 800 l 1,9,-1
 750 300 l 2,0,1
EndSplineSet
EndChar

StartChar: K
Encoding: 75 75 46
Width: 900
GlyphClass: 2
Flags: W
LayerCount: 2
Fore
SplineSet
560 300 m 2,0,-1
 260 300 l 1,1,-1
 260 0 l 1,2,-1
 60 0 l 1,3,-1
 60 800 l 1,4,-1
 260 800 l 1,5,-1
 260 500 l 1,6,-1
 560 500 l 2,7,8
 660 500 660 500 660 600 c 2,9,-1
 660 800 l 1,10,-1
 860 800 l 1,11,-1
 860 600 l 2,12,13
 860 483 860 483 760 400 c 1,14,15
 860 317 860 317 860 200 c 2,16,-1
 860 0 l 1,17,-1
 660 0 l 1,18,-1
 660 200 l 2,19,20
 660 300 660 300 560 300 c 2,0,-1
EndSplineSet
EndChar

StartChar: L
Encoding: 76 76 47
Width: 800
GlyphClass: 2
Flags: W
LayerCount: 2
Fore
SplineSet
50 800 m 1,0,-1
 250 800 l 1,1,-1
 250 300 l 2,2,3
 250 200 250 200 450 200 c 2,4,-1
 750 200 l 1,5,-1
 750 0 l 1,6,-1
 450 0 l 2,7,8
 50 0 50 0 50 300 c 2,9,-1
 50 800 l 1,0,-1
EndSplineSet
EndChar

StartChar: M
Encoding: 77 77 48
Width: 1300
GlyphClass: 2
Flags: W
LayerCount: 2
Fore
SplineSet
1250 450 m 2,0,-1
 1250 0 l 1,1,-1
 1050 0 l 1,2,-1
 1050 450 l 2,3,4
 1050 600 1050 600 900 600 c 128,-1,5
 750 600 750 600 750 450 c 2,6,-1
 750 0 l 1,7,-1
 550 0 l 1,8,-1
 550 450 l 2,9,10
 550 600 550 600 400 600 c 128,-1,11
 250 600 250 600 250 450 c 2,12,-1
 250 0 l 1,13,-1
 50 0 l 1,14,-1
 50 450 l 2,15,16
 50 800 50 800 400 800 c 0,17,18
 550 800 550 800 650 700 c 1,19,20
 750 800 750 800 900 800 c 0,21,22
 1250 800 1250 800 1250 450 c 2,0,-1
438 188 m 1,23,-1
 550 150 l 1,24,-1
 438 113 l 1,25,-1
 400 0 l 1,26,-1
 363 113 l 1,27,-1
 250 150 l 1,28,-1
 363 188 l 1,29,-1
 400 300 l 1,30,-1
 438 188 l 1,23,-1
EndSplineSet
EndChar

StartChar: N
Encoding: 78 78 49
Width: 800
GlyphClass: 2
Flags: W
LayerCount: 2
Fore
SplineSet
438 188 m 1,0,-1
 550 150 l 1,1,-1
 438 113 l 1,2,-1
 400 0 l 1,3,-1
 363 113 l 1,4,-1
 250 150 l 1,5,-1
 363 188 l 1,6,-1
 400 300 l 1,7,-1
 438 188 l 1,0,-1
750 450 m 2,8,-1
 750 0 l 1,9,-1
 550 0 l 1,10,-1
 550 450 l 2,11,12
 550 600 550 600 400 600 c 128,-1,13
 250 600 250 600 250 450 c 2,14,-1
 250 0 l 1,15,-1
 50 0 l 1,16,-1
 50 450 l 2,17,18
 50 800 50 800 400 800 c 128,-1,19
 750 800 750 800 750 450 c 2,8,-1
EndSplineSet
EndChar

StartChar: O
Encoding: 79 79 50
Width: 1300
GlyphClass: 2
Flags: W
LayerCount: 2
Fore
SplineSet
1250 400 m 128,-1,1
 1250 0 1250 0 950 0 c 2,2,-1
 350 0 l 2,3,4
 50 0 50 0 50 400 c 128,-1,5
 50 800 50 800 350 800 c 2,6,-1
 950 800 l 2,7,0
 1250 800 1250 800 1250 400 c 128,-1,1
349 600 m 2,8,9
 250 600 250 600 250 400 c 128,-1,10
 250 200 250 200 350 200 c 2,11,-1
 950 200 l 2,12,13
 1050 200 1050 200 1050 400 c 128,-1,14
 1050 600 1050 600 950 600 c 2,15,-1
 349 600 l 2,8,9
EndSplineSet
EndChar

StartChar: P
Encoding: 80 80 51
Width: 1200
GlyphClass: 2
Flags: W
LayerCount: 2
Fore
SplineSet
850 200 m 2,0,-1
 300 200 l 1,1,-1
 300 400 l 1,2,-1
 850 400 l 2,3,4
 950 400 950 400 950 500 c 128,-1,5
 950 600 950 600 850 600 c 2,6,-1
 350 600 l 2,7,8
 250 600 250 600 250 500 c 2,9,-1
 250 0 l 1,10,-1
 50 0 l 1,11,-1
 50 500 l 2,12,13
 50 800 50 800 350 800 c 2,14,-1
 850 800 l 2,15,16
 1150 800 1150 800 1150 500 c 128,-1,17
 1150 200 1150 200 850 200 c 2,0,-1
EndSplineSet
EndChar

StartChar: Q
Encoding: 81 81 52
Width: 1300
GlyphClass: 2
Flags: W
LayerCount: 2
Fore
SplineSet
450 800 m 2,0,-1
 950 800 l 2,1,2
 1250 800 1250 800 1250 400 c 128,-1,3
 1250 0 1250 0 950 0 c 2,4,-1
 50 0 l 1,5,-1
 50 200 l 1,6,-1
 950 200 l 2,7,8
 1050 200 1050 200 1050 400 c 128,-1,9
 1050 600 1050 600 950 600 c 2,10,-1
 450 600 l 2,11,12
 350 600 350 600 350 400 c 2,13,-1
 350 250 l 1,14,-1
 150 250 l 1,15,-1
 150 400 l 2,16,17
 150 800 150 800 450 800 c 2,0,-1
EndSplineSet
EndChar

StartChar: R
Encoding: 82 82 53
Width: 1200
GlyphClass: 2
Flags: W
LayerCount: 2
Fore
SplineSet
900 800 m 2,0,1
 1150 800 1150 800 1150 550 c 128,-1,2
 1150 300 1150 300 900 300 c 2,3,-1
 550 300 l 2,4,5
 500 300 500 300 500 250 c 128,-1,6
 500 200 500 200 550 200 c 2,7,-1
 1150 200 l 1,8,-1
 1150 0 l 1,9,-1
 550 0 l 2,10,11
 300 0 300 0 300 250 c 128,-1,12
 300 500 300 500 550 500 c 2,13,-1
 900 500 l 2,14,15
 950 500 950 500 950 550 c 128,-1,16
 950 600 950 600 900 600 c 2,17,-1
 300 600 l 2,18,19
 250 600 250 600 250 551 c 2,20,-1
 250 0 l 1,21,-1
 50 0 l 1,22,-1
 50 550 l 2,23,24
 50 800 50 800 300 800 c 2,25,-1
 900 800 l 2,0,1
EndSplineSet
EndChar

StartChar: S
Encoding: 83 83 54
Width: 1000
GlyphClass: 2
Flags: W
LayerCount: 2
Fore
SplineSet
950 800 m 1,0,-1
 950 600 l 1,1,-1
 300 600 l 2,2,3
 250 600 250 600 250 550 c 128,-1,4
 250 500 250 500 300 500 c 2,5,-1
 700 500 l 2,6,7
 950 500 950 500 950 250 c 128,-1,8
 950 0 950 0 700 0 c 2,9,-1
 50 0 l 1,10,-1
 50 200 l 1,11,-1
 700 200 l 2,12,13
 750 200 750 200 750 250 c 128,-1,14
 750 300 750 300 700 300 c 2,15,-1
 300 300 l 2,16,17
 50 300 50 300 50 550 c 128,-1,18
 50 800 50 800 300 800 c 2,19,-1
 950 800 l 1,0,-1
EndSplineSet
EndChar

StartChar: T
Encoding: 84 84 55
Width: 900
GlyphClass: 2
Flags: W
LayerCount: 2
Fore
SplineSet
850 600 m 1,0,-1
 550 600 l 1,1,-1
 550 0 l 1,2,-1
 350 0 l 1,3,-1
 350 600 l 1,4,-1
 50 600 l 1,5,-1
 50 800 l 1,6,-1
 850 800 l 1,7,-1
 850 600 l 1,0,-1
EndSplineSet
EndChar

StartChar: U
Encoding: 85 85 56
Width: 800
GlyphClass: 2
Flags: W
LayerCount: 2
Fore
SplineSet
400 500 m 1,0,-1
 363 613 l 1,1,-1
 250 650 l 1,2,-1
 363 688 l 1,3,-1
 400 800 l 1,4,-1
 438 688 l 1,5,-1
 550 650 l 1,6,-1
 438 613 l 1,7,-1
 400 500 l 1,0,-1
400 0 m 128,-1,9
 50 0 50 0 50 350 c 2,10,-1
 50 800 l 1,11,-1
 250 800 l 1,12,-1
 250 350 l 2,13,14
 250 200 250 200 400 200 c 128,-1,15
 550 200 550 200 550 350 c 2,16,-1
 550 800 l 1,17,-1
 750 800 l 1,18,-1
 750 350 l 2,19,8
 750 0 750 0 400 0 c 128,-1,9
EndSplineSet
EndChar

StartChar: V
Encoding: 86 86 57
Width: 800
GlyphClass: 2
Flags: W
LayerCount: 2
Fore
SplineSet
750 800 m 1,0,-1
 750 400 l 2,1,2
 750 300 750 300 700 250 c 2,3,-1
 500 50 l 2,4,5
 450 0 450 0 400 0 c 128,-1,6
 350 0 350 0 300 50 c 2,7,-1
 100 251 l 2,8,9
 50 300 50 300 50 400 c 2,10,-1
 50 800 l 1,11,-1
 250 800 l 1,12,-1
 250 400 l 2,13,14
 250 350 250 350 290 310 c 2,15,-1
 360 240 l 2,16,17
 400 200 400 200 440 240 c 2,18,-1
 510 310 l 2,19,20
 550 350 550 350 550 400 c 2,21,-1
 550 800 l 1,22,-1
 750 800 l 1,0,-1
EndSplineSet
EndChar

StartChar: W
Encoding: 87 87 58
Width: 1300
GlyphClass: 2
Flags: W
LayerCount: 2
Fore
SplineSet
50 350 m 2,0,-1
 50 800 l 1,1,-1
 250 800 l 1,2,-1
 250 350 l 2,3,4
 250 200 250 200 400 200 c 128,-1,5
 550 200 550 200 550 350 c 2,6,-1
 550 800 l 1,7,-1
 750 800 l 1,8,-1
 750 350 l 2,9,10
 750 200 750 200 900 200 c 128,-1,11
 1050 200 1050 200 1050 350 c 2,12,-1
 1050 800 l 1,13,-1
 1250 800 l 1,14,-1
 1250 350 l 2,15,16
 1250 0 1250 0 900 0 c 0,17,18
 750 0 750 0 650 100 c 1,19,20
 550 0 550 0 400 0 c 0,21,22
 50 0 50 0 50 350 c 2,0,-1
938 688 m 1,23,-1
 1050 650 l 1,24,-1
 938 613 l 1,25,-1
 900 500 l 1,26,-1
 863 613 l 1,27,-1
 750 650 l 1,28,-1
 863 688 l 1,29,-1
 900 800 l 1,30,-1
 938 688 l 1,23,-1
EndSplineSet
EndChar

StartChar: X
Encoding: 88 88 59
Width: 1100
GlyphClass: 2
Flags: W
LayerCount: 2
Fore
SplineSet
650 400 m 128,-1,1
 650 200 650 200 750 200 c 2,2,-1
 1050 200 l 1,3,-1
 1050 0 l 1,4,-1
 750 0 l 2,5,6
 630 0 630 0 550 140 c 1,7,8
 470 0 470 0 350 0 c 2,9,-1
 50 0 l 1,10,-1
 50 200 l 1,11,-1
 350 200 l 2,12,13
 450 200 450 200 450 400 c 128,-1,14
 450 600 450 600 350 600 c 2,15,-1
 50 600 l 1,16,-1
 50 800 l 1,17,-1
 350 800 l 2,18,19
 470 800 470 800 550 663 c 1,20,21
 630 800 630 800 750 800 c 2,22,-1
 1050 800 l 1,23,-1
 1050 600 l 1,24,-1
 750 600 l 2,25,0
 650 600 650 600 650 400 c 128,-1,1
EndSplineSet
EndChar

StartChar: Y
Encoding: 89 89 60
Width: 900
GlyphClass: 2
Flags: W
LayerCount: 2
Fore
SplineSet
350 0 m 1,0,-1
 350 200 l 1,1,2
 50 250 50 250 50 600 c 2,3,-1
 50 800 l 1,4,-1
 250 800 l 1,5,-1
 250 600 l 2,6,7
 250 400 250 400 450 400 c 128,-1,8
 650 400 650 400 650 600 c 2,9,-1
 650 800 l 1,10,-1
 850 800 l 1,11,-1
 850 600 l 2,12,13
 850 250 850 250 550 200 c 1,14,-1
 550 0 l 1,15,-1
 350 0 l 1,0,-1
488 688 m 1,16,-1
 600 650 l 1,17,-1
 488 613 l 1,18,-1
 450 500 l 1,19,-1
 413 613 l 1,20,-1
 300 650 l 1,21,-1
 413 688 l 1,22,-1
 450 800 l 1,23,-1
 488 688 l 1,16,-1
EndSplineSet
EndChar

StartChar: Z
Encoding: 90 90 61
Width: 1000
GlyphClass: 2
Flags: W
HStem: 0 200<250 950> 300 200<279.688 720.312> 600 200<50 750>
VStem: 50 900<0 200 300 500 600 800>
CounterMasks: 1 e0
LayerCount: 2
Fore
SplineSet
50 0 m 1,0,-1
 50 200 l 2,1,2
 50 500 50 500 350 500 c 2,3,-1
 650 500 l 2,4,5
 750 500 750 500 750 600 c 1,6,-1
 50 600 l 1,7,-1
 50 800 l 1,8,-1
 950 800 l 1,9,-1
 950 600 l 2,10,11
 950 300 950 300 650 300 c 2,12,-1
 350 300 l 2,13,14
 250 300 250 300 250 200 c 1,15,-1
 950 200 l 1,16,-1
 950 0 l 1,17,-1
 50 0 l 1,0,-1
EndSplineSet
EndChar

StartChar: bracketleft
Encoding: 91 91 62
Width: 500
GlyphClass: 2
Flags: W
LayerCount: 2
Fore
SplineSet
450 0 m 1,0,-1
 150 0 l 2,1,2
 50 0 50 0 50 100 c 2,3,-1
 50 700 l 2,4,5
 50 800 50 800 150 800 c 2,6,-1
 450 800 l 1,7,-1
 450 600 l 1,8,-1
 300 600 l 2,9,10
 250 600 250 600 250 550 c 2,11,-1
 250 250 l 2,12,13
 250 200 250 200 300 200 c 2,14,-1
 450 200 l 1,15,-1
 450 0 l 1,0,-1
EndSplineSet
EndChar

StartChar: backslash
Encoding: 92 92 63
Width: 700
GlyphClass: 2
Flags: W
LayerCount: 2
Fore
SplineSet
251 800 m 1,0,-1
 50 800 l 1,1,-1
 451 0 l 1,2,-1
 650 0 l 1,3,-1
 251 800 l 1,0,-1
EndSplineSet
EndChar

StartChar: bracketright
Encoding: 93 93 64
Width: 500
GlyphClass: 2
Flags: W
LayerCount: 2
Fore
SplineSet
50 200 m 1,0,-1
 200 200 l 2,1,2
 250 200 250 200 250 250 c 2,3,-1
 250 550 l 2,4,5
 250 600 250 600 200 600 c 2,6,-1
 50 600 l 1,7,-1
 50 800 l 1,8,-1
 350 800 l 2,9,10
 450 800 450 800 450 700 c 2,11,-1
 450 100 l 2,12,13
 450 0 450 0 350 0 c 2,14,-1
 50 0 l 1,15,-1
 50 200 l 1,0,-1
EndSplineSet
EndChar

StartChar: asciicircum
Encoding: 94 94 65
Width: 700
GlyphClass: 2
Flags: W
LayerCount: 2
Fore
SplineSet
650 300 m 1,0,-1
 650 500 l 1,1,-1
 350 800 l 1,2,-1
 50 500 l 1,3,-1
 50 300 l 1,4,-1
 350 600 l 1,5,-1
 650 300 l 1,0,-1
EndSplineSet
EndChar

StartChar: underscore
Encoding: 95 95 66
Width: 900
GlyphClass: 2
Flags: W
LayerCount: 2
Fore
SplineSet
850 0 m 1,0,-1
 50 0 l 1,1,-1
 50 200 l 1,2,-1
 850 200 l 1,3,-1
 850 0 l 1,0,-1
EndSplineSet
EndChar

StartChar: quoteleft
Encoding: 8216 8216 67
Width: 300
GlyphClass: 2
Flags: W
LayerCount: 2
Fore
SplineSet
0 900 m 1,0,-1
 100 600 l 1,1,-1
 300 600 l 1,2,-1
 200 900 l 1,3,-1
 0 900 l 1,0,-1
EndSplineSet
EndChar

StartChar: a
Encoding: 97 97 68
Width: 950
GlyphClass: 2
Flags: W
HStem: 0 200<262.463 653.613> 300 200<262.463 600> 600 200<50 653.613>
VStem: 50 200<209.186 290.814> 700 200<260.254 539.746>
CounterMasks: 1 e0
LayerCount: 2
Fore
SplineSet
50 250 m 128,-1,1
 50 500 50 500 300 500 c 2,2,-1
 600 500 l 5,3,-1
 600 300 l 5,4,-1
 300 300 l 2,5,6
 250 300 250 300 250 250 c 128,-1,7
 250 200 250 200 300 200 c 2,8,-1
 600 200 l 6,9,10
 700 200 700 200 700 400 c 132,-1,11
 700 600 700 600 600 600 c 6,12,-1
 50 600 l 1,13,-1
 50 800 l 1,14,-1
 600 800 l 6,15,16
 900 800 900 800 900 400 c 132,-1,17
 900 0 900 0 600 0 c 6,18,-1
 300 0 l 2,19,0
 50 0 50 0 50 250 c 128,-1,1
EndSplineSet
EndChar

StartChar: b
Encoding: 98 98 69
Width: 950
GlyphClass: 2
Flags: W
HStem: 0 200<279.688 350 600 670.312>
VStem: 700 200<228.955 371.045>
LayerCount: 2
Fore
SplineSet
600 600 m 6,0,-1
 300 600 l 1,1,-1
 300 400 l 1,2,-1
 600 400 l 6,3,4
 700 400 700 400 700 300 c 132,-1,5
 700 200 700 200 600 200 c 6,6,-1
 350 200 l 2,7,8
 250 200 250 200 250 300 c 2,9,-1
 250 800 l 1,10,-1
 50 800 l 1,11,-1
 50 300 l 2,12,13
 50 0 50 0 350 0 c 2,14,-1
 600 0 l 6,15,16
 900 0 900 0 900 300 c 132,-1,17
 900 600 900 600 600 600 c 6,0,-1
EndSplineSet
EndChar

StartChar: c
Encoding: 99 99 70
Width: 900
GlyphClass: 2
Flags: W
LayerCount: 2
Fore
SplineSet
850 0 m 5,0,-1
 350 0 l 2,1,2
 50 0 50 0 50 400 c 128,-1,3
 50 800 50 800 350 800 c 2,4,-1
 850 800 l 5,5,-1
 850 600 l 5,6,-1
 350 600 l 2,7,8
 250 600 250 600 250 400 c 128,-1,9
 250 200 250 200 350 200 c 2,10,-1
 850 200 l 5,11,-1
 850 0 l 5,0,-1
EndSplineSet
EndChar

StartChar: d
Encoding: 100 100 71
Width: 950
GlyphClass: 2
Flags: W
HStem: 0 200<279.688 670.312> 400 200<279.688 650> 780 20G<700 900> 780 20G<700 900>
VStem: 50 200<228.955 371.045> 700 200<229.688 800>
LayerCount: 2
Fore
SplineSet
350 600 m 2,0,-1
 650 600 l 5,1,-1
 650 400 l 5,2,-1
 350 400 l 2,3,4
 250 400 250 400 250 300 c 128,-1,5
 250 200 250 200 350 200 c 2,6,-1
 600 200 l 6,7,8
 700 200 700 200 700 300 c 6,9,-1
 700 800 l 5,10,-1
 900 800 l 5,11,-1
 900 300 l 6,12,13
 900 0 900 0 600 0 c 6,14,-1
 350 0 l 2,15,16
 50 0 50 0 50 300 c 128,-1,17
 50 600 50 600 350 600 c 2,0,-1
EndSplineSet
EndChar

StartChar: e
Encoding: 101 101 72
Width: 950
GlyphClass: 2
Flags: W
HStem: 0 200<296.387 900> 300 200<350 687.537> 600 200<296.387 687.537>
VStem: 50 200<260.406 539.746> 700 200<509.186 590.814>
CounterMasks: 1 e0
LayerCount: 2
Fore
SplineSet
900 550 m 132,-1,1
 900 300 900 300 650 300 c 6,2,-1
 350 300 l 1,3,-1
 350 500 l 1,4,-1
 650 500 l 6,5,6
 700 500 700 500 700 550 c 132,-1,7
 700 600 700 600 650 600 c 6,8,-1
 350 600 l 2,9,10
 250 600 250 600 250 400 c 128,-1,11
 250 200 250 200 350 200 c 2,12,-1
 900 200 l 5,13,-1
 900 0 l 5,14,-1
 350 0 l 1,15,16
 50 1 50 1 50 400 c 0,17,18
 50 800 50 800 350 800 c 2,19,-1
 650 800 l 6,20,0
 900 800 900 800 900 550 c 132,-1,1
EndSplineSet
EndChar

StartChar: f
Encoding: 102 102 73
Width: 900
GlyphClass: 2
Flags: W
LayerCount: 2
Fore
SplineSet
850 800 m 1,0,-1
 850 600 l 1,1,-1
 456 600 l 2,2,3
 350 600 350 600 350 500 c 2,4,-1
 350 400 l 1,5,-1
 600 400 l 1,6,-1
 600 200 l 1,7,-1
 350 200 l 1,8,-1
 350 0 l 1,9,-1
 150 0 l 1,10,-1
 150 200 l 1,11,-1
 50 200 l 1,12,-1
 50 400 l 1,13,-1
 150 400 l 1,14,-1
 150 500 l 2,15,16
 150 800 150 800 450 800 c 2,17,-1
 850 800 l 1,0,-1
EndSplineSet
EndChar

StartChar: g
Encoding: 103 103 74
Width: 950
GlyphClass: 2
Flags: W
VStem: 50 200<509.186 590.814> 700 200<260.406 539.746>
LayerCount: 2
Fore
SplineSet
50 550 m 132,-1,1
 50 300 50 300 300 300 c 6,2,-1
 600 300 l 1,3,-1
 600 500 l 1,4,-1
 300 500 l 6,5,6
 250 500 250 500 250 550 c 132,-1,7
 250 600 250 600 300 600 c 6,8,-1
 600 600 l 2,9,10
 700 600 700 600 700 400 c 128,-1,11
 700 200 700 200 600 200 c 2,12,-1
 50 200 l 5,13,-1
 50 0 l 5,14,-1
 600 0 l 1,15,16
 900 1 900 1 900 400 c 0,17,18
 900 800 900 800 600 800 c 2,19,-1
 300 800 l 6,20,0
 50 800 50 800 50 550 c 132,-1,1
EndSplineSet
EndChar

StartChar: h
Encoding: 104 104 75
Width: 800
GlyphClass: 2
Flags: W
HStem: 0 21G<50 250 550 750> 0 21G<50 250 550 750> 300 200<250 485.938> 780 20G<50 250> 780 20G<50 250>
VStem: 50 200<0 300 500 800> 550 200<0 253.613>
LayerCount: 2
Fore
SplineSet
350 300 m 6,0,-1
 250 300 l 1,1,-1
 250 0 l 1,2,-1
 50 0 l 1,3,-1
 50 800 l 1,4,-1
 250 800 l 1,5,-1
 250 500 l 1,6,-1
 350 500 l 6,7,8
 750 500 750 500 750 200 c 6,9,-1
 750 0 l 5,10,-1
 550 0 l 5,11,-1
 550 200 l 6,12,13
 550 300 550 300 350 300 c 6,0,-1
EndSplineSet
EndChar

StartChar: i
Encoding: 105 105 76
Width: 300
GlyphClass: 2
Flags: W
LayerCount: 2
Fore
SplineSet
50 500 m 1,0,-1
 250 500 l 1,1,-1
 250 0 l 1,2,-1
 50 0 l 1,3,-1
 50 500 l 1,0,-1
79.5 629.5 m 128,-1,5
 50 659 50 659 50 700 c 128,-1,6
 50 741 50 741 79.5 770.5 c 128,-1,7
 109 800 109 800 150 800 c 128,-1,8
 191 800 191 800 220.5 770.5 c 128,-1,9
 250 741 250 741 250 700 c 128,-1,10
 250 659 250 659 220.5 629.5 c 128,-1,11
 191 600 191 600 150 600 c 128,-1,4
 109 600 109 600 79.5 629.5 c 128,-1,5
EndSplineSet
EndChar

StartChar: j
Encoding: 106 106 77
Width: 400
GlyphClass: 2
Flags: W
HStem: -200 200<-50 85.9375> 600 200<188.024 311.976>
VStem: 150 200<46.3867 550 638.024 761.976>
LayerCount: 2
Fore
SplineSet
350 100 m 6,0,1
 350 -200 350 -200 -50 -200 c 5,2,-1
 -50 0 l 5,3,4
 150 0 150 0 150 100 c 6,5,-1
 150 550 l 5,6,-1
 350 550 l 5,7,-1
 350 100 l 6,0,1
179.5 629.5 m 132,-1,9
 150 659 150 659 150 700 c 132,-1,10
 150 741 150 741 179.5 770.5 c 132,-1,11
 209 800 209 800 250 800 c 132,-1,12
 291 800 291 800 320.5 770.5 c 132,-1,13
 350 741 350 741 350 700 c 132,-1,14
 350 659 350 659 320.5 629.5 c 132,-1,15
 291 600 291 600 250 600 c 132,-1,8
 209 600 209 600 179.5 629.5 c 132,-1,9
EndSplineSet
EndChar

StartChar: k
Encoding: 107 107 78
Width: 800
GlyphClass: 2
Flags: W
HStem: 0 21G<50 250 550 750> 0 21G<50 250 550 750> 200 200<250 504.858> 780 20G<50 250> 780 20G<50 250>
VStem: 50 200<0 200 400 800> 550 200<0 169.805 461.337 600>
LayerCount: 2
Fore
SplineSet
450 200 m 6,0,-1
 250 200 l 5,1,-1
 250 0 l 5,2,-1
 50 0 l 5,3,-1
 50 800 l 5,4,-1
 250 800 l 5,5,-1
 250 400 l 5,6,-1
 450 400 l 6,7,8
 550 400 550 400 550 600 c 5,9,-1
 750 600 l 5,10,11
 750 383 750 383 650 300 c 5,12,13
 750 217 750 217 750 100 c 6,14,-1
 750 0 l 5,15,-1
 550 0 l 5,16,-1
 550 100 l 6,17,18
 550 200 550 200 450 200 c 6,0,-1
EndSplineSet
EndChar

StartChar: l
Encoding: 108 108 79
Width: 400
GlyphClass: 2
Flags: W
HStem: 0 21G<200 350> 0 21G<200 350> 780 20G<50 250> 780 20G<50 250>
VStem: 50 200<229.688 800>
LayerCount: 2
Fore
SplineSet
50 800 m 1,0,-1
 250 800 l 1,1,-1
 250 300 l 2,2,3
 250 200 250 200 350 200 c 5,4,-1
 350 0 l 5,5,6
 50 0 50 0 50 300 c 2,7,-1
 50 800 l 1,0,-1
EndSplineSet
EndChar

StartChar: m
Encoding: 109 109 80
Width: 1280
GlyphClass: 2
Flags: W
HStem: 0 21G<50 250 540 740 1030 1230> 0 21G<50 250 540 740 1030 1230> 600 200<314.141 481.23 797.051 965.859>
VStem: 50 200<0 540.366> 540 200<0 541.406> 1030 200<0 541.406>
CounterMasks: 1 1c
LayerCount: 2
Fore
SplineSet
1230 450 m 2,0,-1
 1230 0 l 1,1,-1
 1030 0 l 1,2,-1
 1030 450 l 2,3,4
 1030 600 1030 600 885 600 c 128,-1,5
 740 600 740 600 740 450 c 2,6,-1
 740 0 l 1,7,-1
 540 0 l 1,8,-1
 540 450 l 2,9,10
 540 600 540 600 395 600 c 128,-1,11
 250 600 250 600 250 450 c 2,12,-1
 250 0 l 1,13,-1
 50 0 l 1,14,-1
 50 450 l 2,15,16
 50 795.241 50 795.241 395 800 c 0,17,18
 540 802 540 802 640 700 c 1,19,20
 736 802 736 802 885 800 c 4,21,22
 1230 800.681 1230 800.681 1230 450 c 2,0,-1
EndSplineSet
EndChar

StartChar: n
Encoding: 110 110 81
Width: 790
GlyphClass: 2
Flags: W
HStem: 0 21G<50 250 540 740> 0 21G<50 250 540 740> 600 200<310.391 479.609>
VStem: 50 200<0 541.406> 540 200<0 541.406>
LayerCount: 2
Fore
SplineSet
740 450 m 6,0,-1
 740 0 l 5,1,-1
 540 0 l 5,2,-1
 540 450 l 6,3,4
 540 600 540 600 395 600 c 128,-1,5
 250 600 250 600 250 450 c 2,6,-1
 250 0 l 1,7,-1
 50 0 l 1,8,-1
 50 450 l 2,9,10
 50 800 50 800 395 800 c 128,-1,11
 740 800 740 800 740 450 c 6,0,-1
EndSplineSet
EndChar

StartChar: o
Encoding: 111 111 82
Width: 790
GlyphClass: 2
Flags: W
HStem: 0 200<296.387 493.542> 600 200<296.387 493.542>
VStem: 50 200.5<264.062 535.938> 540 200<253.589 546.411>
LayerCount: 2
Fore
SplineSet
740 400 m 132,-1,1
 740 0 740 0 450 0 c 2,2,-1
 350 0 l 2,3,4
 50 0 50 0 50 400 c 128,-1,5
 50 800 50 800 350 800 c 2,6,-1
 450 800 l 2,7,0
 740 800 740 800 740 400 c 132,-1,1
350 600 m 2,8,9
 251 600 251 600 250.5 400 c 128,-1,10
 250 200 250 200 350 200 c 2,11,-1
 450 200 l 2,12,13
 540 200 540 200 540 400 c 128,-1,14
 540 600 540 600 450 600 c 2,15,-1
 350 600 l 2,8,9
EndSplineSet
EndChar

StartChar: p
Encoding: 112 112 83
Width: 848
GlyphClass: 2
Flags: W
HStem: 0 21G<50 250> 0 21G<50 250> 200 200<300 568.312> 600 200<279.688 568.312>
VStem: 50 200<0 570.312> 598 200<428.955 571.045>
LayerCount: 2
Fore
SplineSet
498 200 m 6,0,-1
 300 200 l 5,1,-1
 300 400 l 5,2,-1
 498 400 l 6,3,4
 598 400 598 400 598 500 c 132,-1,5
 598 600 598 600 498 600 c 6,6,-1
 350 600 l 6,7,8
 250 600 250 600 250 500 c 6,9,-1
 250 0 l 5,10,-1
 50 0 l 5,11,-1
 50 500 l 6,12,13
 50 800 50 800 350 800 c 6,14,-1
 498 800 l 6,15,16
 798 800 798 800 798 500 c 132,-1,17
 798 200 798 200 498 200 c 6,0,-1
EndSplineSet
EndChar

StartChar: q
Encoding: 113 113 84
Width: 900
GlyphClass: 2
Flags: W
HStem: 0 21G<750 950> 0 21G<750 950> 200 200<279.688 600> 600 200<279.688 603.613>
VStem: 50 200<428.955 571.045> 650 200<205.908 535.938>
LayerCount: 2
Fore
SplineSet
50 500 m 128,-1,1
 50 800 50 800 350 800 c 2,2,-1
 550 800 l 2,3,4
 850 800 850 800 850 400 c 6,5,-1
 850 250 l 2,6,7
 850 200 850 200 900 200 c 2,8,-1
 950 200 l 1,9,-1
 950 0 l 1,10,-1
 850 0 l 2,11,12
 650 0 650 0 650 200 c 2,13,-1
 650 400 l 2,14,15
 650 600 650 600 550 600 c 2,16,-1
 350 600 l 2,17,18
 250 600 250 600 250 500 c 128,-1,19
 250 400 250 400 350 400 c 2,20,-1
 600 400 l 1,21,-1
 600 200 l 1,22,-1
 350 200 l 2,23,0
 50 200 50 200 50 500 c 128,-1,1
EndSplineSet
EndChar

StartChar: r
Encoding: 114 114 85
Width: 500
GlyphClass: 2
Flags: W
HStem: 0 21G<50 250> 0 21G<50 250> 600 200<279.688 450>
VStem: 50 200<0 570.312>
LayerCount: 2
Fore
SplineSet
50 500 m 2,0,1
 50 800 50 800 350 800 c 2,2,-1
 450 800 l 5,3,-1
 450 600 l 5,4,-1
 350 600 l 2,5,6
 250 600 250 600 250 500 c 2,7,-1
 250 0 l 1,8,-1
 50 0 l 1,9,-1
 50 500 l 2,0,1
EndSplineSet
EndChar

StartChar: s
Encoding: 115 115 86
Width: 800
GlyphClass: 2
Flags: W
HStem: 0 200<50 537.537> 300 200<262.463 537.537> 600 200<262.463 750>
VStem: 50 200<509.186 590.814> 550 200<209.186 290.814>
CounterMasks: 1 e0
LayerCount: 2
Fore
SplineSet
750 800 m 5,0,-1
 750 600 l 5,1,-1
 300 600 l 6,2,3
 250 600 250 600 250 550 c 132,-1,4
 250 500 250 500 300 500 c 6,5,-1
 500 500 l 6,6,7
 750 500 750 500 750 250 c 132,-1,8
 750 0 750 0 500 0 c 6,9,-1
 50 0 l 5,10,-1
 50 200 l 5,11,-1
 500 200 l 6,12,13
 550 200 550 200 550 250 c 132,-1,14
 550 300 550 300 500 300 c 6,15,-1
 300 300 l 6,16,17
 50 300 50 300 50 550 c 132,-1,18
 50 800 50 800 300 800 c 6,19,-1
 750 800 l 5,0,-1
EndSplineSet
EndChar

StartChar: t
Encoding: 116 116 87
Width: 701
GlyphClass: 2
Flags: W
HStem: 0 200<279.688 651> 400 200<250 651> 780 20G<50 250> 780 20G<50 250>
VStem: 50 200<229.688 400 600 800>
LayerCount: 2
Fore
SplineSet
350 0 m 2,0,1
 50 0 50 0 50 300 c 2,2,-1
 50 800 l 1,3,-1
 250 800 l 1,4,-1
 250 600 l 1,5,-1
 651 600 l 5,6,-1
 651 400 l 5,7,-1
 250 400 l 1,8,-1
 250 300 l 2,9,10
 250 200 250 200 350 200 c 2,11,-1
 651 200 l 5,12,-1
 651 0 l 5,13,-1
 350 0 l 2,0,1
EndSplineSet
EndChar

StartChar: u
Encoding: 117 117 88
Width: 800
GlyphClass: 2
Flags: W
HStem: 0 200<308.539 491.461> 780 20G<50 250 550 750> 780 20G<50 250 550 750>
VStem: 50 200<258.594 800> 550 200<258.594 800>
LayerCount: 2
Fore
SplineSet
50 350 m 2,0,-1
 50 800 l 1,1,-1
 250 800 l 1,2,-1
 250 350 l 2,3,4
 250 200 250 200 400 200 c 128,-1,5
 550 200 550 200 550 350 c 6,6,-1
 550 800 l 5,7,-1
 750 800 l 5,8,-1
 750 350 l 6,9,10
 750 0 750 0 400 0 c 128,-1,11
 50 0 50 0 50 350 c 2,0,-1
EndSplineSet
EndChar

StartChar: v
Encoding: 118 118 89
Width: 900
GlyphClass: 2
Flags: W
HStem: 0 21G<400 500> 780 20G<50 250 250 250 650 850 850 850>
LayerCount: 2
Fore
SplineSet
850 800 m 1,0,-1
 650 200 l 1,1,2
 600.005 0.00485229 600.005 0.00485229 450 0 c 128,-1,3
 300 0 300 0 250 200 c 1,4,-1
 50 800 l 1,5,-1
 250 800 l 1,6,-1
 419 230 l 1,7,8
 450 180 450 180 480 230 c 1,9,-1
 650 800 l 1,10,-1
 850 800 l 1,0,-1
EndSplineSet
EndChar

StartChar: w
Encoding: 119 119 90
Width: 1280
GlyphClass: 2
Flags: W
HStem: 0 200<314.141 481.23 797.051 965.859>
LayerCount: 2
Fore
SplineSet
1230 350 m 2,0,-1
 1230 800 l 1,1,-1
 1030 800 l 1,2,-1
 1030 350 l 2,3,4
 1030 200 1030 200 885 200 c 128,-1,5
 740 200 740 200 740 350 c 2,6,-1
 740 800 l 1,7,-1
 540 800 l 1,8,-1
 540 350 l 2,9,10
 540 200 540 200 395 200 c 128,-1,11
 250 200 250 200 250 350 c 2,12,-1
 250 800 l 1,13,-1
 50 800 l 1,14,-1
 50 350 l 2,15,16
 50 4.75879 50 4.75879 395 0 c 0,17,18
 540 -2 540 -2 640 100 c 1,19,20
 736 -2 736 -2 885 0 c 0,21,22
 1230 -0.681641 1230 -0.681641 1230 350 c 2,0,-1
EndSplineSet
EndChar

StartChar: x
Encoding: 120 120 91
Width: 900
GlyphClass: 2
Flags: W
LayerCount: 2
Fore
SplineSet
550 400 m 128,-1,1
 550 200 550 200 650 200 c 2,2,-1
 850 200 l 1,3,-1
 850 0 l 1,4,-1
 650 0 l 2,5,6
 530 0 530 0 450 140 c 1,7,8
 370 0 370 0 250 0 c 2,9,-1
 50 0 l 1,10,-1
 50 200 l 1,11,-1
 250 200 l 2,12,13
 350 200 350 200 350 400 c 128,-1,14
 350 600 350 600 250 600 c 2,15,-1
 50 600 l 1,16,-1
 50 800 l 1,17,-1
 250 800 l 2,18,19
 370 800 370 800 450 663 c 1,20,21
 530 800 530 800 650 800 c 2,22,-1
 850 800 l 1,23,-1
 850 600 l 1,24,-1
 650 600 l 2,25,0
 550 600 550 600 550 400 c 128,-1,1
EndSplineSet
EndChar

StartChar: y
Encoding: 121 121 92
Width: 900
GlyphClass: 2
Flags: W
LayerCount: 2
Fore
SplineSet
350 0 m 1,0,-1
 350 200 l 1,1,2
 50 250 50 250 50 600 c 2,3,-1
 50 800 l 1,4,-1
 250 800 l 1,5,-1
 250 600 l 2,6,7
 250 400 250 400 450 400 c 128,-1,8
 650 400 650 400 650 600 c 2,9,-1
 650 800 l 1,10,-1
 850 800 l 1,11,-1
 850 600 l 2,12,13
 850 250 850 250 550 200 c 1,14,-1
 550 0 l 1,15,-1
 350 0 l 1,0,-1
EndSplineSet
EndChar

StartChar: z
Encoding: 122 122 93
Width: 1000
GlyphClass: 2
Flags: W
HStem: 0 200<262.463 950> 300 200<262.463 737.537> 600 200<50 737.537>
VStem: 50 200<209.186 290.814> 750 200<509.186 590.814>
CounterMasks: 1 e0
LayerCount: 2
Fore
SplineSet
700 800 m 2,0,1
 950 800 950 800 950 550 c 128,-1,2
 950 300 950 300 700 300 c 2,3,-1
 300 300 l 2,4,5
 250 300 250 300 250 250 c 128,-1,6
 250 200 250 200 300 200 c 2,7,-1
 950 200 l 1,8,-1
 950 0 l 1,9,-1
 300 0 l 2,10,11
 50 0 50 0 50 250 c 128,-1,12
 50 500 50 500 300 500 c 2,13,-1
 700 500 l 2,14,15
 750 500 750 500 750 550 c 128,-1,16
 750 600 750 600 700 600 c 2,17,-1
 50 600 l 1,18,-1
 50 800 l 1,19,-1
 700 800 l 2,0,1
EndSplineSet
EndChar

StartChar: braceleft
Encoding: 123 123 94
Width: 500
GlyphClass: 2
Flags: W
LayerCount: 2
Fore
SplineSet
450 0 m 1,0,-1
 350 0 l 2,1,2
 150 0 150 0 150 250 c 0,3,4
 150 300 150 300 100 300 c 128,-1,5
 50 300 50 300 50 400 c 128,-1,6
 50 500 50 500 100 500 c 128,-1,7
 150 500 150 500 150 550 c 0,8,9
 150 800 150 800 350 800 c 2,10,-1
 450 800 l 1,11,-1
 450 600 l 1,12,13
 350 600 350 600 350 500 c 0,14,15
 350 420 350 420 300 420 c 0,16,17
 280 420 280 420 280 400 c 128,-1,18
 280 380 280 380 300 380 c 0,19,20
 350 380 350 380 350 300 c 0,21,22
 350 200 350 200 450 200 c 1,23,-1
 450 0 l 1,0,-1
EndSplineSet
EndChar

StartChar: bar
Encoding: 124 124 95
Width: 200
GlyphClass: 2
Flags: W
LayerCount: 2
Fore
SplineSet
150 0 m 1,0,-1
 50 0 l 1,1,-1
 50 800 l 1,2,-1
 150 800 l 1,3,-1
 150 0 l 1,0,-1
EndSplineSet
EndChar

StartChar: asciitilde
Encoding: 126 126 97
Width: 500
GlyphClass: 2
Flags: W
LayerCount: 2
Fore
SplineSet
450 500 m 1,0,-1
 450 300 l 1,1,2
 350 250 350 250 250 300 c 128,-1,3
 150 350 150 350 50 300 c 1,4,-1
 50 400 l 1,5,-1
 50 500 l 1,6,7
 150 550 150 550 250 500 c 132,-1,8
 350 450 350 450 450 500 c 1,0,-1
EndSplineSet
EndChar

StartChar: exclamdown
Encoding: 161 161 98
Width: 300
GlyphClass: 2
Flags: W
LayerCount: 2
Fore
SplineSet
250 550 m 1,0,-1
 50 550 l 1,1,-1
 50 0 l 1,2,-1
 250 0 l 1,3,-1
 250 550 l 1,0,-1
220.5 629.5 m 128,-1,5
 250 659 250 659 250 700 c 128,-1,6
 250 741 250 741 220.5 770.5 c 128,-1,7
 191 800 191 800 150 800 c 128,-1,8
 109 800 109 800 79.5 770.5 c 128,-1,9
 50 741 50 741 50 700 c 128,-1,10
 50 659 50 659 79.5 629.5 c 128,-1,11
 109 600 109 600 150 600 c 128,-1,4
 191 600 191 600 220.5 629.5 c 128,-1,5
EndSplineSet
EndChar

StartChar: cent
Encoding: 162 162 99
Width: 600
GlyphClass: 2
Flags: W
LayerCount: 2
Fore
SplineSet
400 250 m 1,0,-1
 550 250 l 1,1,-1
 550 150 l 1,2,-1
 400 150 l 1,3,-1
 400 0 l 1,4,-1
 300 0 l 1,5,-1
 300 150 l 1,6,-1
 250 150 l 2,7,8
 50 150 50 150 50 400 c 128,-1,9
 50 650 50 650 250 650 c 2,10,-1
 300 650 l 1,11,-1
 300 800 l 1,12,-1
 400 800 l 1,13,-1
 400 650 l 1,14,-1
 550 650 l 1,15,-1
 550 550 l 1,16,-1
 400 550 l 1,17,-1
 400 250 l 1,0,-1
300 550 m 1,18,-1
 250 550 l 2,19,20
 150 550 150 550 150 400 c 128,-1,21
 150 250 150 250 250 250 c 2,22,-1
 300 250 l 1,23,-1
 300 550 l 1,18,-1
EndSplineSet
EndChar

StartChar: sterling
Encoding: 163 163 100
Width: 1000
GlyphClass: 2
Flags: W
LayerCount: 2
Fore
SplineSet
450 800 m 2,0,-1
 850 800 l 1,1,-1
 850 625 l 1,2,-1
 456 625 l 2,3,4
 436 625 436 625 418 609 c 128,-1,5
 400 593 400 593 400 575 c 2,6,-1
 400 500 l 1,7,-1
 600 500 l 1,8,-1
 600 350 l 1,9,-1
 400 350 l 1,10,-1
 400 201 l 2,11,12
 400 174 400 174 397 150 c 1,13,-1
 700 150 l 2,14,15
 705 150 705 150 714 150 c 0,16,17
 736 150 736 150 746 150.5 c 128,-1,18
 756 151 756 151 769 153 c 128,-1,19
 782 155 782 155 787 160.5 c 128,-1,20
 792 166 792 166 796 175.5 c 128,-1,21
 800 185 800 185 800 200 c 1,22,-1
 950 200 l 1,23,24
 950 75 950 75 915 37 c 1,25,26
 884 5 884 5 793 1 c 0,27,28
 767 0 767 0 700 0 c 2,29,-1
 50 0 l 1,30,-1
 50 150 l 1,31,-1
 150 150 l 2,32,33
 173 150 173 150 183 151 c 128,-1,34
 193 152 193 152 207.5 156.5 c 128,-1,35
 222 161 222 161 229 171.5 c 128,-1,36
 236 182 236 182 242 201.5 c 128,-1,37
 248 221 248 221 250 250 c 1,38,-1
 250 350 l 1,39,-1
 50 350 l 1,40,-1
 50 500 l 1,41,-1
 250 500 l 1,42,-1
 250 625 l 2,43,44
 250 709 250 709 301.5 754.5 c 128,-1,45
 353 800 353 800 450 800 c 2,0,-1
EndSplineSet
EndChar

StartChar: fraction
Encoding: 8260 8260 101
Width: 700
GlyphClass: 2
Flags: W
LayerCount: 2
Fore
SplineSet
50 0 m 1,0,-1
 250 0 l 1,1,-1
 650 800 l 1,2,-1
 450 800 l 1,3,-1
 50 0 l 1,0,-1
EndSplineSet
EndChar

StartChar: florin
Encoding: 402 402 102
Width: 900
GlyphClass: 2
Flags: W
LayerCount: 2
Fore
SplineSet
250 400 m 1,0,-1
 250 450 l 1,1,-1
 250 529 l 2,2,3
 250 597 250 597 267.5 647 c 128,-1,4
 285 697 285 697 312 725.5 c 128,-1,5
 339 754 339 754 380 771.5 c 128,-1,6
 421 789 421 789 460.5 794.5 c 128,-1,7
 500 800 500 800 550 800 c 128,-1,8
 600 800 600 800 639.5 794.5 c 128,-1,9
 679 789 679 789 720 771.5 c 128,-1,10
 761 754 761 754 788 725.5 c 128,-1,11
 815 697 815 697 832.5 647 c 128,-1,12
 850 597 850 597 850 529 c 2,13,-1
 850 500 l 1,14,-1
 700 500 l 1,15,-1
 700 529 l 2,16,17
 700 598 700 598 659.5 624 c 128,-1,18
 619 650 619 650 550 650 c 0,19,20
 400 650 400 650 400 525 c 2,21,-1
 400 450 l 1,22,-1
 400 400 l 1,23,-1
 600 400 l 1,24,-1
 600 250 l 1,25,-1
 400 250 l 1,26,-1
 400 0 l 2,27,28
 400 -150 400 -150 250 -150 c 2,29,-1
 50 -150 l 1,30,-1
 50 0 l 1,31,-1
 200 0 l 2,32,33
 230 0 230 0 240 10 c 128,-1,34
 250 20 250 20 250 50 c 2,35,-1
 250 250 l 1,36,-1
 50 250 l 1,37,-1
 50 400 l 1,38,-1
 250 400 l 1,0,-1
EndSplineSet
EndChar

StartChar: quotesingle
Encoding: 39 39 103
Width: 300
GlyphClass: 2
Flags: W
LayerCount: 2
Fore
SplineSet
50 650 m 1,0,-1
 50 900 l 1,1,-1
 250 900 l 1,2,-1
 250 650 l 1,3,4
 225 550 225 550 225 500 c 1,5,-1
 75 500 l 1,6,7
 75 550 75 550 50 650 c 1,0,-1
EndSplineSet
EndChar

StartChar: quotedblleft
Encoding: 8220 8220 104
Width: 524
GlyphClass: 2
Flags: W
LayerCount: 2
Fore
SplineSet
62 650 m 1,0,-1
 0 900 l 1,1,-1
 200 900 l 1,2,-1
 262 650 l 1,3,4
 262 550 262 550 275 500 c 1,5,-1
 125 500 l 1,6,7
 112 550 112 550 62 650 c 1,0,-1
312 650 m 1,8,-1
 250 900 l 1,9,-1
 450 900 l 1,10,-1
 512 650 l 1,11,12
 512 550 512 550 525 500 c 1,13,-1
 375 500 l 1,14,15
 362 550 362 550 312 650 c 1,8,-1
EndSplineSet
EndChar

StartChar: guillemotleft
Encoding: 171 171 105
Width: 800
GlyphClass: 2
Flags: W
LayerCount: 2
Fore
SplineSet
450 0 m 1,0,-1
 250 0 l 1,1,-1
 50 400 l 1,2,-1
 250 800 l 1,3,-1
 450 800 l 1,4,-1
 250 400 l 1,5,-1
 450 0 l 1,0,-1
750 0 m 1,6,-1
 550 0 l 1,7,-1
 350 400 l 1,8,-1
 550 800 l 1,9,-1
 750 800 l 1,10,-1
 550 400 l 1,11,-1
 750 0 l 1,6,-1
EndSplineSet
EndChar

StartChar: periodcentered
Encoding: 183 183 106
Width: 400
GlyphClass: 2
Flags: W
LayerCount: 2
Fore
SplineSet
238 588 m 1,0,-1
 350 550 l 1,1,-1
 238 513 l 1,2,-1
 200 400 l 1,3,-1
 163 513 l 1,4,-1
 50 550 l 1,5,-1
 163 588 l 1,6,-1
 200 700 l 1,7,-1
 238 588 l 1,0,-1
EndSplineSet
EndChar

StartChar: paragraph
Encoding: 182 182 107
Width: 500
GlyphClass: 2
Flags: W
LayerCount: 2
Fore
SplineSet
250 600 m 128,-1,1
 333 600 333 600 392 542 c 1,2,3
 448 485 448 485 450 407 c 1,4,-1
 450 405 l 2,5,6
 450 404 450 404 450 400 c 0,7,8
 450 399 450 399 450 395 c 2,9,-1
 450 100 l 1,10,-1
 250 100 l 1,11,-1
 250 125 l 1,12,-1
 300 125 l 1,13,-1
 300 206 l 1,14,15
 276 200 276 200 250 200 c 0,16,17
 167 200 167 200 108.5 258.5 c 128,-1,18
 50 317 50 317 50 400 c 128,-1,19
 50 483 50 483 108.5 541.5 c 128,-1,0
 167 600 167 600 250 600 c 128,-1,1
250 425 m 128,-1,21
 239 425 239 425 232 418 c 128,-1,22
 225 411 225 411 225 400.5 c 128,-1,23
 225 390 225 390 232 382.5 c 128,-1,24
 239 375 239 375 250 375 c 128,-1,25
 261 375 261 375 268 382.5 c 128,-1,26
 275 390 275 390 275 400.5 c 128,-1,27
 275 411 275 411 268 418 c 128,-1,20
 261 425 261 425 250 425 c 128,-1,21
425 394 m 1,28,-1
 425 405 l 2,29,30
 425 473 425 473 374 524 c 128,-1,31
 323 575 323 575 250.5 575 c 128,-1,32
 178 575 178 575 126.5 524 c 128,-1,33
 75 473 75 473 75 400.5 c 128,-1,34
 75 328 75 328 126.5 276.5 c 128,-1,35
 178 225 178 225 250 225 c 0,36,37
 274 225 274 225 300 234 c 1,38,-1
 300 258 l 1,39,40
 277 250 277 250 250 250 c 0,41,42
 188 250 188 250 144 294 c 128,-1,43
 100 338 100 338 100 400 c 128,-1,44
 100 462 100 462 144 506 c 128,-1,45
 188 550 188 550 250 550 c 128,-1,46
 312 550 312 550 356 506 c 0,47,48
 398 464 398 464 400 407 c 1,49,-1
 400 404 l 2,50,51
 400 403 400 403 400 400 c 2,52,-1
 400 125 l 1,53,-1
 425 125 l 1,54,-1
 425 394 l 1,28,-1
EndSplineSet
EndChar

StartChar: bullet
Encoding: 8226 8226 108
Width: 500
GlyphClass: 2
Flags: W
LayerCount: 2
Fore
SplineSet
250 425 m 128,-1,1
 240 425 240 425 232.5 418 c 128,-1,2
 225 411 225 411 225 400 c 128,-1,3
 225 389 225 389 232.5 382 c 128,-1,4
 240 375 240 375 250 375 c 128,-1,5
 260 375 260 375 267.5 382.5 c 128,-1,6
 275 390 275 390 275 400 c 128,-1,7
 275 410 275 410 267.5 417.5 c 128,-1,0
 260 425 260 425 250 425 c 128,-1,1
200 258 m 1,8,-1
 200 233 l 1,9,10
 225 225 225 225 250 225 c 0,11,12
 323 225 323 225 374 276 c 128,-1,13
 425 327 425 327 425 399.5 c 128,-1,14
 425 472 425 472 374 523.5 c 128,-1,15
 323 575 323 575 250.5 575 c 128,-1,16
 178 575 178 575 126.5 523.5 c 128,-1,17
 75 472 75 472 75 399.5 c 128,-1,18
 75 327 75 327 100 300 c 1,19,-1
 100 400 l 2,20,21
 100 462 100 462 144 506 c 128,-1,22
 188 550 188 550 250 550 c 128,-1,23
 312 550 312 550 356 506 c 128,-1,24
 400 462 400 462 400 400 c 128,-1,25
 400 338 400 338 356 294 c 128,-1,26
 312 250 312 250 250 250 c 0,27,28
 223 250 223 250 200 258 c 1,8,-1
450 400 m 128,-1,30
 450 317 450 317 391.5 258.5 c 128,-1,31
 333 200 333 200 250 200 c 128,-1,32
 167 200 167 200 108.5 258.5 c 128,-1,33
 50 317 50 317 50 400 c 128,-1,34
 50 483 50 483 108.5 541.5 c 128,-1,35
 167 600 167 600 250 600 c 128,-1,36
 333 600 333 600 391.5 541.5 c 128,-1,29
 450 483 450 483 450 400 c 128,-1,30
EndSplineSet
EndChar

StartChar: quotesinglbase
Encoding: 8218 8218 109
Width: 400
GlyphClass: 2
Flags: W
LayerCount: 2
Fore
SplineSet
350 800 m 1,0,-1
 250 500 l 1,1,-1
 50 500 l 1,2,-1
 150 800 l 1,3,-1
 350 800 l 1,0,-1
EndSplineSet
EndChar

StartChar: quotedblbase
Encoding: 8222 8222 110
Width: 524
GlyphClass: 2
Flags: W
LayerCount: 2
Fore
SplineSet
463 50 m 1,0,-1
 525 300 l 1,1,-1
 325 300 l 1,2,-1
 263 50 l 1,3,4
 263 -50 263 -50 250 -100 c 1,5,-1
 400 -100 l 1,6,7
 413 -50 413 -50 463 50 c 1,0,-1
213 50 m 1,8,-1
 275 300 l 1,9,-1
 75 300 l 1,10,-1
 13 50 l 1,11,12
 13 -50 13 -50 0 -100 c 1,13,-1
 150 -100 l 1,14,15
 163 -50 163 -50 213 50 c 1,8,-1
EndSplineSet
EndChar

StartChar: quotedblright
Encoding: 8221 8221 111
Width: 524
GlyphClass: 2
Flags: W
LayerCount: 2
Fore
SplineSet
463 650 m 5,0,-1
 525 900 l 5,1,-1
 325 900 l 5,2,-1
 263 650 l 5,3,4
 263 550 263 550 250 500 c 5,5,-1
 400 500 l 5,6,7
 413 550 413 550 463 650 c 5,0,-1
213 650 m 5,8,-1
 275 900 l 5,9,-1
 75 900 l 5,10,-1
 13 650 l 5,11,12
 13 550 13 550 0 500 c 5,13,-1
 150 500 l 5,14,15
 163 550 163 550 213 650 c 5,8,-1
EndSplineSet
EndChar

StartChar: guillemotright
Encoding: 187 187 112
Width: 800
GlyphClass: 2
Flags: W
LayerCount: 2
Fore
SplineSet
350 800 m 1,0,-1
 550 800 l 1,1,-1
 750 400 l 1,2,-1
 550 0 l 1,3,-1
 350 0 l 1,4,-1
 550 400 l 1,5,-1
 350 800 l 1,0,-1
50 800 m 1,6,-1
 250 800 l 1,7,-1
 450 400 l 1,8,-1
 250 0 l 1,9,-1
 50 0 l 1,10,-1
 250 400 l 1,11,-1
 50 800 l 1,6,-1
EndSplineSet
EndChar

StartChar: questiondown
Encoding: 191 191 113
Width: 1100
GlyphClass: 2
Flags: W
LayerCount: 2
Fore
SplineSet
879.5 629.5 m 128,-1,1
 850 659 850 659 850 700 c 128,-1,2
 850 741 850 741 879.5 770.5 c 128,-1,3
 909 800 909 800 950 800 c 128,-1,4
 991 800 991 800 1020.5 770.5 c 128,-1,5
 1050 741 1050 741 1050 700 c 128,-1,6
 1050 659 1050 659 1020.5 629.5 c 128,-1,7
 991 600 991 600 950 600 c 128,-1,0
 909 600 909 600 879.5 629.5 c 128,-1,1
300 0 m 2,8,9
 50 0 50 0 50 250 c 128,-1,10
 50 500 50 500 300 500 c 2,11,-1
 800 500 l 2,12,13
 850 500 850 500 850 550 c 2,14,-1
 850 575 l 1,15,-1
 1050 575 l 1,16,-1
 1050 550 l 2,17,18
 1050 300 1050 300 800 300 c 2,19,-1
 300 300 l 2,20,21
 250 300 250 300 250 250 c 128,-1,22
 250 200 250 200 300 200 c 2,23,-1
 750 200 l 1,24,-1
 1050 200 l 1,25,-1
 1050 0 l 1,26,-1
 750 0 l 1,27,-1
 300 0 l 2,8,9
EndSplineSet
EndChar

StartChar: grave
Encoding: 96 96 114
Width: 350
GlyphClass: 2
Flags: W
LayerCount: 2
Fore
SplineSet
250 800 m 1,0,-1
 350 500 l 1,1,-1
 150 500 l 1,2,-1
 50 800 l 1,3,-1
 250 800 l 1,0,-1
EndSplineSet
EndChar

StartChar: acute
Encoding: 180 180 115
Width: 400
GlyphClass: 2
Flags: W
LayerCount: 2
Fore
SplineSet
150 800 m 1,0,-1
 50 500 l 1,1,-1
 250 500 l 1,2,-1
 350 800 l 1,3,-1
 150 800 l 1,0,-1
EndSplineSet
EndChar

StartChar: circumflex
Encoding: 710 710 116
Width: 1300
GlyphClass: 2
Flags: W
LayerCount: 2
Fore
SplineSet
950 900 m 1,0,-1
 950 1100 l 1,1,-1
 650 1300 l 1,2,-1
 350 1100 l 1,3,-1
 350 900 l 1,4,-1
 650 1100 l 1,5,-1
 950 900 l 1,0,-1
EndSplineSet
EndChar

StartChar: tilde
Encoding: 732 732 117
Width: 500
GlyphClass: 2
Flags: W
LayerCount: 2
Fore
SplineSet
450 980 m 1,0,-1
 450 821 l 1,1,2
 350 781 350 781 250 821 c 128,-1,3
 150 861 150 861 50 821 c 1,4,-1
 50 900 l 1,5,-1
 50 980 l 1,6,7
 150 1020 150 1020 250 980 c 128,-1,8
 350 940 350 940 450 980 c 1,0,-1
EndSplineSet
EndChar

StartChar: macron
Encoding: 175 175 118
Width: 800
GlyphClass: 2
Flags: W
LayerCount: 2
Fore
SplineSet
800 900 m 1,0,-1
 0 900 l 1,1,-1
 0 1100 l 1,2,-1
 800 1100 l 1,3,-1
 800 900 l 1,0,-1
EndSplineSet
EndChar

StartChar: breve
Encoding: 728 728 119
Width: 1200
GlyphClass: 2
Flags: W
LayerCount: 2
Fore
SplineSet
600 1100 m 128,-1,1
 500 1100 500 1100 500 1250 c 2,2,-1
 500 1300 l 1,3,-1
 300 1300 l 1,4,-1
 300 1250 l 2,5,6
 300 900 300 900 600 900 c 128,-1,7
 900 900 900 900 900 1250 c 2,8,-1
 900 1300 l 1,9,-1
 700 1300 l 1,10,-1
 700 1250 l 2,11,0
 700 1100 700 1100 600 1100 c 128,-1,1
EndSplineSet
EndChar

StartChar: ring
Encoding: 730 730 120
Width: 299
GlyphClass: 2
Flags: W
LayerCount: 2
Fore
SplineSet
149.5 912 m 128,-1,1
 193 912 193 912 221 895.5 c 128,-1,2
 249 879 249 879 249 856 c 128,-1,3
 249 833 249 833 221.5 816.5 c 128,-1,4
 194 800 194 800 150 800 c 128,-1,5
 106 800 106 800 78 816.5 c 128,-1,6
 50 833 50 833 50 856 c 128,-1,7
 50 879 50 879 78 895.5 c 128,-1,0
 106 912 106 912 149.5 912 c 128,-1,1
150.5 881 m 128,-1,9
 127 881 127 881 109 874 c 128,-1,10
 91 867 91 867 91 856 c 128,-1,11
 91 845 91 845 108.5 838 c 128,-1,12
 126 831 126 831 150 831 c 128,-1,13
 174 831 174 831 192 838 c 128,-1,14
 210 845 210 845 210 856 c 128,-1,15
 210 867 210 867 192 874 c 128,-1,8
 174 881 174 881 150.5 881 c 128,-1,9
EndSplineSet
EndChar

StartChar: caron
Encoding: 711 711 121
Width: 1300
GlyphClass: 2
Flags: W
LayerCount: 2
Fore
SplineSet
950 1300 m 1,0,-1
 950 1100 l 1,1,-1
 650 900 l 1,2,-1
 350 1100 l 1,3,-1
 350 1300 l 1,4,-1
 650 1100 l 1,5,-1
 950 1300 l 1,0,-1
EndSplineSet
EndChar

StartChar: Lslash
Encoding: 321 321 122
Width: 1000
GlyphClass: 2
Flags: W
LayerCount: 2
Fore
SplineSet
50 800 m 1,0,-1
 250 800 l 1,1,-1
 250 637 l 1,2,-1
 350 683 l 1,3,-1
 350 463 l 1,4,-1
 250 418 l 1,5,-1
 250 300 l 2,6,7
 250 200 250 200 350 200 c 2,8,-1
 750 200 l 1,9,-1
 750 0 l 1,10,-1
 350 0 l 2,11,12
 50 0 50 0 50 300 c 2,13,-1
 50 327 l 1,14,-1
 -50 281 l 1,15,-1
 -50 501 l 1,16,-1
 50 546 l 1,17,-1
 50 800 l 1,0,-1
EndSplineSet
EndChar

StartChar: Oslash
Encoding: 216 216 123
Width: 1300
GlyphClass: 2
Flags: W
LayerCount: 2
Fore
SplineSet
650 600 m 1,0,-1
 350 600 l 2,1,2
 250 600 250 600 250 400 c 128,-1,3
 250 200 250 200 350 200 c 2,4,-1
 450 200 l 1,5,-1
 650 600 l 1,0,-1
850 600 m 1,6,-1
 650 200 l 1,7,-1
 950 200 l 2,8,9
 1050 200 1050 200 1050 400 c 128,-1,10
 1050 600 1050 600 951 600 c 2,11,-1
 850 600 l 1,6,-1
950 800 m 2,12,13
 1250 800 1250 800 1250 400 c 128,-1,14
 1250 0 1250 0 950 0 c 2,15,-1
 350 0 l 2,16,17
 50 0 50 0 50 400 c 128,-1,18
 50 800 50 800 350 800 c 2,19,-1
 950 800 l 2,12,13
EndSplineSet
EndChar

StartChar: ordmasculine
Encoding: 186 186 124
Width: 500
GlyphClass: 2
Flags: W
LayerCount: 2
Fore
SplineSet
391.5 1377 m 128,-1,1
 450 1318 450 1318 450 1235.5 c 128,-1,2
 450 1153 450 1153 391.5 1094.5 c 128,-1,3
 333 1036 333 1036 250 1036 c 128,-1,4
 167 1036 167 1036 108.5 1094 c 128,-1,5
 50 1152 50 1152 50 1235.5 c 128,-1,6
 50 1319 50 1319 108.5 1377.5 c 128,-1,7
 167 1436 167 1436 250 1436 c 128,-1,0
 333 1436 333 1436 391.5 1377 c 128,-1,1
250 1336 m 128,-1,9
 209 1336 209 1336 179.5 1306.5 c 128,-1,10
 150 1277 150 1277 150 1236 c 128,-1,11
 150 1195 150 1195 179.5 1165.5 c 128,-1,12
 209 1136 209 1136 250 1136 c 128,-1,13
 291 1136 291 1136 320.5 1165.5 c 128,-1,14
 350 1195 350 1195 350 1236 c 128,-1,15
 350 1277 350 1277 320.5 1306.5 c 128,-1,8
 291 1336 291 1336 250 1336 c 128,-1,9
450 900 m 1,16,-1
 50 900 l 1,17,-1
 50 1000 l 1,18,-1
 450 1000 l 1,19,-1
 450 900 l 1,16,-1
EndSplineSet
EndChar

StartChar: lslash
Encoding: 322 322 125
Width: 500
GlyphClass: 2
Flags: W
LayerCount: 2
Fore
SplineSet
50 800 m 1,0,-1
 250 800 l 1,1,-1
 250 637 l 1,2,-1
 350 683 l 1,3,-1
 350 463 l 1,4,-1
 250 418 l 1,5,-1
 250 300 l 2,6,7
 250 200 250 200 350 200 c 2,8,-1
 450 200 l 1,9,-1
 450 0 l 1,10,-1
 350 0 l 2,11,12
 50 0 50 0 50 300 c 2,13,-1
 50 327 l 1,14,-1
 -50 281 l 1,15,-1
 -50 501 l 1,16,-1
 50 546 l 1,17,-1
 50 800 l 1,0,-1
EndSplineSet
EndChar

StartChar: oslash
Encoding: 248 248 126
Width: 1300
GlyphClass: 2
Flags: W
LayerCount: 2
Fore
SplineSet
650 600 m 1,0,-1
 350 600 l 2,1,2
 250 600 250 600 250 400 c 128,-1,3
 250 200 250 200 350 200 c 2,4,-1
 450 200 l 1,5,-1
 650 600 l 1,0,-1
850 600 m 1,6,-1
 650 200 l 1,7,-1
 950 200 l 2,8,9
 1050 200 1050 200 1050 400 c 128,-1,10
 1050 600 1050 600 951 600 c 2,11,-1
 850 600 l 1,6,-1
950 800 m 2,12,13
 1250 800 1250 800 1250 400 c 128,-1,14
 1250 0 1250 0 950 0 c 2,15,-1
 350 0 l 2,16,17
 50 0 50 0 50 400 c 128,-1,18
 50 800 50 800 350 800 c 2,19,-1
 950 800 l 2,12,13
EndSplineSet
EndChar

StartChar: trademark
Encoding: 8482 8482 127
Width: 600
GlyphClass: 2
Flags: W
LayerCount: 2
Fore
SplineSet
60 600 m 1,0,-1
 60 750 l 1,1,-1
 0 750 l 1,2,-1
 0 800 l 1,3,-1
 170 800 l 1,4,-1
 170 750 l 1,5,-1
 115 750 l 1,6,-1
 115 600 l 1,7,-1
 60 600 l 1,0,-1
180 600 m 1,8,-1
 180 800 l 1,9,-1
 231 800 l 1,10,-1
 290 670 l 1,11,-1
 350 800 l 1,12,-1
 400 800 l 1,13,-1
 400 600 l 1,14,-1
 350 600 l 1,15,-1
 350 700 l 1,16,-1
 310 600 l 1,17,-1
 270 600 l 1,18,-1
 230 700 l 1,19,-1
 230 600 l 1,20,-1
 180 600 l 1,8,-1
EndSplineSet
EndChar

StartChar: Eth
Encoding: 208 208 128
Width: 1300
GlyphClass: 2
Flags: W
LayerCount: 2
Fore
SplineSet
150 500 m 1,0,1
 150 800 150 800 450 800 c 2,2,-1
 950 800 l 2,3,4
 1250 800 1250 800 1250 500 c 2,5,-1
 1250 300 l 2,6,7
 1250 0 1250 0 950 0 c 2,8,-1
 400 0 l 1,9,-1
 400 200 l 1,10,-1
 950 200 l 2,11,12
 1050 200 1050 200 1050 300 c 2,13,-1
 1050 500 l 2,14,15
 1050 600 1050 600 950 600 c 2,16,-1
 450 600 l 2,17,18
 350 600 350 600 350 500 c 1,19,-1
 450 500 l 1,20,-1
 450 300 l 1,21,-1
 350 300 l 1,22,-1
 350 0 l 1,23,-1
 150 0 l 1,24,-1
 150 300 l 1,25,-1
 50 300 l 1,26,-1
 50 500 l 1,27,-1
 150 500 l 1,0,1
EndSplineSet
EndChar

StartChar: onehalf
Encoding: 189 189 129
Width: 1100
GlyphClass: 2
Flags: W
HStem: 0 125<550 550 675 1050> 188 125<717 894 738 894> 375 125<550 894 550 894> 700 100<50 100 50 100>
VStem: 150 100<0 0 400 650>
LayerCount: 2
Fore
SplineSet
150 0 m 1,0,-1
 250 0 l 1,1,-1
 650 800 l 1,2,-1
 550 800 l 1,3,-1
 150 0 l 1,0,-1
250 400 m 1,4,-1
 150 400 l 1,5,-1
 150 650 l 2,6,7
 150 699.995 150 699.995 100 700 c 2,8,-1
 50 700 l 1,9,-1
 50 800 l 1,10,-1
 100 800 l 2,11,12
 250 800 250 800 250 650 c 2,13,-1
 250 400 l 1,4,-1
894 500 m 2,14,15
 1050 500 1050 500 1050 344 c 128,-1,16
 1050 188 1050 188 894 188 c 2,17,-1
 738 188 l 2,18,19
 675 188 675 188 675 125 c 1,20,-1
 1050 125 l 1,21,-1
 1050 0 l 1,22,-1
 550 0 l 1,23,-1
 550 125 l 2,24,25
 550 312.995 550 312.995 738 313 c 2,26,-1
 894 313 l 2,27,28
 925.005 313 925.005 313 925 344 c 128,-1,29
 925 375.005 925 375.005 894 375 c 2,30,-1
 550 375 l 1,31,-1
 550 500 l 1,32,-1
 894 500 l 2,14,15
EndSplineSet
EndChar

StartChar: plusminus
Encoding: 177 177 130
Width: 500
GlyphClass: 2
Flags: W
LayerCount: 2
Fore
SplineSet
150 750 m 1,0,-1
 350 750 l 1,1,-1
 350 650 l 1,2,-1
 450 650 l 1,3,-1
 450 450 l 1,4,-1
 350 450 l 1,5,-1
 350 350 l 1,6,-1
 150 350 l 1,7,-1
 150 450 l 1,8,-1
 50 450 l 1,9,-1
 50 650 l 1,10,-1
 150 650 l 1,11,-1
 150 750 l 1,0,-1
450 50 m 1,12,-1
 50 50 l 1,13,-1
 50 250 l 1,14,-1
 450 250 l 1,15,-1
 450 50 l 1,12,-1
EndSplineSet
EndChar

StartChar: degree
Encoding: 176 176 131
Width: 500
GlyphClass: 2
Flags: W
LayerCount: 2
Fore
SplineSet
391.5 1141.5 m 128,-1,1
 450 1083 450 1083 450 1000 c 128,-1,2
 450 917 450 917 391.5 858.5 c 128,-1,3
 333 800 333 800 250 800 c 128,-1,4
 167 800 167 800 108.5 858.5 c 128,-1,5
 50 917 50 917 50 1000 c 128,-1,6
 50 1083 50 1083 108.5 1141.5 c 128,-1,7
 167 1200 167 1200 250 1200 c 128,-1,0
 333 1200 333 1200 391.5 1141.5 c 128,-1,1
250 1100 m 128,-1,9
 209 1100 209 1100 179.5 1070.5 c 128,-1,10
 150 1041 150 1041 150 1000 c 128,-1,11
 150 959 150 959 179.5 929.5 c 128,-1,12
 209 900 209 900 250 900 c 128,-1,13
 291 900 291 900 320.5 929.5 c 128,-1,14
 350 959 350 959 350 1000 c 128,-1,15
 350 1041 350 1041 320.5 1070.5 c 128,-1,8
 291 1100 291 1100 250 1100 c 128,-1,9
EndSplineSet
EndChar

StartChar: registered
Encoding: 174 174 132
Width: 899
GlyphClass: 2
Flags: W
HStem: 0 66<332.423 565.508> 367 66<392 444> 560 68<392 517.242> 733 66<329.096 572.007>
VStem: 50 66<281.644 517.765> 283 109<186 367 433 560> 536 110<450.086 541.373> 783 66<274.969 518.43>
LayerCount: 2
Fore
SplineSet
392 433 m 5,0,-1
 444 433 l 6,1,2
 536 433 536 433 536 494 c 4,3,4
 536 560 536 560 438 560 c 6,5,-1
 392 560 l 5,6,-1
 392 433 l 5,0,-1
283 186 m 5,7,-1
 283 628 l 5,8,-1
 458 628 l 6,9,10
 647 628 647 628 646 502 c 4,11,12
 646 408 646 408 550 384 c 5,13,-1
 649 186 l 5,14,-1
 528 186 l 5,15,-1
 444 367 l 5,16,-1
 392 367 l 5,17,-1
 392 186 l 5,18,-1
 283 186 l 5,7,-1
116 400 m 4,19,20
 116 265 116 265 213 167 c 4,21,22
 312 66 312 66 448 66 c 4,23,24
 582 66 582 66 685 164 c 4,25,26
 783 257 783 257 783 393 c 4,27,28
 783 536 783 536 689 633 c 4,29,30
 590 733 590 733 450 733 c 4,31,32
 312 733 312 733 217 638 c 4,33,34
 116 538 116 538 116 400 c 4,19,20
50 398 m 4,35,36
 50 508 50 508 108 607 c 4,37,38
 163 699 163 699 253 749 c 4,39,40
 342 799 342 799 448 799 c 4,41,42
 616 799 616 799 735 679 c 4,43,44
 849 564 849 564 849 398 c 4,45,46
 849 230 849 230 731 116 c 4,47,48
 611 0 611 0 448 0 c 4,49,50
 328 0 328 0 226 68 c 4,51,52
 125 137 125 137 80 248 c 4,53,54
 50 319 50 319 50 398 c 4,35,36
EndSplineSet
EndChar

StartChar: copyright
Encoding: 169 169 133
Width: 900
GlyphClass: 2
Flags: W
HStem: 0 66<333.073 566.757> 193 104<358.195 601> 503 104<357.977 601> 734 66<329.288 570.52>
VStem: 50 66<280.562 516.842> 237.5 103.5<314.34 485.66> 784 66<275.155 519.289>
LayerCount: 2
Fore
SplineSet
450 734 m 0,0,1
 312 734 312 734 218 639 c 0,2,3
 117 538 117 538 116 400 c 0,4,5
 116 264 116 264 213 168 c 0,6,7
 312 67 312 67 449 66 c 0,8,9
 584 66 584 66 686 164 c 0,10,11
 784 257 784 257 784 393 c 0,12,13
 784 537 784 537 690 634 c 0,14,15
 590 734 590 734 450 734 c 0,0,1
449 800 m 0,16,17
 618 800 618 800 736 680 c 0,18,19
 850 565 850 565 850 399 c 0,20,21
 850 230 850 230 732 116 c 0,22,23
 612 0 612 0 449 0 c 0,24,25
 329 0 329 0 227 68 c 0,26,27
 126 138 126 138 80 248 c 0,28,29
 50 320 50 320 50 399 c 0,30,31
 50 510 50 510 108 607 c 0,32,33
 163 699 163 699 253 750 c 0,34,35
 342 800 342 800 449 800 c 0,16,17
601 193 m 1,36,-1
 395 193 l 2,37,38
 238 193 238 193 237.5 400 c 128,-1,39
 237 607 237 607 395 607 c 2,40,-1
 601 607 l 1,41,-1
 601 503 l 1,42,-1
 395 503 l 2,43,44
 341 503 341 503 341 400 c 128,-1,45
 341 297 341 297 395 297 c 2,46,-1
 601 297 l 1,47,-1
 601 193 l 1,36,-1
EndSplineSet
EndChar

StartChar: Aacute
Encoding: 193 193 134
Width: 1200
GlyphClass: 2
Flags: W
LayerCount: 2
Fore
SplineSet
50 300 m 2,0,-1
 50 500 l 2,1,2
 50 800 50 800 350 800 c 2,3,-1
 850 800 l 2,4,5
 1150 800 1150 800 1150 500 c 2,6,-1
 1150 0 l 1,7,-1
 950 0 l 1,8,-1
 950 500 l 2,9,10
 950 600 950 600 850 600 c 2,11,-1
 350 600 l 2,12,13
 250 600 250 600 250 500 c 2,14,-1
 250 300 l 2,15,16
 250 200 250 200 350 200 c 2,17,-1
 900 200 l 1,18,-1
 900 0 l 1,19,-1
 350 0 l 2,20,21
 50 0 50 0 50 300 c 2,0,-1
800 1200 m 1,22,-1
 600 900 l 1,23,-1
 400 900 l 1,24,-1
 600 1200 l 1,25,-1
 800 1200 l 1,22,-1
EndSplineSet
EndChar

StartChar: Acircumflex
Encoding: 194 194 135
Width: 1200
GlyphClass: 2
Flags: W
LayerCount: 2
Fore
SplineSet
50 300 m 2,0,-1
 50 500 l 2,1,2
 50 800 50 800 350 800 c 2,3,-1
 850 800 l 2,4,5
 1150 800 1150 800 1150 500 c 2,6,-1
 1150 0 l 1,7,-1
 950 0 l 1,8,-1
 950 500 l 2,9,10
 950 600 950 600 850 600 c 2,11,-1
 350 600 l 2,12,13
 250 600 250 600 250 500 c 2,14,-1
 250 300 l 2,15,16
 250 200 250 200 350 200 c 2,17,-1
 900 200 l 1,18,-1
 900 0 l 1,19,-1
 350 0 l 2,20,21
 50 0 50 0 50 300 c 2,0,-1
900 900 m 1,22,-1
 900 1100 l 1,23,-1
 600 1300 l 1,24,-1
 300 1100 l 1,25,-1
 300 900 l 1,26,-1
 600 1100 l 1,27,-1
 900 900 l 1,22,-1
EndSplineSet
EndChar

StartChar: Adieresis
Encoding: 196 196 136
Width: 1200
GlyphClass: 2
Flags: W
LayerCount: 2
Fore
SplineSet
50 300 m 2,0,-1
 50 500 l 2,1,2
 50 800 50 800 350 800 c 2,3,-1
 850 800 l 2,4,5
 1150 800 1150 800 1150 500 c 2,6,-1
 1150 0 l 1,7,-1
 950 0 l 1,8,-1
 950 500 l 2,9,10
 950 600 950 600 850 600 c 2,11,-1
 350 600 l 2,12,13
 250 600 250 600 250 500 c 2,14,-1
 250 300 l 2,15,16
 250 200 250 200 350 200 c 2,17,-1
 900 200 l 1,18,-1
 900 0 l 1,19,-1
 350 0 l 2,20,21
 50 0 50 0 50 300 c 2,0,-1
369.5 1070.5 m 128,-1,23
 399 1100 399 1100 440 1100 c 128,-1,24
 481 1100 481 1100 510.5 1070.5 c 128,-1,25
 540 1041 540 1041 540 1000 c 128,-1,26
 540 959 540 959 510.5 929.5 c 128,-1,27
 481 900 481 900 440 900 c 128,-1,28
 399 900 399 900 369.5 929.5 c 128,-1,29
 340 959 340 959 340 1000 c 128,-1,22
 340 1041 340 1041 369.5 1070.5 c 128,-1,23
669.5 1070.5 m 128,-1,31
 699 1100 699 1100 740 1100 c 128,-1,32
 781 1100 781 1100 810.5 1070.5 c 128,-1,33
 840 1041 840 1041 840 1000 c 128,-1,34
 840 959 840 959 810.5 929.5 c 128,-1,35
 781 900 781 900 740 900 c 128,-1,36
 699 900 699 900 669.5 929.5 c 128,-1,37
 640 959 640 959 640 1000 c 128,-1,30
 640 1041 640 1041 669.5 1070.5 c 128,-1,31
EndSplineSet
EndChar

StartChar: Agrave
Encoding: 192 192 137
Width: 1200
GlyphClass: 2
Flags: W
LayerCount: 2
Fore
SplineSet
50 300 m 2,0,-1
 50 500 l 2,1,2
 50 800 50 800 350 800 c 2,3,-1
 850 800 l 2,4,5
 1150 800 1150 800 1150 500 c 2,6,-1
 1150 0 l 1,7,-1
 950 0 l 1,8,-1
 950 500 l 2,9,10
 950 600 950 600 850 600 c 2,11,-1
 350 600 l 2,12,13
 250 600 250 600 250 500 c 2,14,-1
 250 300 l 2,15,16
 250 200 250 200 350 200 c 2,17,-1
 900 200 l 1,18,-1
 900 0 l 1,19,-1
 350 0 l 2,20,21
 50 0 50 0 50 300 c 2,0,-1
600 1200 m 1,22,-1
 800 900 l 1,23,-1
 600 900 l 1,24,-1
 400 1200 l 1,25,-1
 600 1200 l 1,22,-1
EndSplineSet
EndChar

StartChar: Aring
Encoding: 197 197 138
Width: 1200
GlyphClass: 2
Flags: W
LayerCount: 2
Fore
SplineSet
50 300 m 2,0,-1
 50 500 l 2,1,2
 50 800 50 800 350 800 c 2,3,-1
 850 800 l 2,4,5
 1150 800 1150 800 1150 500 c 2,6,-1
 1150 0 l 1,7,-1
 950 0 l 1,8,-1
 950 500 l 2,9,10
 950 600 950 600 850 600 c 2,11,-1
 350 600 l 2,12,13
 250 600 250 600 250 500 c 2,14,-1
 250 300 l 2,15,16
 250 200 250 200 350 200 c 2,17,-1
 900 200 l 1,18,-1
 900 0 l 1,19,-1
 350 0 l 2,20,21
 50 0 50 0 50 300 c 2,0,-1
741.5 1141.5 m 128,-1,23
 800 1083 800 1083 800 1000 c 128,-1,24
 800 917 800 917 741.5 858.5 c 128,-1,25
 683 800 683 800 600 800 c 128,-1,26
 517 800 517 800 458.5 858.5 c 128,-1,27
 400 917 400 917 400 1000 c 128,-1,28
 400 1083 400 1083 458.5 1141.5 c 128,-1,29
 517 1200 517 1200 600 1200 c 128,-1,22
 683 1200 683 1200 741.5 1141.5 c 128,-1,23
600 1100 m 128,-1,31
 559 1100 559 1100 529.5 1070.5 c 128,-1,32
 500 1041 500 1041 500 1000 c 128,-1,33
 500 959 500 959 529.5 929.5 c 128,-1,34
 559 900 559 900 600 900 c 128,-1,35
 641 900 641 900 670.5 929.5 c 128,-1,36
 700 959 700 959 700 1000 c 128,-1,37
 700 1041 700 1041 670.5 1070.5 c 128,-1,30
 641 1100 641 1100 600 1100 c 128,-1,31
EndSplineSet
EndChar

StartChar: Atilde
Encoding: 195 195 139
Width: 1200
GlyphClass: 2
Flags: W
LayerCount: 2
Fore
SplineSet
50 300 m 2,0,-1
 50 500 l 2,1,2
 50 800 50 800 350 800 c 2,3,-1
 850 800 l 2,4,5
 1150 800 1150 800 1150 500 c 2,6,-1
 1150 0 l 1,7,-1
 950 0 l 1,8,-1
 950 500 l 2,9,10
 950 600 950 600 850 600 c 2,11,-1
 350 600 l 2,12,13
 250 600 250 600 250 500 c 2,14,-1
 250 300 l 2,15,16
 250 200 250 200 350 200 c 2,17,-1
 900 200 l 1,18,-1
 900 0 l 1,19,-1
 350 0 l 2,20,21
 50 0 50 0 50 300 c 2,0,-1
800 1125 m 1,22,-1
 800 925 l 1,23,24
 700 875 700 875 600 925 c 128,-1,25
 500 975 500 975 400 925 c 1,26,-1
 400 1025 l 1,27,-1
 400 1125 l 1,28,29
 500 1175 500 1175 600 1125 c 128,-1,30
 700 1075 700 1075 800 1125 c 1,22,-1
EndSplineSet
EndChar

StartChar: Eacute
Encoding: 201 201 140
Width: 1200
GlyphClass: 2
Flags: W
LayerCount: 2
Fore
SplineSet
1150 550 m 128,-1,1
 1150 300 1150 300 900 300 c 2,2,-1
 350 300 l 1,3,-1
 350 500 l 1,4,-1
 900 500 l 2,5,6
 950 500 950 500 950 550 c 128,-1,7
 950 600 950 600 900 600 c 2,8,-1
 350 600 l 2,9,10
 250 600 250 600 250 400 c 128,-1,11
 250 200 250 200 350 200 c 2,12,-1
 1150 200 l 1,13,-1
 1150 0 l 1,14,-1
 350 0 l 2,15,16
 50 0 50 0 50 400 c 128,-1,17
 50 800 50 800 350 800 c 2,18,-1
 900 800 l 2,19,0
 1150 800 1150 800 1150 550 c 128,-1,1
800 1200 m 1,20,-1
 600 900 l 1,21,-1
 400 900 l 1,22,-1
 600 1200 l 1,23,-1
 800 1200 l 1,20,-1
EndSplineSet
EndChar

StartChar: Ecircumflex
Encoding: 202 202 141
Width: 1200
GlyphClass: 2
Flags: W
LayerCount: 2
Fore
SplineSet
1150 550 m 128,-1,1
 1150 300 1150 300 900 300 c 2,2,-1
 350 300 l 1,3,-1
 350 500 l 1,4,-1
 900 500 l 2,5,6
 950 500 950 500 950 550 c 128,-1,7
 950 600 950 600 900 600 c 2,8,-1
 350 600 l 2,9,10
 250 600 250 600 250 400 c 128,-1,11
 250 200 250 200 350 200 c 2,12,-1
 1150 200 l 1,13,-1
 1150 0 l 1,14,-1
 350 0 l 2,15,16
 50 0 50 0 50 400 c 128,-1,17
 50 800 50 800 350 800 c 2,18,-1
 900 800 l 2,19,0
 1150 800 1150 800 1150 550 c 128,-1,1
900 900 m 1,20,-1
 900 1100 l 1,21,-1
 600 1300 l 1,22,-1
 300 1100 l 1,23,-1
 300 900 l 1,24,-1
 600 1100 l 1,25,-1
 900 900 l 1,20,-1
EndSplineSet
EndChar

StartChar: Edieresis
Encoding: 203 203 142
Width: 1200
GlyphClass: 2
Flags: W
LayerCount: 2
Fore
SplineSet
1150 550 m 128,-1,1
 1150 300 1150 300 900 300 c 2,2,-1
 350 300 l 1,3,-1
 350 500 l 1,4,-1
 900 500 l 2,5,6
 950 500 950 500 950 550 c 128,-1,7
 950 600 950 600 900 600 c 2,8,-1
 350 600 l 2,9,10
 250 600 250 600 250 400 c 128,-1,11
 250 200 250 200 350 200 c 2,12,-1
 1150 200 l 1,13,-1
 1150 0 l 1,14,-1
 350 0 l 2,15,16
 50 0 50 0 50 400 c 128,-1,17
 50 800 50 800 350 800 c 2,18,-1
 900 800 l 2,19,0
 1150 800 1150 800 1150 550 c 128,-1,1
379.5 1070.5 m 128,-1,21
 409 1100 409 1100 450 1100 c 128,-1,22
 491 1100 491 1100 520.5 1070.5 c 128,-1,23
 550 1041 550 1041 550 1000 c 128,-1,24
 550 959 550 959 520.5 929.5 c 128,-1,25
 491 900 491 900 450 900 c 128,-1,26
 409 900 409 900 379.5 929.5 c 128,-1,27
 350 959 350 959 350 1000 c 128,-1,20
 350 1041 350 1041 379.5 1070.5 c 128,-1,21
679.5 1070.5 m 128,-1,29
 709 1100 709 1100 750 1100 c 128,-1,30
 791 1100 791 1100 820.5 1070.5 c 128,-1,31
 850 1041 850 1041 850 1000 c 128,-1,32
 850 959 850 959 820.5 929.5 c 128,-1,33
 791 900 791 900 750 900 c 128,-1,34
 709 900 709 900 679.5 929.5 c 128,-1,35
 650 959 650 959 650 1000 c 128,-1,28
 650 1041 650 1041 679.5 1070.5 c 128,-1,29
EndSplineSet
EndChar

StartChar: Egrave
Encoding: 200 200 143
Width: 1200
GlyphClass: 2
Flags: W
LayerCount: 2
Fore
SplineSet
1150 550 m 128,-1,1
 1150 300 1150 300 900 300 c 2,2,-1
 350 300 l 1,3,-1
 350 500 l 1,4,-1
 900 500 l 2,5,6
 950 500 950 500 950 550 c 128,-1,7
 950 600 950 600 900 600 c 2,8,-1
 350 600 l 2,9,10
 250 600 250 600 250 400 c 128,-1,11
 250 200 250 200 350 200 c 2,12,-1
 1150 200 l 1,13,-1
 1150 0 l 1,14,-1
 350 0 l 2,15,16
 50 0 50 0 50 400 c 128,-1,17
 50 800 50 800 350 800 c 2,18,-1
 900 800 l 2,19,0
 1150 800 1150 800 1150 550 c 128,-1,1
600 1200 m 1,20,-1
 800 900 l 1,21,-1
 600 900 l 1,22,-1
 400 1200 l 1,23,-1
 600 1200 l 1,20,-1
EndSplineSet
EndChar

StartChar: Iacute
Encoding: 205 205 144
Width: 500
GlyphClass: 2
Flags: W
LayerCount: 2
Fore
SplineSet
50 800 m 1,0,-1
 250 800 l 1,1,-1
 250 0 l 1,2,-1
 50 0 l 1,3,-1
 50 800 l 1,0,-1
450 1200 m 1,4,-1
 250 900 l 1,5,-1
 50 900 l 1,6,-1
 250 1200 l 1,7,-1
 450 1200 l 1,4,-1
EndSplineSet
EndChar

StartChar: Icircumflex
Encoding: 206 206 145
Width: 500
GlyphClass: 2
Flags: W
LayerCount: 2
Fore
SplineSet
350 0 m 1,0,-1
 150 0 l 1,1,-1
 150 800 l 1,2,-1
 350 800 l 1,3,-1
 350 0 l 1,0,-1
450 800 m 1,4,-1
 450 1000 l 1,5,-1
 250 1200 l 1,6,-1
 50 1000 l 1,7,-1
 50 800 l 1,8,-1
 250 1000 l 1,9,-1
 450 800 l 1,4,-1
EndSplineSet
EndChar

StartChar: Idieresis
Encoding: 207 207 146
Width: 600
GlyphClass: 2
Flags: W
LayerCount: 2
Fore
SplineSet
400 0 m 1,0,-1
 200 0 l 1,1,-1
 200 800 l 1,2,-1
 400 800 l 1,3,-1
 400 0 l 1,0,-1
79.5 1070.5 m 128,-1,5
 109 1100 109 1100 150 1100 c 128,-1,6
 191 1100 191 1100 220.5 1070.5 c 128,-1,7
 250 1041 250 1041 250 1000 c 128,-1,8
 250 959 250 959 220.5 929.5 c 128,-1,9
 191 900 191 900 150 900 c 128,-1,10
 109 900 109 900 79.5 929.5 c 128,-1,11
 50 959 50 959 50 1000 c 128,-1,4
 50 1041 50 1041 79.5 1070.5 c 128,-1,5
379.5 1070.5 m 128,-1,13
 409 1100 409 1100 450 1100 c 128,-1,14
 491 1100 491 1100 520.5 1070.5 c 128,-1,15
 550 1041 550 1041 550 1000 c 128,-1,16
 550 959 550 959 520.5 929.5 c 128,-1,17
 491 900 491 900 450 900 c 128,-1,18
 409 900 409 900 379.5 929.5 c 128,-1,19
 350 959 350 959 350 1000 c 128,-1,12
 350 1041 350 1041 379.5 1070.5 c 128,-1,13
EndSplineSet
EndChar

StartChar: Igrave
Encoding: 204 204 147
Width: 500
GlyphClass: 2
Flags: W
LayerCount: 2
Fore
SplineSet
450 0 m 1,0,-1
 250 0 l 1,1,-1
 250 800 l 1,2,-1
 450 800 l 1,3,-1
 450 0 l 1,0,-1
250 1200 m 1,4,-1
 450 900 l 1,5,-1
 250 900 l 1,6,-1
 50 1200 l 1,7,-1
 250 1200 l 1,4,-1
EndSplineSet
EndChar

StartChar: Oacute
Encoding: 211 211 148
Width: 1300
GlyphClass: 2
Flags: W
LayerCount: 2
Fore
SplineSet
850 1200 m 1,0,-1
 650 900 l 1,1,-1
 450 900 l 1,2,-1
 650 1200 l 1,3,-1
 850 1200 l 1,0,-1
350 800 m 2,4,-1
 950 800 l 2,5,6
 1250 800 1250 800 1250 400 c 128,-1,7
 1250 0 1250 0 950 0 c 2,8,-1
 350 0 l 2,9,10
 50 0 50 0 50 400 c 128,-1,11
 50 800 50 800 350 800 c 2,4,-1
350 600 m 2,12,13
 250 600 250 600 250 400 c 128,-1,14
 250 200 250 200 350 200 c 2,15,-1
 950 200 l 2,16,17
 1050 200 1050 200 1050 400 c 128,-1,18
 1050 600 1050 600 951 600 c 2,19,-1
 350 600 l 2,12,13
EndSplineSet
EndChar

StartChar: Ocircumflex
Encoding: 212 212 149
Width: 1300
GlyphClass: 2
Flags: W
LayerCount: 2
Fore
SplineSet
950 900 m 1,0,-1
 950 1100 l 1,1,-1
 650 1300 l 1,2,-1
 350 1100 l 1,3,-1
 350 900 l 1,4,-1
 650 1100 l 1,5,-1
 950 900 l 1,0,-1
350 800 m 2,6,-1
 950 800 l 2,7,8
 1250 800 1250 800 1250 400 c 128,-1,9
 1250 0 1250 0 950 0 c 2,10,-1
 350 0 l 2,11,12
 50 0 50 0 50 400 c 128,-1,13
 50 800 50 800 350 800 c 2,6,-1
350 600 m 2,14,15
 250 600 250 600 250 400 c 128,-1,16
 250 200 250 200 350 200 c 2,17,-1
 950 200 l 2,18,19
 1050 200 1050 200 1050 400 c 128,-1,20
 1050 600 1050 600 951 600 c 2,21,-1
 350 600 l 2,14,15
EndSplineSet
EndChar

StartChar: Odieresis
Encoding: 214 214 150
Width: 1300
GlyphClass: 2
Flags: W
LayerCount: 2
Fore
SplineSet
429.5 1070.5 m 128,-1,1
 459 1100 459 1100 500 1100 c 128,-1,2
 541 1100 541 1100 570.5 1070.5 c 128,-1,3
 600 1041 600 1041 600 1000 c 128,-1,4
 600 959 600 959 570.5 929.5 c 128,-1,5
 541 900 541 900 500 900 c 128,-1,6
 459 900 459 900 429.5 929.5 c 128,-1,7
 400 959 400 959 400 1000 c 128,-1,0
 400 1041 400 1041 429.5 1070.5 c 128,-1,1
729.5 1070.5 m 128,-1,9
 759 1100 759 1100 800 1100 c 128,-1,10
 841 1100 841 1100 870.5 1070.5 c 128,-1,11
 900 1041 900 1041 900 1000 c 128,-1,12
 900 959 900 959 870.5 929.5 c 128,-1,13
 841 900 841 900 800 900 c 128,-1,14
 759 900 759 900 729.5 929.5 c 128,-1,15
 700 959 700 959 700 1000 c 128,-1,8
 700 1041 700 1041 729.5 1070.5 c 128,-1,9
350 800 m 2,16,-1
 950 800 l 2,17,18
 1250 800 1250 800 1250 400 c 128,-1,19
 1250 0 1250 0 950 0 c 2,20,-1
 350 0 l 2,21,22
 50 0 50 0 50 400 c 128,-1,23
 50 800 50 800 350 800 c 2,16,-1
350 600 m 2,24,25
 250 600 250 600 250 400 c 128,-1,26
 250 200 250 200 350 200 c 2,27,-1
 950 200 l 2,28,29
 1050 200 1050 200 1050 400 c 128,-1,30
 1050 600 1050 600 951 600 c 2,31,-1
 350 600 l 2,24,25
EndSplineSet
EndChar

StartChar: Ograve
Encoding: 210 210 151
Width: 1300
GlyphClass: 2
Flags: W
LayerCount: 2
Fore
SplineSet
650 1200 m 1,0,-1
 850 900 l 1,1,-1
 650 900 l 1,2,-1
 450 1200 l 1,3,-1
 650 1200 l 1,0,-1
1250 400 m 128,-1,5
 1250 0 1250 0 950 0 c 2,6,-1
 350 0 l 2,7,8
 50 0 50 0 50 400 c 128,-1,9
 50 800 50 800 350 800 c 2,10,-1
 950 800 l 2,11,4
 1250 800 1250 800 1250 400 c 128,-1,5
349 600 m 2,12,13
 250 600 250 600 250 400 c 128,-1,14
 250 200 250 200 350 200 c 2,15,-1
 950 200 l 2,16,17
 1050 200 1050 200 1050 400 c 128,-1,18
 1050 600 1050 600 950 600 c 2,19,-1
 349 600 l 2,12,13
EndSplineSet
EndChar

StartChar: Otilde
Encoding: 213 213 152
Width: 1300
GlyphClass: 2
Flags: W
LayerCount: 2
Fore
SplineSet
850 1123 m 1,0,-1
 850 923 l 1,1,2
 750 873 750 873 650 923 c 128,-1,3
 550 973 550 973 450 923 c 1,4,-1
 450 1023 l 1,5,-1
 450 1123 l 1,6,7
 550 1173 550 1173 650 1123 c 128,-1,8
 750 1073 750 1073 850 1123 c 1,0,-1
350 800 m 2,9,-1
 950 800 l 2,10,11
 1250 800 1250 800 1250 400 c 128,-1,12
 1250 0 1250 0 950 0 c 2,13,-1
 350 0 l 2,14,15
 50 0 50 0 50 400 c 128,-1,16
 50 800 50 800 350 800 c 2,9,-1
350 600 m 2,17,18
 250 600 250 600 250 400 c 128,-1,19
 250 200 250 200 350 200 c 2,20,-1
 950 200 l 2,21,22
 1050 200 1050 200 1050 400 c 128,-1,23
 1050 600 1050 600 951 600 c 2,24,-1
 350 600 l 2,17,18
EndSplineSet
EndChar

StartChar: Uacute
Encoding: 218 218 153
Width: 800
GlyphClass: 2
Flags: W
LayerCount: 2
Fore
SplineSet
400 0 m 128,-1,1
 50 0 50 0 50 350 c 2,2,-1
 50 800 l 1,3,-1
 250 800 l 1,4,-1
 250 350 l 2,5,6
 250 200 250 200 400 200 c 128,-1,7
 550 200 550 200 550 350 c 2,8,-1
 550 800 l 1,9,-1
 750 800 l 1,10,-1
 750 350 l 2,11,0
 750 0 750 0 400 0 c 128,-1,1
600 1200 m 1,12,-1
 400 900 l 1,13,-1
 200 900 l 1,14,-1
 400 1200 l 1,15,-1
 600 1200 l 1,12,-1
EndSplineSet
EndChar

StartChar: Ucircumflex
Encoding: 219 219 154
Width: 800
GlyphClass: 2
Flags: W
LayerCount: 2
Fore
SplineSet
700 900 m 1,0,-1
 700 1100 l 1,1,-1
 400 1300 l 1,2,-1
 100 1100 l 1,3,-1
 100 900 l 1,4,-1
 400 1100 l 1,5,-1
 700 900 l 1,0,-1
50 350 m 2,6,-1
 50 800 l 1,7,-1
 250 800 l 1,8,-1
 250 350 l 2,9,10
 250 200 250 200 400 200 c 128,-1,11
 550 200 550 200 550 350 c 2,12,-1
 550 800 l 1,13,-1
 750 800 l 1,14,-1
 750 350 l 2,15,16
 750 0 750 0 400 0 c 128,-1,17
 50 0 50 0 50 350 c 2,6,-1
EndSplineSet
EndChar

StartChar: Udieresis
Encoding: 220 220 155
Width: 800
GlyphClass: 2
Flags: W
LayerCount: 2
Fore
SplineSet
50 350 m 2,0,-1
 50 800 l 1,1,-1
 250 800 l 1,2,-1
 250 350 l 2,3,4
 250 200 250 200 400 200 c 128,-1,5
 550 200 550 200 550 350 c 2,6,-1
 550 800 l 1,7,-1
 750 800 l 1,8,-1
 750 350 l 2,9,10
 750 0 750 0 400 0 c 128,-1,11
 50 0 50 0 50 350 c 2,0,-1
179.5 1070.5 m 128,-1,13
 209 1100 209 1100 250 1100 c 128,-1,14
 291 1100 291 1100 320.5 1070.5 c 128,-1,15
 350 1041 350 1041 350 1000 c 128,-1,16
 350 959 350 959 320.5 929.5 c 128,-1,17
 291 900 291 900 250 900 c 128,-1,18
 209 900 209 900 179.5 929.5 c 128,-1,19
 150 959 150 959 150 1000 c 128,-1,12
 150 1041 150 1041 179.5 1070.5 c 128,-1,13
479.5 1070.5 m 128,-1,21
 509 1100 509 1100 550 1100 c 128,-1,22
 591 1100 591 1100 620.5 1070.5 c 128,-1,23
 650 1041 650 1041 650 1000 c 128,-1,24
 650 959 650 959 620.5 929.5 c 128,-1,25
 591 900 591 900 550 900 c 128,-1,26
 509 900 509 900 479.5 929.5 c 128,-1,27
 450 959 450 959 450 1000 c 128,-1,20
 450 1041 450 1041 479.5 1070.5 c 128,-1,21
EndSplineSet
EndChar

StartChar: Ugrave
Encoding: 217 217 156
Width: 800
GlyphClass: 2
Flags: W
LayerCount: 2
Fore
SplineSet
50 350 m 2,0,-1
 50 800 l 1,1,-1
 250 800 l 1,2,-1
 250 350 l 2,3,4
 250 200 250 200 400 200 c 128,-1,5
 550 200 550 200 550 350 c 2,6,-1
 550 800 l 1,7,-1
 750 800 l 1,8,-1
 750 350 l 2,9,10
 750 0 750 0 400 0 c 128,-1,11
 50 0 50 0 50 350 c 2,0,-1
400 1200 m 1,12,-1
 600 900 l 1,13,-1
 400 900 l 1,14,-1
 200 1200 l 1,15,-1
 400 1200 l 1,12,-1
EndSplineSet
EndChar

StartChar: Yacute
Encoding: 221 221 157
Width: 900
GlyphClass: 2
Flags: W
LayerCount: 2
Fore
SplineSet
350 0 m 1,0,-1
 350 200 l 1,1,2
 50 250 50 250 50 600 c 2,3,-1
 50 800 l 1,4,-1
 250 800 l 1,5,-1
 250 600 l 2,6,7
 250 400 250 400 450 400 c 128,-1,8
 650 400 650 400 650 600 c 2,9,-1
 650 800 l 1,10,-1
 850 800 l 1,11,-1
 850 600 l 2,12,13
 850 250 850 250 550 200 c 1,14,-1
 550 0 l 1,15,-1
 350 0 l 1,0,-1
650 1200 m 1,16,-1
 450 900 l 1,17,-1
 250 900 l 1,18,-1
 450 1200 l 1,19,-1
 650 1200 l 1,16,-1
EndSplineSet
EndChar

StartChar: aacute
Encoding: 225 225 158
Width: 1200
GlyphClass: 2
Flags: W
LayerCount: 2
Fore
SplineSet
50 250 m 128,-1,1
 50 500 50 500 300 500 c 2,2,-1
 850 500 l 1,3,-1
 850 300 l 1,4,-1
 300 300 l 2,5,6
 250 300 250 300 250 250 c 128,-1,7
 250 200 250 200 300 200 c 2,8,-1
 850 200 l 2,9,10
 950 200 950 200 950 400 c 128,-1,11
 950 600 950 600 850 600 c 2,12,-1
 50 600 l 1,13,-1
 50 800 l 1,14,-1
 850 800 l 2,15,16
 1150 800 1150 800 1150 400 c 128,-1,17
 1150 0 1150 0 850 0 c 2,18,-1
 300 0 l 2,19,0
 50 0 50 0 50 250 c 128,-1,1
800 1200 m 1,20,-1
 600 900 l 1,21,-1
 400 900 l 1,22,-1
 600 1200 l 1,23,-1
 800 1200 l 1,20,-1
EndSplineSet
EndChar

StartChar: acircumflex
Encoding: 226 226 159
Width: 1200
GlyphClass: 2
Flags: W
LayerCount: 2
Fore
SplineSet
50 250 m 128,-1,1
 50 500 50 500 300 500 c 2,2,-1
 850 500 l 1,3,-1
 850 300 l 1,4,-1
 300 300 l 2,5,6
 250 300 250 300 250 250 c 128,-1,7
 250 200 250 200 300 200 c 2,8,-1
 850 200 l 2,9,10
 950 200 950 200 950 400 c 128,-1,11
 950 600 950 600 850 600 c 2,12,-1
 50 600 l 1,13,-1
 50 800 l 1,14,-1
 850 800 l 2,15,16
 1150 800 1150 800 1150 400 c 128,-1,17
 1150 0 1150 0 850 0 c 2,18,-1
 300 0 l 2,19,0
 50 0 50 0 50 250 c 128,-1,1
900 900 m 1,20,-1
 900 1100 l 1,21,-1
 600 1300 l 1,22,-1
 300 1100 l 1,23,-1
 300 900 l 1,24,-1
 600 1100 l 1,25,-1
 900 900 l 1,20,-1
EndSplineSet
EndChar

StartChar: adieresis
Encoding: 228 228 160
Width: 1200
GlyphClass: 2
Flags: W
LayerCount: 2
Fore
SplineSet
50 250 m 128,-1,1
 50 500 50 500 300 500 c 2,2,-1
 850 500 l 1,3,-1
 850 300 l 1,4,-1
 300 300 l 2,5,6
 250 300 250 300 250 250 c 128,-1,7
 250 200 250 200 300 200 c 2,8,-1
 850 200 l 2,9,10
 950 200 950 200 950 400 c 128,-1,11
 950 600 950 600 850 600 c 2,12,-1
 50 600 l 1,13,-1
 50 800 l 1,14,-1
 850 800 l 2,15,16
 1150 800 1150 800 1150 400 c 128,-1,17
 1150 0 1150 0 850 0 c 2,18,-1
 300 0 l 2,19,0
 50 0 50 0 50 250 c 128,-1,1
379.5 1070.5 m 128,-1,21
 409 1100 409 1100 450 1100 c 128,-1,22
 491 1100 491 1100 520.5 1070.5 c 128,-1,23
 550 1041 550 1041 550 1000 c 128,-1,24
 550 959 550 959 520.5 929.5 c 128,-1,25
 491 900 491 900 450 900 c 128,-1,26
 409 900 409 900 379.5 929.5 c 128,-1,27
 350 959 350 959 350 1000 c 128,-1,20
 350 1041 350 1041 379.5 1070.5 c 128,-1,21
679.5 1070.5 m 128,-1,29
 709 1100 709 1100 750 1100 c 128,-1,30
 791 1100 791 1100 820.5 1070.5 c 128,-1,31
 850 1041 850 1041 850 1000 c 128,-1,32
 850 959 850 959 820.5 929.5 c 128,-1,33
 791 900 791 900 750 900 c 128,-1,34
 709 900 709 900 679.5 929.5 c 128,-1,35
 650 959 650 959 650 1000 c 128,-1,28
 650 1041 650 1041 679.5 1070.5 c 128,-1,29
EndSplineSet
EndChar

StartChar: agrave
Encoding: 224 224 161
Width: 1200
GlyphClass: 2
Flags: W
LayerCount: 2
Fore
SplineSet
50 250 m 128,-1,1
 50 500 50 500 300 500 c 2,2,-1
 850 500 l 1,3,-1
 850 300 l 1,4,-1
 300 300 l 2,5,6
 250 300 250 300 250 250 c 128,-1,7
 250 200 250 200 300 200 c 2,8,-1
 850 200 l 2,9,10
 950 200 950 200 950 400 c 128,-1,11
 950 600 950 600 850 600 c 2,12,-1
 50 600 l 1,13,-1
 50 800 l 1,14,-1
 850 800 l 2,15,16
 1150 800 1150 800 1150 400 c 128,-1,17
 1150 0 1150 0 850 0 c 2,18,-1
 300 0 l 2,19,0
 50 0 50 0 50 250 c 128,-1,1
600 1200 m 1,20,-1
 800 900 l 1,21,-1
 600 900 l 1,22,-1
 400 1200 l 1,23,-1
 600 1200 l 1,20,-1
EndSplineSet
EndChar

StartChar: aring
Encoding: 229 229 162
Width: 1200
GlyphClass: 2
Flags: W
LayerCount: 2
Fore
SplineSet
50 250 m 128,-1,1
 50 500 50 500 300 500 c 2,2,-1
 850 500 l 1,3,-1
 850 300 l 1,4,-1
 300 300 l 2,5,6
 250 300 250 300 250 250 c 128,-1,7
 250 200 250 200 300 200 c 2,8,-1
 850 200 l 2,9,10
 950 200 950 200 950 400 c 128,-1,11
 950 600 950 600 850 600 c 2,12,-1
 50 600 l 1,13,-1
 50 800 l 1,14,-1
 850 800 l 2,15,16
 1150 800 1150 800 1150 400 c 128,-1,17
 1150 0 1150 0 850 0 c 2,18,-1
 300 0 l 2,19,0
 50 0 50 0 50 250 c 128,-1,1
739.5 1141.5 m 128,-1,21
 798 1083 798 1083 798 1000 c 128,-1,22
 798 917 798 917 739.5 858.5 c 128,-1,23
 681 800 681 800 598 800 c 128,-1,24
 515 800 515 800 456.5 858.5 c 128,-1,25
 398 917 398 917 398 1000 c 128,-1,26
 398 1083 398 1083 456.5 1141.5 c 128,-1,27
 515 1200 515 1200 598 1200 c 128,-1,20
 681 1200 681 1200 739.5 1141.5 c 128,-1,21
598 1100 m 128,-1,29
 557 1100 557 1100 527.5 1070.5 c 128,-1,30
 498 1041 498 1041 498 1000 c 128,-1,31
 498 959 498 959 527.5 929.5 c 128,-1,32
 557 900 557 900 598 900 c 128,-1,33
 639 900 639 900 668.5 929.5 c 128,-1,34
 698 959 698 959 698 1000 c 128,-1,35
 698 1041 698 1041 668.5 1070.5 c 128,-1,28
 639 1100 639 1100 598 1100 c 128,-1,29
EndSplineSet
EndChar

StartChar: atilde
Encoding: 227 227 163
Width: 1200
GlyphClass: 2
Flags: W
LayerCount: 2
Fore
SplineSet
50 250 m 128,-1,1
 50 500 50 500 300 500 c 2,2,-1
 850 500 l 1,3,-1
 850 300 l 1,4,-1
 300 300 l 2,5,6
 250 300 250 300 250 250 c 128,-1,7
 250 200 250 200 300 200 c 2,8,-1
 850 200 l 2,9,10
 950 200 950 200 950 400 c 128,-1,11
 950 600 950 600 850 600 c 2,12,-1
 50 600 l 1,13,-1
 50 800 l 1,14,-1
 850 800 l 2,15,16
 1150 800 1150 800 1150 400 c 128,-1,17
 1150 0 1150 0 850 0 c 2,18,-1
 300 0 l 2,19,0
 50 0 50 0 50 250 c 128,-1,1
800 1125 m 1,20,-1
 800 925 l 1,21,22
 700 875 700 875 600 925 c 128,-1,23
 500 975 500 975 400 925 c 1,24,-1
 400 1025 l 1,25,-1
 400 1125 l 1,26,27
 500 1175 500 1175 600 1125 c 128,-1,28
 700 1075 700 1075 800 1125 c 1,20,-1
EndSplineSet
EndChar

StartChar: Dcroat
Encoding: 272 272 164
Width: 1300
GlyphClass: 2
Flags: W
LayerCount: 2
Fore
SplineSet
150 500 m 1,0,1
 150 800 150 800 450 800 c 2,2,-1
 950 800 l 2,3,4
 1250 800 1250 800 1250 500 c 2,5,-1
 1250 300 l 2,6,7
 1250 0 1250 0 950 0 c 2,8,-1
 400 0 l 1,9,-1
 400 200 l 1,10,-1
 950 200 l 2,11,12
 1050 200 1050 200 1050 300 c 2,13,-1
 1050 500 l 2,14,15
 1050 600 1050 600 950 600 c 2,16,-1
 450 600 l 2,17,18
 350 600 350 600 350 500 c 1,19,-1
 450 500 l 1,20,-1
 450 300 l 1,21,-1
 350 300 l 1,22,-1
 350 0 l 1,23,-1
 150 0 l 1,24,-1
 150 300 l 1,25,-1
 50 300 l 1,26,-1
 50 500 l 1,27,-1
 150 500 l 1,0,1
EndSplineSet
EndChar

StartChar: ccaron
Encoding: 269 269 165
Width: 900
GlyphClass: 2
Flags: W
LayerCount: 2
Fore
SplineSet
850 0 m 1,0,-1
 400 0 l 2,1,2
 50 0 50 0 50 400 c 128,-1,3
 50 800 50 800 400 800 c 2,4,-1
 850 800 l 1,5,-1
 850 600 l 1,6,-1
 400 600 l 2,7,8
 250 600 250 600 250 400 c 128,-1,9
 250 200 250 200 400 200 c 2,10,-1
 850 200 l 1,11,-1
 850 0 l 1,0,-1
550 1100 m 1,12,-1
 250 1300 l 1,13,-1
 250 1100 l 1,14,-1
 550 900 l 1,15,-1
 850 1100 l 1,16,-1
 850 1300 l 1,17,-1
 550 1100 l 1,12,-1
EndSplineSet
EndChar

StartChar: ccircumflex
Encoding: 265 265 166
Width: 900
GlyphClass: 2
Flags: W
LayerCount: 2
Fore
SplineSet
850 0 m 1,0,-1
 400 0 l 2,1,2
 50 0 50 0 50 400 c 128,-1,3
 50 800 50 800 400 800 c 2,4,-1
 850 800 l 1,5,-1
 850 600 l 1,6,-1
 400 600 l 2,7,8
 250 600 250 600 250 400 c 128,-1,9
 250 200 250 200 400 200 c 2,10,-1
 850 200 l 1,11,-1
 850 0 l 1,0,-1
850 900 m 1,12,-1
 850 1100 l 1,13,-1
 550 1300 l 1,14,-1
 250 1100 l 1,15,-1
 250 900 l 1,16,-1
 550 1100 l 1,17,-1
 850 900 l 1,12,-1
EndSplineSet
EndChar

StartChar: cdotaccent
Encoding: 267 267 167
Width: 900
GlyphClass: 2
Flags: W
LayerCount: 2
Fore
SplineSet
850 0 m 1,0,-1
 400 0 l 2,1,2
 50 0 50 0 50 400 c 128,-1,3
 50 800 50 800 400 800 c 2,4,-1
 850 800 l 1,5,-1
 850 600 l 1,6,-1
 400 600 l 2,7,8
 250 600 250 600 250 400 c 128,-1,9
 250 200 250 200 400 200 c 2,10,-1
 850 200 l 1,11,-1
 850 0 l 1,0,-1
620.5 1070.5 m 128,-1,13
 650 1041 650 1041 650 1000 c 128,-1,14
 650 959 650 959 620.5 929.5 c 128,-1,15
 591 900 591 900 550 900 c 128,-1,16
 509 900 509 900 479.5 929.5 c 128,-1,17
 450 959 450 959 450 1000 c 128,-1,18
 450 1041 450 1041 479.5 1070.5 c 128,-1,19
 509 1100 509 1100 550 1100 c 128,-1,12
 591 1100 591 1100 620.5 1070.5 c 128,-1,13
EndSplineSet
EndChar

StartChar: dieresistonos
Encoding: 901 901 168
Width: 800
GlyphClass: 2
Flags: W
LayerCount: 2
Fore
SplineSet
79.5 1070.5 m 128,-1,1
 109 1100 109 1100 150 1100 c 128,-1,2
 191 1100 191 1100 220.5 1070.5 c 128,-1,3
 250 1041 250 1041 250 1000 c 128,-1,4
 250 959 250 959 220.5 929.5 c 128,-1,5
 191 900 191 900 150 900 c 128,-1,6
 109 900 109 900 79.5 929.5 c 128,-1,7
 50 959 50 959 50 1000 c 128,-1,0
 50 1041 50 1041 79.5 1070.5 c 128,-1,1
579.5 1070.5 m 128,-1,9
 609 1100 609 1100 650 1100 c 128,-1,10
 691 1100 691 1100 720.5 1070.5 c 128,-1,11
 750 1041 750 1041 750 1000 c 128,-1,12
 750 959 750 959 720.5 929.5 c 128,-1,13
 691 900 691 900 650 900 c 128,-1,14
 609 900 609 900 579.5 929.5 c 128,-1,15
 550 959 550 959 550 1000 c 128,-1,8
 550 1041 550 1041 579.5 1070.5 c 128,-1,9
550 1100 m 1,16,-1
 450 900 l 1,17,-1
 250 900 l 1,18,-1
 350 1100 l 1,19,-1
 550 1100 l 1,16,-1
EndSplineSet
EndChar

StartChar: pi
Encoding: 960 960 169
Width: 900
GlyphClass: 2
Flags: W
LayerCount: 2
Fore
SplineSet
200 501 m 1,0,1
 150 500 150 500 50 400 c 1,2,-1
 50 600 l 1,3,4
 150 700 150 700 350 700 c 2,5,-1
 550 700 l 2,6,7
 750 700 750 700 850 800 c 1,8,-1
 850 600 l 1,9,10
 770 520 770 520 700 520 c 1,11,-1
 700 0 l 1,12,-1
 500 0 l 1,13,-1
 500 500 l 1,14,-1
 400 500 l 1,15,-1
 400 0 l 1,16,-1
 200 0 l 1,17,-1
 200 501 l 1,0,1
EndSplineSet
EndChar

StartChar: uni00A0
Encoding: 160 160 170
Width: 500
GlyphClass: 2
Flags: W
LayerCount: 2
Fore
SplineSet
450 300 m 1,0,-1
 50 300 l 1,1,-1
 50 500 l 1,2,-1
 450 500 l 1,3,-1
 450 300 l 1,0,-1
EndSplineSet
EndChar

StartChar: uni00AD
Encoding: 173 173 171
Width: 350
GlyphClass: 2
Flags: W
LayerCount: 2
Fore
SplineSet
300 300 m 1,0,-1
 50 300 l 1,1,-1
 50 500 l 1,2,-1
 300 500 l 1,3,-1
 300 300 l 1,0,-1
EndSplineSet
EndChar

StartChar: uni02C9
Encoding: 713 713 172
Width: 700
GlyphClass: 2
Flags: W
LayerCount: 2
Fore
SplineSet
50 1100 m 1,0,-1
 650 1100 l 1,1,-1
 650 900 l 1,2,-1
 50 900 l 1,3,-1
 50 1100 l 1,0,-1
EndSplineSet
EndChar

StartChar: uniF000
Encoding: 61440 61440 173
Width: 900
GlyphClass: 2
Flags: W
LayerCount: 2
Fore
SplineSet
200 444 m 1,0,1
 175 425 175 425 150 400 c 1,2,-1
 50 600 l 1,3,4
 150 700 150 700 350 700 c 2,5,-1
 550 700 l 2,6,7
 650 700 650 700 750 800 c 1,8,-1
 850 600 l 1,9,10
 775 525 775 525 700 506 c 1,11,-1
 700 0 l 1,12,-1
 500 0 l 1,13,-1
 500 500 l 1,14,-1
 400 500 l 1,15,-1
 400 0 l 1,16,-1
 200 0 l 1,17,-1
 200 444 l 1,0,1
EndSplineSet
EndChar

StartChar: glyph150
Encoding: 1114115 -1 174
Width: 900
GlyphClass: 2
Flags: W
LayerCount: 2
Fore
SplineSet
450 450 m 128,-1,1
 429 450 429 450 414.5 435.5 c 128,-1,2
 400 421 400 421 400 400 c 128,-1,3
 400 379 400 379 414.5 364.5 c 128,-1,4
 429 350 429 350 450 350 c 128,-1,5
 471 350 471 350 485.5 364.5 c 128,-1,6
 500 379 500 379 500 400 c 128,-1,7
 500 421 500 421 485.5 435.5 c 128,-1,0
 471 450 471 450 450 450 c 128,-1,1
350 116 m 1,8,-1
 350 67 l 1,9,10
 401 50 401 50 450 50 c 0,11,12
 595 50 595 50 697.5 152.5 c 128,-1,13
 800 255 800 255 800 400 c 128,-1,14
 800 545 800 545 697.5 647.5 c 128,-1,15
 595 750 595 750 450 750 c 128,-1,16
 305 750 305 750 202.5 647.5 c 128,-1,17
 100 545 100 545 100 400 c 128,-1,18
 100 255 100 255 150 200 c 1,19,-1
 150 400 l 2,20,21
 150 524 150 524 238 612 c 128,-1,22
 326 700 326 700 450 700 c 128,-1,23
 574 700 574 700 662 612 c 128,-1,24
 750 524 750 524 750 400 c 128,-1,25
 750 276 750 276 662 188 c 128,-1,26
 574 100 574 100 450 100 c 0,27,28
 397 100 397 100 350 116 c 1,8,-1
850 400 m 128,-1,30
 850 234 850 234 733 117 c 128,-1,31
 616 0 616 0 450 0 c 128,-1,32
 284 0 284 0 167 117 c 128,-1,33
 50 234 50 234 50 400 c 128,-1,34
 50 566 50 566 167 683 c 128,-1,35
 284 800 284 800 450 800 c 128,-1,36
 616 800 616 800 733 683 c 128,-1,29
 850 566 850 566 850 400 c 128,-1,30
EndSplineSet
EndChar

StartChar: glyph151
Encoding: 1114116 -1 175
Width: 899
GlyphClass: 2
Flags: W
LayerCount: 2
Fore
SplineSet
550 0 m 2,0,-1
 50 0 l 1,1,-1
 50 200 l 1,2,-1
 550 200 l 2,3,4
 650 200 650 200 650 300 c 1,5,-1
 50 300 l 1,6,-1
 50 500 l 1,7,-1
 650 500 l 1,8,9
 650 600 650 600 551 600 c 2,10,-1
 50 600 l 1,11,-1
 50 800 l 1,12,-1
 550 800 l 2,13,14
 850 800 850 800 850 400 c 128,-1,15
 850 0 850 0 550 0 c 2,0,-1
EndSplineSet
EndChar

StartChar: glyph152
Encoding: 1114117 -1 176
Width: 899
GlyphClass: 2
Flags: W
LayerCount: 2
Fore
SplineSet
50 250 m 128,-1,1
 50 500 50 500 300 500 c 2,2,-1
 850 500 l 1,3,-1
 850 300 l 1,4,-1
 300 300 l 2,5,6
 250 300 250 300 250 250 c 128,-1,7
 250 200 250 200 300 200 c 2,8,-1
 850 200 l 2,9,10
 950 200 950 200 950 400 c 128,-1,11
 950 600 950 600 850 600 c 2,12,-1
 50 600 l 1,13,-1
 50 800 l 1,14,-1
 850 800 l 2,15,16
 1150 800 1150 800 1150 400 c 128,-1,17
 1150 0 1150 0 850 0 c 2,18,-1
 300 0 l 2,19,0
 50 0 50 0 50 250 c 128,-1,1
800 900 m 1,20,-1
 200 900 l 1,21,-1
 200 1100 l 1,22,-1
 800 1100 l 1,23,-1
 800 900 l 1,20,-1
EndSplineSet
EndChar

StartChar: glyph153
Encoding: 1114118 -1 177
Width: 1200
GlyphClass: 2
Flags: W
LayerCount: 2
Fore
SplineSet
50 250 m 128,-1,1
 50 500 50 500 300 500 c 2,2,-1
 850 500 l 1,3,-1
 850 300 l 1,4,-1
 300 300 l 2,5,6
 250 300 250 300 250 250 c 128,-1,7
 250 200 250 200 300 200 c 2,8,-1
 850 200 l 2,9,10
 950 200 950 200 950 400 c 128,-1,11
 950 600 950 600 850 600 c 2,12,-1
 50 600 l 1,13,-1
 50 800 l 1,14,-1
 850 800 l 2,15,16
 1150 800 1150 800 1150 400 c 128,-1,17
 1150 0 1150 0 850 0 c 2,18,-1
 300 0 l 2,19,0
 50 0 50 0 50 250 c 128,-1,1
600 1100 m 128,-1,21
 500 1100 500 1100 500 1250 c 2,22,-1
 500 1300 l 1,23,-1
 300 1300 l 1,24,-1
 300 1250 l 2,25,26
 300 900 300 900 600 900 c 128,-1,27
 900 900 900 900 900 1250 c 2,28,-1
 900 1300 l 1,29,-1
 700 1300 l 1,30,-1
 700 1250 l 2,31,20
 700 1100 700 1100 600 1100 c 128,-1,21
EndSplineSet
EndChar

StartChar: glyph154
Encoding: 1114119 -1 178
Width: 1200
GlyphClass: 2
Flags: W
LayerCount: 2
Fore
SplineSet
600 1100 m 128,-1,1
 500 1100 500 1100 500 1250 c 2,2,-1
 500 1300 l 1,3,-1
 300 1300 l 1,4,-1
 300 1250 l 2,5,6
 300 900 300 900 600 900 c 128,-1,7
 900 900 900 900 900 1250 c 2,8,-1
 900 1300 l 1,9,-1
 700 1300 l 1,10,-1
 700 1250 l 2,11,0
 700 1100 700 1100 600 1100 c 128,-1,1
50 300 m 2,12,-1
 50 500 l 2,13,14
 50 800 50 800 350 800 c 2,15,-1
 850 800 l 2,16,17
 1150 800 1150 800 1150 500 c 2,18,-1
 1150 0 l 1,19,-1
 950 0 l 1,20,-1
 950 500 l 2,21,22
 950 600 950 600 850 600 c 2,23,-1
 350 600 l 2,24,25
 250 600 250 600 250 500 c 2,26,-1
 250 300 l 2,27,28
 250 200 250 200 350 200 c 2,29,-1
 900 200 l 1,30,-1
 900 0 l 1,31,-1
 350 0 l 2,32,33
 50 0 50 0 50 300 c 2,12,-1
EndSplineSet
EndChar

StartChar: glyph155
Encoding: 1114120 -1 179
Width: 800
GlyphClass: 2
Flags: W
LayerCount: 2
Fore
SplineSet
550 400 m 1,0,-1
 350 800 l 1,1,-1
 550 800 l 1,2,-1
 750 400 l 1,3,-1
 550 0 l 1,4,-1
 350 0 l 1,5,-1
 550 400 l 1,0,-1
250 400 m 1,6,-1
 50 800 l 1,7,-1
 250 800 l 1,8,-1
 450 400 l 1,9,-1
 250 0 l 1,10,-1
 50 0 l 1,11,-1
 250 400 l 1,6,-1
EndSplineSet
EndChar

StartChar: glyph157
Encoding: 1114122 -1 181
Width: 900
GlyphClass: 2
Flags: W
LayerCount: 2
Fore
SplineSet
450 450 m 128,-1,1
 429 450 429 450 414.5 435.5 c 128,-1,2
 400 421 400 421 400 400 c 128,-1,3
 400 379 400 379 414.5 364.5 c 128,-1,4
 429 350 429 350 450 350 c 128,-1,5
 471 350 471 350 485.5 364.5 c 128,-1,6
 500 379 500 379 500 400 c 128,-1,7
 500 421 500 421 485.5 435.5 c 128,-1,0
 471 450 471 450 450 450 c 128,-1,1
350 116 m 1,8,-1
 350 67 l 1,9,10
 401 50 401 50 450 50 c 0,11,12
 595 50 595 50 697.5 152.5 c 128,-1,13
 800 255 800 255 800 400 c 128,-1,14
 800 545 800 545 697.5 647.5 c 128,-1,15
 595 750 595 750 450 750 c 128,-1,16
 305 750 305 750 202.5 647.5 c 128,-1,17
 100 545 100 545 100 400 c 128,-1,18
 100 255 100 255 150 200 c 1,19,-1
 150 400 l 2,20,21
 150 524 150 524 238 612 c 128,-1,22
 326 700 326 700 450 700 c 128,-1,23
 574 700 574 700 662 612 c 128,-1,24
 750 524 750 524 750 400 c 128,-1,25
 750 276 750 276 662 188 c 128,-1,26
 574 100 574 100 450 100 c 0,27,28
 397 100 397 100 350 116 c 1,8,-1
850 400 m 128,-1,30
 850 234 850 234 733 117 c 128,-1,31
 616 0 616 0 450 0 c 128,-1,32
 284 0 284 0 167 117 c 128,-1,33
 50 234 50 234 50 400 c 128,-1,34
 50 566 50 566 167 683 c 128,-1,35
 284 800 284 800 450 800 c 128,-1,36
 616 800 616 800 733 683 c 128,-1,29
 850 566 850 566 850 400 c 128,-1,30
EndSplineSet
EndChar

StartChar: glyph158
Encoding: 1114123 -1 182
Width: 900
GlyphClass: 2
Flags: W
LayerCount: 2
Fore
SplineSet
414 250 m 1,0,-1
 400 260 l 1,1,2
 350 300 350 300 300 300 c 128,-1,3
 250 300 250 300 250 250 c 128,-1,4
 250 200 250 200 300 200 c 128,-1,5
 350 200 350 200 400 240 c 1,6,-1
 414 250 l 1,0,-1
698 248 m 1,7,-1
 750 210 l 1,8,9
 770 200 770 200 800 200 c 2,10,-1
 850 200 l 1,11,-1
 850 0 l 1,12,-1
 800 0 l 2,13,14
 750 0 750 0 700 40 c 1,15,-1
 563 140 l 1,16,-1
 450 50 l 1,17,18
 390 0 390 0 300 0 c 0,19,20
 50 0 50 0 50 250 c 0,21,22
 50 350 50 350 100 400 c 0,23,24
 149 450 149 450 150 550 c 1,25,26
 150 800 150 800 400 800 c 2,27,-1
 600 800 l 2,28,29
 850 800 850 800 850 550 c 1,30,-1
 650 550 l 1,31,32
 650 600 650 600 550 600 c 2,33,-1
 450 600 l 2,34,35
 350 600 350 600 350 540 c 0,36,37
 350 510 350 510 450 430 c 1,38,-1
 555 353 l 1,39,-1
 700 460 l 1,40,41
 750 500 750 500 800 500 c 2,42,-1
 850 501 l 1,43,-1
 850 300 l 1,44,-1
 800 300 l 2,45,46
 770 300 770 300 750 290 c 1,47,-1
 698 248 l 1,7,-1
EndSplineSet
EndChar

StartChar: glyph159
Encoding: 1114124 -1 183
Width: 500
GlyphClass: 2
Flags: W
LayerCount: 2
Fore
SplineSet
390 740 m 1,0,-1
 317 626 l 1,1,-1
 450 600 l 1,2,-1
 317 573 l 1,3,-1
 390 460 l 1,4,-1
 277 533 l 1,5,-1
 250 400 l 1,6,-1
 223 533 l 1,7,-1
 110 460 l 1,8,-1
 184 573 l 1,9,-1
 50 600 l 1,10,-1
 183 627 l 1,11,-1
 110 740 l 1,12,-1
 223 666 l 1,13,-1
 250 800 l 1,14,-1
 277 667 l 1,15,-1
 390 740 l 1,0,-1
EndSplineSet
EndChar

StartChar: glyph160
Encoding: 1114125 -1 184
Width: 869
GlyphClass: 2
Flags: W
LayerCount: 2
Fore
SplineSet
188 588 m 1,0,-1
 300 550 l 1,1,-1
 188 513 l 1,2,-1
 150 400 l 1,3,-1
 113 513 l 1,4,-1
 0 550 l 1,5,-1
 113 588 l 1,6,-1
 150 700 l 1,7,-1
 188 588 l 1,0,-1
EndSplineSet
EndChar

StartChar: glyph165
Encoding: 1114126 -1 185
Width: 1000
GlyphClass: 2
Flags: W
LayerCount: 2
Fore
SplineSet
650 0 m 2,0,-1
 50 0 l 1,1,-1
 50 200 l 1,2,-1
 650 200 l 2,3,4
 750 200 750 200 750 250 c 128,-1,5
 750 300 750 300 650 300 c 2,6,-1
 50 300 l 1,7,-1
 50 500 l 1,8,-1
 650 500 l 2,9,10
 750 500 750 500 750 550 c 128,-1,11
 750 600 750 600 650 600 c 2,12,-1
 50 600 l 1,13,-1
 50 800 l 1,14,-1
 650 800 l 2,15,16
 950 800 950 800 950 550 c 0,17,18
 950 450 950 450 900 400 c 1,19,20
 950 350 950 350 950 250 c 0,21,22
 950 0 950 0 650 0 c 2,0,-1
EndSplineSet
EndChar

StartChar: glyph166
Encoding: 1114127 -1 186
Width: 900
GlyphClass: 2
Flags: W
LayerCount: 2
Fore
SplineSet
850 100 m 1,0,-1
 650 100 l 1,1,-1
 650 0 l 1,2,-1
 450 0 l 1,3,-1
 450 100 l 1,4,-1
 50 100 l 1,5,-1
 50 400 l 2,6,7
 50 700 50 700 350 700 c 2,8,-1
 600 700 l 2,9,10
 650 700 650 700 650 750 c 2,11,-1
 650 800 l 1,12,-1
 850 800 l 1,13,-1
 850 750 l 2,14,15
 850 500 850 500 650 500 c 2,16,-1
 350 500 l 2,17,18
 250 500 250 500 250 400 c 2,19,-1
 250 300 l 1,20,-1
 450 300 l 1,21,-1
 450 400 l 1,22,-1
 650 400 l 1,23,-1
 650 300 l 1,24,-1
 850 300 l 1,25,-1
 850 100 l 1,0,-1
EndSplineSet
EndChar

StartChar: glyph167
Encoding: 1114128 -1 187
Width: 1300
GlyphClass: 2
Flags: W
LayerCount: 2
Fore
SplineSet
1250 450 m 2,0,-1
 1250 0 l 1,1,-1
 1050 0 l 1,2,-1
 1050 450 l 2,3,4
 1050 600 1050 600 900 600 c 128,-1,5
 750 600 750 600 750 450 c 2,6,-1
 750 0 l 1,7,-1
 550 0 l 1,8,-1
 550 450 l 2,9,10
 550 600 550 600 400 600 c 128,-1,11
 250 600 250 600 250 450 c 2,12,-1
 250 0 l 1,13,-1
 50 0 l 1,14,-1
 50 450 l 2,15,16
 50 800 50 800 400 800 c 0,17,18
 550 800 550 800 650 700 c 1,19,20
 750 800 750 800 900 800 c 0,21,22
 1250 800 1250 800 1250 450 c 2,0,-1
400 0 m 128,-1,24
 441 0 441 0 470.5 29.5 c 128,-1,25
 500 59 500 59 500 100 c 128,-1,26
 500 141 500 141 470.5 170.5 c 128,-1,27
 441 200 441 200 400 200 c 128,-1,28
 359 200 359 200 329.5 170.5 c 128,-1,29
 300 141 300 141 300 100 c 128,-1,30
 300 59 300 59 329.5 29.5 c 128,-1,23
 359 0 359 0 400 0 c 128,-1,24
453 41 m 1,31,-1
 381 41 l 2,32,33
 342 41 342 41 342 77 c 0,34,35
 342 103 342 103 371 109 c 1,36,-1
 339 158 l 1,37,-1
 361 158 l 1,38,-1
 394 109 l 1,39,-1
 433 109 l 1,40,-1
 433 158 l 1,41,-1
 453 158 l 1,42,-1
 453 41 l 1,31,-1
435 60 m 1,43,-1
 435 89 l 1,44,-1
 383 89 l 2,45,46
 363 89 363 89 363 76 c 0,47,48
 363 60 363 60 383 60 c 2,49,-1
 435 60 l 1,43,-1
340 40 m 128,-1,51
 315 65 315 65 315 100 c 128,-1,52
 315 135 315 135 340 160 c 128,-1,53
 365 185 365 185 400 185 c 128,-1,54
 435 185 435 185 460 160 c 128,-1,55
 485 135 485 135 485 100 c 128,-1,56
 485 65 485 65 460 40 c 128,-1,57
 435 15 435 15 400 15 c 128,-1,50
 365 15 365 15 340 40 c 128,-1,51
EndSplineSet
EndChar

StartChar: glyph168
Encoding: 1114129 -1 188
Width: 800
GlyphClass: 2
Flags: W
LayerCount: 2
Fore
SplineSet
750 450 m 2,0,-1
 750 0 l 1,1,-1
 550 0 l 1,2,-1
 550 450 l 2,3,4
 550 600 550 600 400 600 c 128,-1,5
 250 600 250 600 250 450 c 2,6,-1
 250 0 l 1,7,-1
 50 0 l 1,8,-1
 50 450 l 2,9,10
 50 800 50 800 400 800 c 128,-1,11
 750 800 750 800 750 450 c 2,0,-1
400 0 m 128,-1,13
 441 0 441 0 470.5 29.5 c 128,-1,14
 500 59 500 59 500 100 c 128,-1,15
 500 141 500 141 470.5 170.5 c 128,-1,16
 441 200 441 200 400 200 c 128,-1,17
 359 200 359 200 329.5 170.5 c 128,-1,18
 300 141 300 141 300 100 c 128,-1,19
 300 59 300 59 329.5 29.5 c 128,-1,12
 359 0 359 0 400 0 c 128,-1,13
453 41 m 1,20,-1
 381 41 l 2,21,22
 342 41 342 41 342 77 c 0,23,24
 342 103 342 103 371 109 c 1,25,-1
 339 158 l 1,26,-1
 361 158 l 1,27,-1
 394 109 l 1,28,-1
 433 109 l 1,29,-1
 433 158 l 1,30,-1
 453 158 l 1,31,-1
 453 41 l 1,20,-1
435 60 m 1,32,-1
 435 89 l 1,33,-1
 383 89 l 2,34,35
 363 89 363 89 363 76 c 0,36,37
 363 60 363 60 383 60 c 2,38,-1
 435 60 l 1,32,-1
340 40 m 128,-1,40
 315 65 315 65 315 100 c 128,-1,41
 315 135 315 135 340 160 c 128,-1,42
 365 185 365 185 400 185 c 128,-1,43
 435 185 435 185 460 160 c 128,-1,44
 485 135 485 135 485 100 c 128,-1,45
 485 65 485 65 460 40 c 128,-1,46
 435 15 435 15 400 15 c 128,-1,39
 365 15 365 15 340 40 c 128,-1,40
EndSplineSet
EndChar

StartChar: glyph169
Encoding: 1114130 -1 189
Width: 800
GlyphClass: 2
Flags: W
LayerCount: 2
Fore
SplineSet
50 350 m 2,0,-1
 50 800 l 1,1,-1
 250 800 l 1,2,-1
 250 350 l 2,3,4
 250 200 250 200 400 200 c 128,-1,5
 550 200 550 200 550 350 c 2,6,-1
 550 800 l 1,7,-1
 750 800 l 1,8,-1
 750 350 l 2,9,10
 750 0 750 0 400 0 c 128,-1,11
 50 0 50 0 50 350 c 2,0,-1
400 800 m 128,-1,13
 359 800 359 800 329.5 770.5 c 128,-1,14
 300 741 300 741 300 700 c 128,-1,15
 300 659 300 659 329.5 629.5 c 128,-1,16
 359 600 359 600 400 600 c 128,-1,17
 441 600 441 600 470.5 629.5 c 128,-1,18
 500 659 500 659 500 700 c 128,-1,19
 500 741 500 741 470.5 770.5 c 128,-1,12
 441 800 441 800 400 800 c 128,-1,13
347 759 m 1,20,-1
 419 759 l 2,21,22
 458 759 458 759 458 723 c 0,23,24
 458 697 458 697 429 691 c 1,25,-1
 461 642 l 1,26,-1
 439 642 l 1,27,-1
 406 691 l 1,28,-1
 367 691 l 1,29,-1
 367 642 l 1,30,-1
 347 642 l 1,31,-1
 347 759 l 1,20,-1
365 740 m 1,32,-1
 365 711 l 1,33,-1
 417 711 l 2,34,35
 437 711 437 711 437 724 c 0,36,37
 437 740 437 740 417 740 c 2,38,-1
 365 740 l 1,32,-1
460 760 m 128,-1,40
 485 735 485 735 485 700 c 128,-1,41
 485 665 485 665 460 640 c 128,-1,42
 435 615 435 615 400 615 c 128,-1,43
 365 615 365 615 340 640 c 128,-1,44
 315 665 315 665 315 700 c 128,-1,45
 315 735 315 735 340 760 c 128,-1,46
 365 785 365 785 400 785 c 128,-1,39
 435 785 435 785 460 760 c 128,-1,40
EndSplineSet
EndChar

StartChar: glyph170
Encoding: 1114131 -1 190
Width: 1300
GlyphClass: 2
Flags: W
LayerCount: 2
Fore
SplineSet
50 350 m 2,0,-1
 50 800 l 1,1,-1
 250 800 l 1,2,-1
 250 350 l 2,3,4
 250 200 250 200 400 200 c 128,-1,5
 550 200 550 200 550 350 c 2,6,-1
 550 800 l 1,7,-1
 750 800 l 1,8,-1
 750 350 l 2,9,10
 750 200 750 200 900 200 c 128,-1,11
 1050 200 1050 200 1050 350 c 2,12,-1
 1050 800 l 1,13,-1
 1250 800 l 1,14,-1
 1250 350 l 2,15,16
 1250 0 1250 0 900 0 c 0,17,18
 750 0 750 0 650 100 c 1,19,20
 550 0 550 0 400 0 c 0,21,22
 50 0 50 0 50 350 c 2,0,-1
900 800 m 128,-1,24
 859 800 859 800 829.5 770.5 c 128,-1,25
 800 741 800 741 800 700 c 128,-1,26
 800 659 800 659 829.5 629.5 c 128,-1,27
 859 600 859 600 900 600 c 128,-1,28
 941 600 941 600 970.5 629.5 c 128,-1,29
 1000 659 1000 659 1000 700 c 128,-1,30
 1000 741 1000 741 970.5 770.5 c 128,-1,23
 941 800 941 800 900 800 c 128,-1,24
847 759 m 1,31,-1
 919 759 l 2,32,33
 958 759 958 759 958 723 c 0,34,35
 958 697 958 697 929 691 c 1,36,-1
 961 642 l 1,37,-1
 939 642 l 1,38,-1
 906 691 l 1,39,-1
 867 691 l 1,40,-1
 867 642 l 1,41,-1
 847 642 l 1,42,-1
 847 759 l 1,31,-1
865 740 m 1,43,-1
 865 711 l 1,44,-1
 917 711 l 2,45,46
 937 711 937 711 937 724 c 0,47,48
 937 740 937 740 917 740 c 2,49,-1
 865 740 l 1,43,-1
960 760 m 128,-1,51
 985 735 985 735 985 700 c 128,-1,52
 985 665 985 665 960 640 c 128,-1,53
 935 615 935 615 900 615 c 128,-1,54
 865 615 865 615 840 640 c 128,-1,55
 815 665 815 665 815 700 c 128,-1,56
 815 735 815 735 840 760 c 128,-1,57
 865 785 865 785 900 785 c 128,-1,50
 935 785 935 785 960 760 c 128,-1,51
EndSplineSet
EndChar

StartChar: glyph171
Encoding: 1114132 -1 191
Width: 900
GlyphClass: 2
Flags: W
LayerCount: 2
Fore
SplineSet
350 0 m 1,0,-1
 350 200 l 1,1,2
 50 250 50 250 50 600 c 2,3,-1
 50 800 l 1,4,-1
 250 800 l 1,5,-1
 250 600 l 2,6,7
 250 400 250 400 450 400 c 128,-1,8
 650 400 650 400 650 600 c 2,9,-1
 650 800 l 1,10,-1
 850 800 l 1,11,-1
 850 600 l 2,12,13
 850 250 850 250 550 200 c 1,14,-1
 550 0 l 1,15,-1
 350 0 l 1,0,-1
450 800 m 128,-1,17
 409 800 409 800 379.5 770.5 c 128,-1,18
 350 741 350 741 350 700 c 128,-1,19
 350 659 350 659 379.5 629.5 c 128,-1,20
 409 600 409 600 450 600 c 128,-1,21
 491 600 491 600 520.5 629.5 c 128,-1,22
 550 659 550 659 550 700 c 128,-1,23
 550 741 550 741 520.5 770.5 c 128,-1,16
 491 800 491 800 450 800 c 128,-1,17
397 759 m 1,24,-1
 469 759 l 2,25,26
 508 759 508 759 508 723 c 0,27,28
 508 697 508 697 479 691 c 1,29,-1
 511 642 l 1,30,-1
 489 642 l 1,31,-1
 456 691 l 1,32,-1
 417 691 l 1,33,-1
 417 642 l 1,34,-1
 397 642 l 1,35,-1
 397 759 l 1,24,-1
415 740 m 1,36,-1
 415 711 l 1,37,-1
 467 711 l 2,38,39
 487 711 487 711 487 724 c 0,40,41
 487 740 487 740 467 740 c 2,42,-1
 415 740 l 1,36,-1
510 760 m 128,-1,44
 535 735 535 735 535 700 c 128,-1,45
 535 665 535 665 510 640 c 128,-1,46
 485 615 485 615 450 615 c 128,-1,47
 415 615 415 615 390 640 c 128,-1,48
 365 665 365 665 365 700 c 128,-1,49
 365 735 365 735 390 760 c 128,-1,50
 415 785 415 785 450 785 c 128,-1,43
 485 785 485 785 510 760 c 128,-1,44
EndSplineSet
EndChar

StartChar: uni204B
Encoding: 8267 8267 192
Width: 500
GlyphClass: 2
Flags: W
LayerCount: 2
Fore
SplineSet
250 600 m 128,-1,1
 167 600 167 600 109 542 c 0,2,3
 52 485 52 485 50 407 c 1,4,-1
 50 405 l 2,5,6
 50 404 50 404 50 400 c 0,7,8
 50 399 50 399 50 395 c 2,9,-1
 50 100 l 1,10,-1
 250 100 l 1,11,-1
 250 125 l 1,12,-1
 200 125 l 1,13,-1
 200 206 l 1,14,15
 224 200 224 200 250 200 c 0,16,17
 333 200 333 200 391.5 258.5 c 128,-1,18
 450 317 450 317 450 400 c 128,-1,19
 450 483 450 483 391.5 541.5 c 128,-1,0
 333 600 333 600 250 600 c 128,-1,1
250 425 m 128,-1,21
 261 425 261 425 268 418 c 128,-1,22
 275 411 275 411 275 400.5 c 128,-1,23
 275 390 275 390 268 382.5 c 128,-1,24
 261 375 261 375 250 375 c 128,-1,25
 239 375 239 375 232 382.5 c 128,-1,26
 225 390 225 390 225 400.5 c 128,-1,27
 225 411 225 411 232 418 c 128,-1,20
 239 425 239 425 250 425 c 128,-1,21
75 394 m 1,28,-1
 75 405 l 2,29,30
 75 473 75 473 126 524 c 128,-1,31
 177 575 177 575 249.5 575 c 128,-1,32
 322 575 322 575 373.5 524 c 128,-1,33
 425 473 425 473 425 400.5 c 128,-1,34
 425 328 425 328 373.5 276.5 c 128,-1,35
 322 225 322 225 250 225 c 0,36,37
 226 225 226 225 200 234 c 1,38,-1
 200 258 l 1,39,40
 223 250 223 250 250 250 c 0,41,42
 312 250 312 250 356 294 c 128,-1,43
 400 338 400 338 400 400 c 128,-1,44
 400 462 400 462 356 506 c 128,-1,45
 312 550 312 550 250 550 c 128,-1,46
 188 550 188 550 144 506 c 0,47,48
 102 464 102 464 100 407 c 1,49,-1
 100 404 l 2,50,51
 100 403 100 403 100 400 c 2,52,-1
 100 125 l 1,53,-1
 75 125 l 1,54,-1
 75 394 l 1,28,-1
EndSplineSet
EndChar

StartChar: openbullet
Encoding: 9702 9702 193
Width: 400
GlyphClass: 2
Flags: W
LayerCount: 2
Fore
SplineSet
238 588 m 1,0,-1
 350 550 l 1,1,-1
 238 513 l 1,2,-1
 200 400 l 1,3,-1
 163 513 l 1,4,-1
 50 550 l 1,5,-1
 163 588 l 1,6,-1
 200 700 l 1,7,-1
 238 588 l 1,0,-1
EndSplineSet
EndChar

StartChar: uniFFFD
Encoding: 65533 65533 194
Width: 700
GlyphClass: 2
Flags: W
LayerCount: 2
Fore
SplineSet
650 800 m 1,0,-1
 650 0 l 1,1,-1
 50 0 l 1,2,-1
 50 800 l 1,3,-1
 650 800 l 1,0,-1
250 600 m 1,4,-1
 250 200 l 1,5,-1
 450 200 l 1,6,-1
 450 600 l 1,7,-1
 250 600 l 1,4,-1
EndSplineSet
EndChar

StartChar: uni001A
Encoding: 26 26 195
Width: 700
GlyphClass: 2
Flags: W
LayerCount: 2
Fore
SplineSet
650 800 m 1,0,-1
 650 0 l 1,1,-1
 50 0 l 1,2,-1
 50 800 l 1,3,-1
 650 800 l 1,0,-1
250 600 m 1,4,-1
 250 200 l 1,5,-1
 450 200 l 1,6,-1
 450 600 l 1,7,-1
 250 600 l 1,4,-1
EndSplineSet
EndChar

StartChar: uni3003
Encoding: 12291 12291 196
Width: 600
GlyphClass: 2
Flags: W
LayerCount: 2
Fore
SplineSet
250 500 m 1,0,-1
 50 500 l 1,1,-1
 50 800 l 1,2,-1
 250 800 l 1,3,-1
 250 500 l 1,0,-1
550 500 m 1,4,-1
 350 500 l 1,5,-1
 350 800 l 1,6,-1
 550 800 l 1,7,-1
 550 500 l 1,4,-1
EndSplineSet
EndChar

StartChar: uni3016
Encoding: 12310 12310 197
Width: 500
GlyphClass: 2
Flags: W
LayerCount: 2
Fore
SplineSet
450 0 m 1,0,-1
 150 0 l 2,1,2
 50 0 50 0 50 100 c 2,3,-1
 50 700 l 2,4,5
 50 800 50 800 150 800 c 2,6,-1
 450 800 l 1,7,-1
 450 600 l 1,8,-1
 300 600 l 2,9,10
 250 600 250 600 250 550 c 2,11,-1
 250 250 l 2,12,13
 250 200 250 200 300 200 c 2,14,-1
 450 200 l 1,15,-1
 450 0 l 1,0,-1
400 50 m 1,16,-1
 400 150 l 1,17,-1
 300 150 l 2,18,19
 254 150 254 150 227 177 c 128,-1,20
 200 204 200 204 200 250 c 2,21,-1
 200 550 l 2,22,23
 200 596 200 596 227 623 c 128,-1,24
 254 650 254 650 300 650 c 2,25,-1
 400 650 l 1,26,-1
 400 750 l 1,27,-1
 150 750 l 2,28,29
 121 750 121 750 110.5 739 c 128,-1,30
 100 728 100 728 100 700 c 2,31,-1
 100 100 l 2,32,33
 100 71 100 71 110.5 60.5 c 128,-1,34
 121 50 121 50 150 50 c 2,35,-1
 400 50 l 1,16,-1
EndSplineSet
EndChar

StartChar: uni3017
Encoding: 12311 12311 198
Width: 500
GlyphClass: 2
Flags: W
LayerCount: 2
Fore
SplineSet
50 0 m 1,0,-1
 350 0 l 2,1,2
 450 0 450 0 450 100 c 2,3,-1
 450 700 l 2,4,5
 450 800 450 800 350 800 c 2,6,-1
 50 800 l 1,7,-1
 50 600 l 1,8,-1
 200 600 l 2,9,10
 250 600 250 600 250 550 c 2,11,-1
 250 250 l 2,12,13
 250 200 250 200 200 200 c 2,14,-1
 50 200 l 1,15,-1
 50 0 l 1,0,-1
100 50 m 1,16,-1
 100 150 l 1,17,-1
 200 150 l 2,18,19
 246 150 246 150 273 177 c 128,-1,20
 300 204 300 204 300 250 c 2,21,-1
 300 550 l 2,22,23
 300 596 300 596 273 623 c 128,-1,24
 246 650 246 650 200 650 c 2,25,-1
 100 650 l 1,26,-1
 100 750 l 1,27,-1
 350 750 l 2,28,29
 379 750 379 750 389.5 739 c 128,-1,30
 400 728 400 728 400 700 c 2,31,-1
 400 100 l 2,32,33
 400 71 400 71 389.5 60.5 c 128,-1,34
 379 50 379 50 350 50 c 2,35,-1
 100 50 l 1,16,-1
EndSplineSet
EndChar

StartChar: uniF003
Encoding: 61443 61443 199
Width: 900
GlyphClass: 2
Flags: W
LayerCount: 2
Fore
SplineSet
414 250 m 1,0,-1
 400 260 l 1,1,2
 350 300 350 300 300 300 c 128,-1,3
 250 300 250 300 250 250 c 128,-1,4
 250 200 250 200 300 200 c 128,-1,5
 350 200 350 200 400 240 c 1,6,-1
 414 250 l 1,0,-1
698 248 m 1,7,-1
 750 210 l 1,8,9
 770 200 770 200 800 200 c 2,10,-1
 850 200 l 1,11,-1
 850 0 l 1,12,-1
 800 0 l 2,13,14
 750 0 750 0 700 40 c 1,15,-1
 563 140 l 1,16,-1
 450 50 l 1,17,18
 390 0 390 0 300 0 c 0,19,20
 50 0 50 0 50 250 c 0,21,22
 50 350 50 350 100 400 c 0,23,24
 149 450 149 450 150 550 c 1,25,26
 150 800 150 800 400 800 c 2,27,-1
 600 800 l 2,28,29
 850 800 850 800 850 550 c 1,30,-1
 650 550 l 1,31,32
 650 600 650 600 550 600 c 2,33,-1
 450 600 l 2,34,35
 350 600 350 600 350 540 c 0,36,37
 350 510 350 510 450 430 c 1,38,-1
 555 353 l 1,39,-1
 700 460 l 1,40,41
 750 500 750 500 800 500 c 2,42,-1
 850 501 l 1,43,-1
 850 300 l 1,44,-1
 800 300 l 2,45,46
 770 300 770 300 750 290 c 1,47,-1
 698 248 l 1,7,-1
EndSplineSet
EndChar

StartChar: uniF004
Encoding: 61444 61444 200
Width: 350
GlyphClass: 2
Flags: W
LayerCount: 2
Fore
SplineSet
188 588 m 1,0,-1
 300 550 l 1,1,-1
 188 513 l 1,2,-1
 150 400 l 1,3,-1
 113 513 l 1,4,-1
 0 550 l 1,5,-1
 113 588 l 1,6,-1
 150 700 l 1,7,-1
 188 588 l 1,0,-1
EndSplineSet
EndChar

StartChar: uniF005
Encoding: 61445 61445 201
Width: 500
GlyphClass: 2
Flags: W
LayerCount: 2
Fore
SplineSet
390 740 m 1,0,-1
 317 626 l 1,1,-1
 450 600 l 1,2,-1
 317 573 l 1,3,-1
 390 460 l 1,4,-1
 277 533 l 1,5,-1
 250 400 l 1,6,-1
 223 533 l 1,7,-1
 110 460 l 1,8,-1
 184 573 l 1,9,-1
 50 600 l 1,10,-1
 183 627 l 1,11,-1
 110 740 l 1,12,-1
 223 666 l 1,13,-1
 250 800 l 1,14,-1
 277 667 l 1,15,-1
 390 740 l 1,0,-1
EndSplineSet
EndChar

StartChar: uniF006
Encoding: 61446 61446 202
Width: 1298
GlyphClass: 2
Flags: W
LayerCount: 2
Fore
SplineSet
638 800 m 1,0,-1
 672 800 l 1,1,-1
 991 593 l 1,2,-1
 1063 634 l 1,3,4
 1062 638 1062 638 1062 641 c 0,5,6
 1062 680 1062 680 1089.5 707.5 c 128,-1,7
 1117 735 1117 735 1155.5 735 c 128,-1,8
 1194 735 1194 735 1221 707.5 c 128,-1,9
 1248 680 1248 680 1248 641.5 c 128,-1,10
 1248 603 1248 603 1221 575.5 c 128,-1,11
 1194 548 1194 548 1155 548 c 0,12,13
 1130 548 1130 548 1108 561 c 1,14,-1
 993 495 l 1,15,-1
 993 340 l 1,16,-1
 909 253 l 1,17,-1
 1043 176 l 1,18,19
 1066 191 1066 191 1093 191 c 0,20,21
 1132 191 1132 191 1159 163.5 c 128,-1,22
 1186 136 1186 136 1186 97.5 c 128,-1,23
 1186 59 1186 59 1159 32 c 128,-1,24
 1132 5 1132 5 1093.5 5 c 128,-1,25
 1055 5 1055 5 1027.5 32 c 128,-1,26
 1000 59 1000 59 1000 98 c 0,27,28
 1000 99 1000 99 1000 102 c 1,29,-1
 848 190 l 1,30,-1
 845 186 l 1,31,-1
 845 17 l 1,32,-1
 832 3 l 1,33,34
 741 0 741 0 655 0 c 0,35,36
 571 0 571 0 468 3 c 1,37,-1
 453 19 l 1,38,-1
 453 183 l 1,39,-1
 298 93 l 1,40,41
 296 56 296 56 269 30.5 c 128,-1,42
 242 5 242 5 205 5 c 0,43,44
 167 5 167 5 139.5 32 c 128,-1,45
 112 59 112 59 112 97.5 c 128,-1,46
 112 136 112 136 139.5 163.5 c 128,-1,47
 167 191 167 191 205 191 c 0,48,49
 237 191 237 191 262 171 c 1,50,-1
 397 249 l 1,51,-1
 317 340 l 1,52,-1
 317 497 l 1,53,-1
 197 566 l 1,54,55
 173 548 173 548 143 548 c 0,56,57
 105 548 105 548 77.5 575.5 c 128,-1,58
 50 603 50 603 50 641.5 c 128,-1,59
 50 680 50 680 77.5 707.5 c 128,-1,60
 105 735 105 735 143 735 c 256,61,62
 181 735 181 735 208.5 707.5 c 128,-1,63
 236 680 236 680 236 642 c 1,64,-1
 320 593 l 1,65,-1
 638 800 l 1,0,-1
874 549 m 2,66,67
 874 549 874 549 872 549 c 2,68,69
 872 549 872 549 870 549 c 2,70,-1
 705 461 l 1,71,72
 679 449 679 449 697 447 c 1,73,74
 866 391 866 391 874 392 c 0,75,76
 883 393 883 393 886 408 c 1,77,-1
 886 539 l 2,78,79
 886 549 886 549 874 549 c 2,66,67
427 546 m 0,80,81
 420 546 420 546 414 539 c 1,82,-1
 414 405 l 1,83,84
 415 393 415 393 430 391 c 1,85,-1
 614 447 l 2,86,87
 624 451 624 451 611 458 c 2,88,-1
 435 545 l 2,89,90
 431 546 431 546 427 546 c 0,80,81
650 407 m 128,-1,92
 645 407 645 407 641 399 c 0,93,94
 604 305 604 305 603 299 c 1,95,96
 600 292 600 292 603 291 c 0,97,98
 605 291 605 291 630 285 c 0,99,100
 655 280 655 280 696 291 c 1,101,102
 700 291 700 291 695 305 c 2,103,-1
 660 399 l 1,104,91
 655 407 655 407 650 407 c 128,-1,92
EndSplineSet
EndChar

StartChar: uniF007
Encoding: 61447 61447 203
Width: 1293
GlyphClass: 2
Flags: W
LayerCount: 2
Fore
SplineSet
690 782 m 1,0,-1
 962 603 l 1,1,2
 975 593 975 593 980 595 c 2,3,-1
 1062 643 l 1,4,5
 1063 680 1063 680 1089.5 706.5 c 128,-1,6
 1116 733 1116 733 1153.5 733 c 128,-1,7
 1191 733 1191 733 1217.5 706.5 c 128,-1,8
 1244 680 1244 680 1244 642.5 c 128,-1,9
 1244 605 1244 605 1217.5 578.5 c 128,-1,10
 1191 552 1191 552 1153 552 c 0,11,12
 1125 552 1125 552 1102 567 c 1,13,-1
 986 500 l 1,14,-1
 986 348 l 2,15,16
 986 335 986 335 976 328 c 1,17,18
 975 326 975 326 973 325 c 2,19,-1
 903 255 l 1,20,-1
 1050 171 l 1,21,22
 1071 183 1071 183 1095 183 c 0,23,24
 1132 183 1132 183 1158.5 156.5 c 128,-1,25
 1185 130 1185 130 1185 92 c 128,-1,26
 1185 54 1185 54 1158.5 27.5 c 128,-1,27
 1132 1 1132 1 1094.5 1 c 128,-1,28
 1057 1 1057 1 1030.5 27.5 c 128,-1,29
 1004 54 1004 54 1004 92 c 0,30,31
 1004 95 1004 95 1004 98 c 1,32,-1
 843 191 l 1,33,-1
 843 28 l 2,34,35
 843 18 843 18 836 10.5 c 128,-1,36
 829 3 829 3 819 3 c 2,37,-1
 475 3 l 2,38,39
 465 3 465 3 458 10.5 c 128,-1,40
 451 18 451 18 451 28 c 2,41,-1
 451 191 l 1,42,-1
 290 98 l 1,43,44
 290 95 290 95 290 92 c 0,45,46
 290 54 290 54 263.5 27.5 c 128,-1,47
 237 1 237 1 199.5 1 c 128,-1,48
 162 1 162 1 135 27.5 c 128,-1,49
 108 54 108 54 108 92 c 128,-1,50
 108 130 108 130 135 156.5 c 128,-1,51
 162 183 162 183 199 183 c 0,52,53
 223 183 223 183 244 171 c 1,54,-1
 390 255 l 1,55,-1
 321 325 l 2,56,57
 319 326 319 326 318 328 c 1,58,59
 307 335 307 335 307 348 c 2,60,-1
 307 500 l 1,61,-1
 191 567 l 1,62,63
 168 552 168 552 141 552 c 0,64,65
 103 552 103 552 76.5 578.5 c 128,-1,66
 50 605 50 605 50 642.5 c 128,-1,67
 50 680 50 680 76.5 706.5 c 128,-1,68
 103 733 103 733 140.5 733 c 128,-1,69
 178 733 178 733 204.5 706.5 c 128,-1,70
 231 680 231 680 231 643 c 1,71,-1
 314 595 l 2,72,73
 318 593 318 593 332 603 c 2,74,-1
 602 782 l 1,75,-1
 690 782 l 1,0,-1
421 547 m 0,76,77
 407 547 407 547 407 528 c 2,78,-1
 407 471 l 1,79,-1
 407 404 l 2,80,81
 407 396 407 396 417 394.5 c 128,-1,82
 427 393 427 393 435 396 c 2,83,-1
 512 418 l 1,84,-1
 607 448 l 1,85,86
 617 450 617 450 607 456 c 2,87,-1
 512 503 l 1,88,-1
 428 545 l 2,89,90
 426 547 426 547 421 547 c 0,76,77
872 547 m 0,91,92
 868 547 868 547 866 545 c 2,93,-1
 782 503 l 1,94,-1
 687 456 l 2,95,96
 677 450 677 450 687 448 c 1,97,-1
 782 418 l 1,98,-1
 859 396 l 2,99,100
 867 393 867 393 877 394.5 c 128,-1,101
 887 396 887 396 887 404 c 2,102,-1
 887 471 l 1,103,-1
 887 528 l 2,104,105
 887 547 887 547 872 547 c 0,91,92
647 407 m 1,106,-1
 638 399 l 1,107,-1
 621 357 l 1,108,-1
 598 294 l 2,109,110
 598 292 598 292 599 292 c 0,111,112
 618 286 618 286 634 284 c 1,113,-1
 634 286 l 1,114,-1
 642 307 l 1,115,-1
 644 307 l 1,116,-1
 645 306 l 1,117,-1
 645 295 l 2,118,119
 645 293 645 293 647 293 c 128,-1,120
 649 293 649 293 649 295 c 2,121,-1
 649 306 l 1,122,-1
 650 307 l 1,123,-1
 651 307 l 1,124,-1
 659 286 l 1,125,-1
 660 284 l 1,126,127
 676 286 676 286 695 292 c 0,128,129
 696 292 696 292 696 294 c 2,130,-1
 672 357 l 1,131,-1
 656 399 l 1,132,-1
 647 407 l 1,106,-1
EndSplineSet
EndChar

StartChar: uniF008
Encoding: 61448 61448 204
Width: 1293
GlyphClass: 2
Flags: W
LayerCount: 2
Fore
SplineSet
690 782 m 1,0,-1
 962 603 l 1,1,2
 975 593 975 593 980 595 c 2,3,-1
 1062 643 l 1,4,5
 1063 680 1063 680 1089.5 706.5 c 128,-1,6
 1116 733 1116 733 1153.5 733 c 128,-1,7
 1191 733 1191 733 1217.5 706.5 c 128,-1,8
 1244 680 1244 680 1244 642.5 c 128,-1,9
 1244 605 1244 605 1217.5 578.5 c 128,-1,10
 1191 552 1191 552 1158 552 c 128,-1,11
 1125 552 1125 552 1102 567 c 1,12,-1
 986 500 l 1,13,-1
 986 348 l 2,14,15
 986 335 986 335 976 328 c 1,16,17
 975 326 975 326 973 325 c 2,18,-1
 903 255 l 1,19,-1
 1050 171 l 1,20,21
 1071 183 1071 183 1101.5 183 c 128,-1,22
 1132 183 1132 183 1158.5 156.5 c 128,-1,23
 1185 130 1185 130 1185 92 c 128,-1,24
 1185 54 1185 54 1158.5 27.5 c 128,-1,25
 1132 1 1132 1 1094.5 1 c 128,-1,26
 1057 1 1057 1 1030.5 27.5 c 128,-1,27
 1004 54 1004 54 1004 92 c 0,28,29
 1004 95 1004 95 1004 98 c 1,30,-1
 843 191 l 1,31,-1
 843 28 l 2,32,33
 843 18 843 18 836 10.5 c 128,-1,34
 829 3 829 3 819 3 c 2,35,-1
 475 3 l 2,36,37
 465 3 465 3 458 10.5 c 128,-1,38
 451 18 451 18 451 28 c 2,39,-1
 451 191 l 1,40,-1
 290 98 l 1,41,42
 290 95 290 95 290 92 c 0,43,44
 290 54 290 54 263.5 27.5 c 128,-1,45
 237 1 237 1 199.5 1 c 128,-1,46
 162 1 162 1 135 27.5 c 128,-1,47
 108 54 108 54 108 92 c 128,-1,48
 108 130 108 130 135 156.5 c 128,-1,49
 162 183 162 183 192.5 183 c 128,-1,50
 223 183 223 183 244 171 c 1,51,-1
 390 255 l 1,52,-1
 320 325 l 2,53,54
 319 326 319 326 318 328 c 1,55,56
 307 335 307 335 307 348 c 2,57,-1
 307 500 l 1,58,-1
 191 567 l 1,59,60
 168 552 168 552 135.5 552 c 128,-1,61
 103 552 103 552 76.5 578.5 c 128,-1,62
 50 605 50 605 50 642.5 c 128,-1,63
 50 680 50 680 76.5 706.5 c 128,-1,64
 103 733 103 733 140.5 733 c 128,-1,65
 178 733 178 733 204.5 706.5 c 128,-1,66
 231 680 231 680 231 643 c 1,67,-1
 314 595 l 2,68,69
 318 593 318 593 332 603 c 2,70,-1
 602 782 l 1,71,-1
 690 782 l 1,0,-1
421 547 m 0,72,73
 407 547 407 547 407 528 c 2,74,-1
 407 404 l 2,75,76
 407 396 407 396 417 394.5 c 128,-1,77
 427 393 427 393 435 396 c 2,78,-1
 607 448 l 2,79,80
 617 450 617 450 607 456 c 2,81,-1
 428 545 l 2,82,83
 426 547 426 547 421 547 c 0,72,73
872 547 m 0,84,85
 868 547 868 547 866 545 c 2,86,-1
 687 456 l 2,87,88
 677 450 677 450 687 448 c 2,89,-1
 859 396 l 2,90,91
 867 393 867 393 877 394.5 c 128,-1,92
 887 396 887 396 887 404 c 2,93,-1
 887 528 l 2,94,95
 887 547 887 547 872 547 c 0,84,85
656 399 m 1,96,97
 650 406 650 406 647 406 c 128,-1,98
 644 406 644 406 638 399 c 1,99,-1
 598 294 l 2,100,101
 598 292 598 292 599 292 c 0,102,103
 618 286 618 286 634 284 c 1,104,-1
 642 307 l 1,105,106
 645 309 645 309 645 306 c 2,107,-1
 645 295 l 2,108,109
 645 293 645 293 647 293 c 128,-1,110
 649 293 649 293 649 295 c 2,111,-1
 649 306 l 2,112,113
 649 309 649 309 651 307 c 1,114,-1
 660 284 l 1,115,116
 676 286 676 286 695 292 c 0,117,118
 696 292 696 292 696 294 c 2,119,-1
 656 399 l 1,96,97
1103 579 m 1,120,121
 1124 562 1124 562 1155 562 c 128,-1,122
 1186 562 1186 562 1210 585.5 c 128,-1,123
 1234 609 1234 609 1234 642.5 c 128,-1,124
 1234 676 1234 676 1210 699.5 c 128,-1,125
 1186 723 1186 723 1153 723 c 128,-1,126
 1120 723 1120 723 1095.5 699 c 128,-1,127
 1071 675 1071 675 1072 637 c 1,128,-1
 985 587 l 2,129,130
 981 585 981 585 975.5 585 c 128,-1,131
 970 585 970 585 956 595 c 2,132,-1
 684 774 l 1,133,-1
 607 774 l 1,134,-1
 337 595 l 1,135,136
 324 585 324 585 318 585 c 128,-1,137
 312 585 312 585 309 587 c 2,138,-1
 222 637 l 1,139,140
 223 675 223 675 198.5 699 c 128,-1,141
 174 723 174 723 140.5 723 c 128,-1,142
 107 723 107 723 83.5 699.5 c 128,-1,143
 60 676 60 676 60 642.5 c 128,-1,144
 60 609 60 609 83.5 585.5 c 128,-1,145
 107 562 107 562 138.5 562 c 128,-1,146
 170 562 170 562 191 579 c 1,147,-1
 317 506 l 1,148,-1
 317 348 l 2,149,150
 317 341 317 341 321 338 c 2,151,-1
 407 253 l 1,152,-1
 244 159 l 1,153,154
 225 172 225 172 195.5 172.5 c 128,-1,155
 166 173 166 173 142 149 c 128,-1,156
 118 125 118 125 118 92 c 128,-1,157
 118 59 118 59 142 35 c 128,-1,158
 166 11 166 11 199.5 11 c 128,-1,159
 233 11 233 11 256.5 35 c 128,-1,160
 280 59 280 59 280 92 c 1,161,-1
 279 104 l 1,162,-1
 461 208 l 1,163,-1
 461 28 l 2,164,165
 461 22 461 22 465 17.5 c 128,-1,166
 469 13 469 13 475 13 c 2,167,-1
 819 13 l 2,168,169
 825 13 825 13 829 17.5 c 128,-1,170
 833 22 833 22 833 28 c 2,171,-1
 833 208 l 1,172,-1
 1014 104 l 1,173,-1
 1014 92 l 2,174,175
 1014 59 1014 59 1037.5 35 c 128,-1,176
 1061 11 1061 11 1094.5 11 c 128,-1,177
 1128 11 1128 11 1151.5 35 c 128,-1,178
 1175 59 1175 59 1175 92 c 128,-1,179
 1175 125 1175 125 1151.5 149 c 128,-1,180
 1128 173 1128 173 1098.5 172.5 c 128,-1,181
 1069 172 1069 172 1050 159 c 1,182,-1
 887 253 l 1,183,-1
 966 332 l 2,184,185
 976 342 976 342 969 336 c 1,186,187
 976 340 976 340 976 348 c 2,188,-1
 976 506 l 1,189,-1
 1103 579 l 1,120,121
424 384 m 0,190,191
 397 384 397 384 397 404 c 2,192,-1
 397 528 l 2,193,194
 397 557 397 557 421 557 c 1,195,196
 430 556 430 556 433 554 c 2,197,-1
 612 465 l 2,198,199
 622 459 622 459 622 451 c 1,200,201
 620 448 620 448 618.5 444 c 128,-1,202
 617 440 617 440 610 438 c 2,203,-1
 438 386 l 2,204,205
 432 384 432 384 424 384 c 0,190,191
897 404 m 1,206,207
 894 384 894 384 870 384 c 0,208,209
 862 384 862 384 855 386 c 2,210,-1
 684 438 l 1,211,212
 672 443 672 443 672 451 c 128,-1,213
 672 459 672 459 682 465 c 2,214,-1
 861 554 l 2,215,216
 868 557 868 557 872 557 c 2,217,-1
 873 557 l 2,218,219
 897 557 897 557 897 528 c 2,220,-1
 897 404 l 1,206,207
644 283 m 1,221,-1
 641 273 l 1,222,223
 617 275 617 275 593 283 c 1,224,225
 588 287 588 287 588 294 c 2,226,-1
 588 296 l 1,227,-1
 629 405 l 1,228,-1
 639 414 l 1,229,230
 643 416 643 416 646 417 c 1,231,-1
 647 417 l 1,232,233
 658 413 658 413 665 405 c 1,234,-1
 706 296 l 1,235,-1
 706 294 l 1,236,237
 705 287 705 287 700 283 c 1,238,239
 677 275 677 275 653 273 c 1,240,-1
 650 283 l 1,241,242
 648 283 648 283 647 283 c 256,243,244
 646 283 646 283 644 283 c 1,221,-1
475 23 m 2,245,246
 471 23 471 23 471 28 c 2,247,-1
 471 226 l 1,248,-1
 269 109 l 1,249,-1
 270 97 l 2,250,251
 270 94 270 94 270 92 c 0,252,253
 270 63 270 63 249 42 c 128,-1,254
 228 21 228 21 199 21 c 128,-1,255
 170 21 170 21 149 42 c 128,-1,256
 128 63 128 63 128 92 c 128,-1,257
 128 121 128 121 149 142 c 128,-1,258
 170 163 170 163 194 163 c 128,-1,259
 218 163 218 163 234 153 c 1,260,-1
 244 148 l 1,261,-1
 423 251 l 1,262,-1
 335 339 l 1,263,-1
 334 341 l 1,264,265
 329 343 329 343 327 348 c 1,266,-1
 327 512 l 1,267,-1
 191 591 l 1,268,-1
 180 584 l 2,269,270
 162 572 162 572 136.5 572 c 128,-1,271
 111 572 111 572 90.5 592.5 c 128,-1,272
 70 613 70 613 70 642.5 c 128,-1,273
 70 672 70 672 90.5 692.5 c 128,-1,274
 111 713 111 713 140.5 713 c 128,-1,275
 170 713 170 713 190.5 692.5 c 128,-1,276
 211 672 211 672 211 643 c 1,277,-1
 212 631 l 1,278,-1
 304 578 l 2,279,280
 319 569 319 569 343 586 c 2,281,-1
 612 765 l 1,282,-1
 679 766 l 1,283,-1
 951 586 l 2,284,285
 967 575 967 575 975.5 575 c 128,-1,286
 984 575 984 575 989 578 c 2,287,-1
 1082 631 l 1,288,-1
 1082 643 l 1,289,290
 1083 672 1083 672 1103.5 692.5 c 128,-1,291
 1124 713 1124 713 1153 713 c 128,-1,292
 1182 713 1182 713 1203 692.5 c 128,-1,293
 1224 672 1224 672 1224 642.5 c 128,-1,294
 1224 613 1224 613 1203 592.5 c 128,-1,295
 1182 572 1182 572 1156.5 572 c 128,-1,296
 1131 572 1131 572 1114 584 c 2,297,-1
 1103 591 l 1,298,-1
 966 512 l 1,299,-1
 966 348 l 2,300,301
 966 345 966 345 963 344 c 1,302,-1
 871 251 l 1,303,-1
 1050 148 l 1,304,-1
 1060 153 l 1,305,306
 1076 163 1076 163 1100 163 c 128,-1,307
 1124 163 1124 163 1144.5 142 c 128,-1,308
 1165 121 1165 121 1165 92 c 128,-1,309
 1165 63 1165 63 1144.5 42 c 128,-1,310
 1124 21 1124 21 1094.5 21 c 128,-1,311
 1065 21 1065 21 1044.5 42 c 128,-1,312
 1024 63 1024 63 1024 92 c 0,313,314
 1024 94 1024 94 1024 97 c 2,315,-1
 1025 109 l 1,316,-1
 823 226 l 1,317,-1
 823 28 l 2,318,319
 823 23 823 23 819 23 c 2,320,-1
 475 23 l 2,245,246
438 563 m 2,321,322
 431 566 431 566 422 567 c 1,323,-1
 421 567 l 2,324,325
 408 567 408 567 397.5 558 c 128,-1,326
 387 549 387 549 387 528 c 2,327,-1
 387 404 l 2,328,329
 387 380 387 380 403 377 c 128,-1,330
 419 374 419 374 426 374 c 128,-1,331
 433 374 433 374 441 377 c 2,332,-1
 613 429 l 2,333,334
 632 434 632 434 632 449.5 c 128,-1,335
 632 465 632 465 617 473 c 2,336,-1
 438 563 l 2,321,322
873 567 m 2,337,-1
 872 567 l 1,338,339
 863 566 863 566 856 563 c 2,340,-1
 677 473 l 2,341,342
 662 465 662 465 662 449.5 c 128,-1,343
 662 434 662 434 681 429 c 2,344,-1
 852 377 l 2,345,346
 860 374 860 374 867.5 374 c 128,-1,347
 875 374 875 374 883.5 375.5 c 128,-1,348
 892 377 892 377 899.5 384.5 c 128,-1,349
 907 392 907 392 907 404 c 2,350,-1
 907 528 l 2,351,352
 907 549 907 549 896.5 558 c 128,-1,353
 886 567 886 567 873 567 c 2,337,-1
673 410 m 1,354,-1
 663 420 l 2,355,356
 661 421 661 421 655 423.5 c 128,-1,357
 649 426 649 426 648 427 c 1,358,-1
 647 427 l 1,359,360
 638 426 638 426 634 423 c 2,361,-1
 620 410 l 1,362,-1
 578 297 l 1,363,364
 577 282 577 282 588 274 c 1,365,366
 611 267 611 267 632 264 c 1,367,-1
 647 263 l 1,368,-1
 662 264 l 1,369,370
 683 267 683 267 706 274 c 1,371,372
 715 281 715 281 716 294 c 1,373,-1
 716 297 l 1,374,-1
 673 410 l 1,354,-1
EndSplineSet
EndChar

StartChar: uniF009
Encoding: 61449 61449 205
Width: 1293
GlyphClass: 2
Flags: W
LayerCount: 2
Fore
SplineSet
690 782 m 1,0,-1
 962 603 l 2,1,2
 976 593 976 593 980 595 c 2,3,-1
 1062 643 l 1,4,5
 1063 680 1063 680 1089.5 706.5 c 128,-1,6
 1116 733 1116 733 1153.5 733 c 128,-1,7
 1191 733 1191 733 1217.5 706.5 c 128,-1,8
 1244 680 1244 680 1244 642.5 c 128,-1,9
 1244 605 1244 605 1217.5 578.5 c 128,-1,10
 1191 552 1191 552 1158 552 c 128,-1,11
 1125 552 1125 552 1102 567 c 1,12,-1
 986 500 l 1,13,-1
 986 348 l 2,14,15
 986 335 986 335 976 328 c 1,16,17
 975 326 975 326 973 325 c 2,18,-1
 903 255 l 1,19,-1
 1050 171 l 1,20,21
 1071 183 1071 183 1101.5 183 c 128,-1,22
 1132 183 1132 183 1158.5 156.5 c 128,-1,23
 1185 130 1185 130 1185 92 c 128,-1,24
 1185 54 1185 54 1158.5 27.5 c 128,-1,25
 1132 1 1132 1 1094.5 1 c 128,-1,26
 1057 1 1057 1 1030.5 27.5 c 128,-1,27
 1004 54 1004 54 1004 92 c 0,28,29
 1004 95 1004 95 1004 98 c 1,30,-1
 843 191 l 1,31,-1
 843 28 l 2,32,33
 843 18 843 18 836 10.5 c 128,-1,34
 829 3 829 3 819 3 c 2,35,-1
 475 3 l 2,36,37
 465 3 465 3 458 10.5 c 128,-1,38
 451 18 451 18 451 28 c 2,39,-1
 451 191 l 1,40,-1
 290 98 l 1,41,42
 290 95 290 95 290 92 c 0,43,44
 290 54 290 54 263.5 27.5 c 128,-1,45
 237 1 237 1 199.5 1 c 128,-1,46
 162 1 162 1 135 27.5 c 128,-1,47
 108 54 108 54 108 92 c 128,-1,48
 108 130 108 130 135 156.5 c 128,-1,49
 162 183 162 183 192.5 183 c 128,-1,50
 223 183 223 183 244 171 c 1,51,-1
 390 255 l 1,52,-1
 320 325 l 2,53,54
 319 326 319 326 318 328 c 1,55,56
 307 335 307 335 307 348 c 2,57,-1
 307 500 l 1,58,-1
 191 567 l 1,59,60
 168 552 168 552 135.5 552 c 128,-1,61
 103 552 103 552 76.5 578.5 c 128,-1,62
 50 605 50 605 50 642.5 c 128,-1,63
 50 680 50 680 76.5 706.5 c 128,-1,64
 103 733 103 733 140.5 733 c 128,-1,65
 178 733 178 733 204.5 706.5 c 128,-1,66
 231 680 231 680 231 643 c 1,67,-1
 314 595 l 2,68,69
 317 593 317 593 332 603 c 2,70,-1
 602 782 l 1,71,-1
 690 782 l 1,0,-1
421 547 m 0,72,73
 407 547 407 547 407 528 c 2,74,-1
 407 471 l 1,75,-1
 407 404 l 2,76,77
 407 396 407 396 417 394.5 c 128,-1,78
 427 393 427 393 435 396 c 2,79,-1
 512 418 l 1,80,-1
 607 448 l 1,81,82
 617 450 617 450 607 456 c 2,83,-1
 512 503 l 1,84,-1
 428 545 l 2,85,86
 426 547 426 547 421 547 c 0,72,73
872 547 m 0,87,88
 868 547 868 547 866 545 c 2,89,-1
 782 503 l 1,90,-1
 687 456 l 2,91,92
 677 450 677 450 687 448 c 1,93,-1
 782 418 l 1,94,-1
 859 396 l 2,95,96
 867 393 867 393 877 394.5 c 128,-1,97
 887 396 887 396 887 404 c 2,98,-1
 887 471 l 1,99,-1
 887 528 l 2,100,101
 887 547 887 547 872 547 c 0,87,88
656 399 m 1,102,103
 650 406 650 406 647 406 c 128,-1,104
 644 406 644 406 638 399 c 1,105,-1
 598 294 l 2,106,107
 598 293 598 293 599 292 c 0,108,109
 618 286 618 286 634 284 c 1,110,-1
 642 307 l 1,111,112
 645 309 645 309 645 306 c 2,113,-1
 645 295 l 2,114,115
 645 293 645 293 647 293 c 128,-1,116
 649 293 649 293 649 295 c 2,117,-1
 649 306 l 2,118,119
 649 309 649 309 651 307 c 1,120,-1
 660 284 l 1,121,122
 676 286 676 286 695 292 c 0,123,124
 696 293 696 293 696 294 c 2,125,-1
 656 399 l 1,102,103
1103 579 m 1,126,127
 1124 562 1124 562 1155 562 c 128,-1,128
 1186 562 1186 562 1210 585.5 c 128,-1,129
 1234 609 1234 609 1234 642.5 c 128,-1,130
 1234 676 1234 676 1210 699.5 c 128,-1,131
 1186 723 1186 723 1153 723 c 128,-1,132
 1120 723 1120 723 1095.5 699 c 128,-1,133
 1071 675 1071 675 1072 637 c 1,134,-1
 985 587 l 2,135,136
 982 585 982 585 976.5 585 c 128,-1,137
 971 585 971 585 956 595 c 2,138,-1
 685 774 l 1,139,-1
 607 774 l 1,140,-1
 337 595 l 2,141,142
 323 585 323 585 317.5 585 c 128,-1,143
 312 585 312 585 309 587 c 2,144,-1
 222 637 l 1,145,146
 223 675 223 675 198.5 699 c 128,-1,147
 174 723 174 723 140.5 723 c 128,-1,148
 107 723 107 723 83.5 699.5 c 128,-1,149
 60 676 60 676 60 642.5 c 128,-1,150
 60 609 60 609 83.5 585.5 c 128,-1,151
 107 562 107 562 138.5 562 c 128,-1,152
 170 562 170 562 191 579 c 1,153,-1
 317 506 l 1,154,-1
 317 348 l 2,155,156
 317 341 317 341 321 338 c 2,157,-1
 407 253 l 1,158,-1
 244 159 l 1,159,160
 225 172 225 172 195.5 172.5 c 128,-1,161
 166 173 166 173 142 149 c 128,-1,162
 118 125 118 125 118 92 c 128,-1,163
 118 59 118 59 142 35 c 128,-1,164
 166 11 166 11 199.5 11 c 128,-1,165
 233 11 233 11 256.5 35 c 128,-1,166
 280 59 280 59 280 92 c 1,167,-1
 279 104 l 1,168,-1
 461 208 l 1,169,-1
 461 28 l 2,170,171
 461 22 461 22 465 17.5 c 128,-1,172
 469 13 469 13 475 13 c 2,173,-1
 819 13 l 2,174,175
 825 13 825 13 829 17.5 c 128,-1,176
 833 22 833 22 833 28 c 2,177,-1
 833 208 l 1,178,-1
 1014 104 l 1,179,-1
 1014 92 l 2,180,181
 1014 59 1014 59 1037.5 35 c 128,-1,182
 1061 11 1061 11 1094.5 11 c 128,-1,183
 1128 11 1128 11 1151.5 35 c 128,-1,184
 1175 59 1175 59 1175 92 c 128,-1,185
 1175 125 1175 125 1151.5 149 c 128,-1,186
 1128 173 1128 173 1098.5 172.5 c 128,-1,187
 1069 172 1069 172 1050 159 c 1,188,-1
 887 253 l 1,189,-1
 966 332 l 1,190,-1
 969 336 l 1,191,192
 976 340 976 340 976 348 c 2,193,-1
 976 506 l 1,194,-1
 1103 579 l 1,126,127
433 554 m 2,195,-1
 612 465 l 2,196,197
 622 459 622 459 622 451 c 1,198,199
 620 448 620 448 619 445 c 0,200,201
 617 441 617 441 613 439 c 0,202,203
 611 439 611 439 610 438 c 2,204,-1
 515 409 l 1,205,-1
 438 386 l 2,206,207
 432 384 432 384 424 384 c 0,208,209
 419 384 419 384 415 384.5 c 128,-1,210
 411 385 411 385 409 386 c 0,211,212
 397 391 397 391 397 404 c 2,213,-1
 397 528 l 2,214,215
 397 557 397 557 422 557 c 1,216,217
 428 556 428 556 430 555 c 0,218,219
 432 555 432 555 433 554 c 2,195,-1
873 557 m 2,220,221
 897 557 897 557 897 528 c 2,222,-1
 897 404 l 1,223,224
 895 390 895 390 885 386 c 0,225,226
 882 385 882 385 878 384.5 c 128,-1,227
 874 384 874 384 870 384 c 0,228,229
 862 384 862 384 855 386 c 2,230,-1
 779 409 l 1,231,-1
 684 438 l 2,232,233
 676 441 676 441 674 445 c 0,234,235
 672 448 672 448 672 451 c 0,236,237
 672 459 672 459 682 465 c 2,238,-1
 861 554 l 2,239,240
 867 556 867 556 869 556 c 0,241,242
 871 557 871 557 872 557 c 2,243,-1
 873 557 l 2,220,221
644 283 m 1,244,-1
 641 273 l 1,245,246
 617 275 617 275 593 283 c 1,247,248
 588 287 588 287 588 294 c 2,249,-1
 588 296 l 1,250,-1
 629 405 l 1,251,-1
 639 414 l 2,252,253
 642 416 642 416 646 417 c 1,254,-1
 647 417 l 1,255,256
 658 413 658 413 665 405 c 1,257,-1
 706 296 l 1,258,-1
 706 294 l 1,259,260
 705 287 705 287 700 283 c 1,261,262
 677 275 677 275 653 273 c 1,263,-1
 650 283 l 1,264,265
 648 283 648 283 647 283 c 256,266,267
 646 283 646 283 644 283 c 1,244,-1
EndSplineSet
EndChar

StartChar: uniF00B
Encoding: 61451 61451 206
Width: 200
GlyphClass: 2
Flags: W
LayerCount: 2
Fore
SplineSet
50 450 m 2,0,-1
 50 1000 l 1,1,-1
 150 1000 l 1,2,-1
 150 450 l 2,3,4
 150 400 150 400 100 400 c 128,-1,5
 50 400 50 400 50 450 c 2,0,-1
EndSplineSet
EndChar

StartChar: uniF00C
Encoding: 61452 61452 207
Width: 300
GlyphClass: 2
Flags: W
LayerCount: 2
Fore
SplineSet
50 550 m 5,0,-1
 50 800 l 1,1,-1
 250 800 l 1,2,-1
 250 550 l 5,3,4
 50 550 l 5,0,-1
EndSplineSet
EndChar

StartChar: NameMe.210
Encoding: 1114133 -1 208
Width: 900
Flags: W
HStem: 400 200<300 850>
LayerCount: 2
Fore
SplineSet
300 600 m 1,0,-1
 850 600 l 1,1,-1
 850 400 l 1,2,-1
 300 400 l 1,3,4
 297 594 297 594 300 600 c 1,0,-1
250 800 m 1,5,-1
 50 800 l 1,6,-1
 50 300 l 2,7,8
 50 0 50 0 350 0 c 2,9,-1
 850 0 l 1,10,-1
 850 200 l 1,11,-1
 350 200 l 2,12,13
 250 200 250 200 250 300 c 2,14,-1
 250 400 l 1,15,-1
 250 800 l 1,5,-1
EndSplineSet
EndChar

StartChar: NameMe.211
Encoding: 1114134 -1 209
Width: 900
Flags: W
HStem: 0 21G<650 850> 0 21G<650 850> 150 200<314.062 650> 780 20G<50 250 650 850> 780 20G<50 250 650 850>
VStem: 50 200<396.387 800> 650 200<0 150 350 800>
LayerCount: 2
Fore
SplineSet
450 350 m 2,0,-1
 650 350 l 1,1,-1
 650 800 l 1,2,-1
 850 800 l 1,3,-1
 850 0 l 1,4,-1
 650 0 l 1,5,-1
 650 150 l 5,6,-1
 450 150 l 2,7,8
 50 150 50 150 50 450 c 2,9,-1
 50 800 l 1,10,-1
 250 800 l 1,11,-1
 250 450 l 2,12,13
 250 350 250 350 450 350 c 2,0,-1
EndSplineSet
EndChar

StartChar: NameMe.212
Encoding: 1114135 -1 210
Width: 900
Flags: W
HStem: 0 21G<450 650> 0 21G<450 650> 200 200<279.907 450 650 850> 780 20G<50 250> 780 20G<50 250>
VStem: 50 200<437.964 800> 450 200<0 200 400 600>
LayerCount: 2
Fore
SplineSet
50 800 m 1,0,-1
 250 800 l 1,1,-1
 250 506 l 2,2,3
 250 400 250 400 350 400 c 2,4,-1
 450 400 l 1,5,-1
 450 600 l 1,6,-1
 650 600 l 1,7,-1
 650 400 l 1,8,-1
 850 400 l 1,9,-1
 850 200 l 1,10,-1
 650 200 l 1,11,-1
 650 0 l 1,12,-1
 450 0 l 1,13,-1
 450 200 l 1,14,-1
 350 200 l 2,15,16
 50 200 50 200 50 500 c 2,17,-1
 50 800 l 1,0,-1
EndSplineSet
EndChar

StartChar: NameMe.213
Encoding: 1114136 -1 211
Width: 900
Flags: W
HStem: 0 200<250 412.036> 400 200<250 450 650 850> 780 20G<450 650> 780 20G<450 650>
VStem: 450 200<229.907 400 600 800>
LayerCount: 2
Fore
SplineSet
250 0 m 1,0,-1
 250 200 l 1,1,-1
 344 200 l 2,2,3
 450 200 450 200 450 300 c 6,4,-1
 450 400 l 1,5,-1
 250 400 l 1,6,-1
 250 600 l 1,7,-1
 450 600 l 1,8,-1
 450 800 l 1,9,-1
 650 800 l 1,10,-1
 650 600 l 1,11,-1
 850 600 l 1,12,-1
 850 400 l 1,13,-1
 650 400 l 1,14,-1
 650 300 l 6,15,16
 650 0 650 0 350 0 c 2,17,-1
 250 0 l 1,0,-1
EndSplineSet
EndChar

StartChar: NameMe.214
Encoding: 1114137 -1 212
Width: 900
Flags: W
HStem: 0 200<250 385.938> 400 200<250 450 650 850> 780 20G<450 650> 780 20G<450 650>
VStem: 450 200<246.387 400 600 800>
LayerCount: 2
Fore
SplineSet
250 0 m 1,0,-1
 250 200 l 1,1,2
 450 200 450 200 450 300 c 2,3,-1
 450 400 l 1,4,-1
 250 400 l 1,5,-1
 250 600 l 1,6,-1
 450 600 l 1,7,-1
 450 800 l 1,8,-1
 650 800 l 1,9,-1
 650 600 l 1,10,-1
 850 600 l 1,11,-1
 850 400 l 1,12,-1
 650 400 l 1,13,-1
 650 300 l 2,14,15
 650 0 650 0 250 0 c 1,0,-1
EndSplineSet
EndChar

StartChar: NameMe.215
Encoding: 1114138 -1 213
Width: 700
Flags: W
HStem: 0 21G<250 450> 0 21G<250 450> 200 200<50 250 450 650> 600 200<514.062 650>
VStem: 250 200<0 200 400 553.613>
LayerCount: 2
Fore
SplineSet
650 800 m 1,0,-1
 650 600 l 1,1,2
 450 600 450 600 450 500 c 2,3,-1
 450 400 l 1,4,-1
 650 400 l 1,5,-1
 650 200 l 1,6,-1
 450 200 l 1,7,-1
 450 0 l 1,8,-1
 250 0 l 1,9,-1
 250 200 l 1,10,-1
 50 200 l 1,11,-1
 50 400 l 1,12,-1
 250 400 l 1,13,-1
 250 500 l 2,14,15
 250 800 250 800 650 800 c 1,0,-1
EndSplineSet
EndChar

StartChar: NameMe.216
Encoding: 1114139 -1 214
Width: 900
Flags: W
HStem: 0 21G<450 650> 0 21G<450 650> 200 200<296.387 450 650 850> 780 20G<50 250> 780 20G<50 250>
VStem: 50 200<449.17 800> 450 200<0 200 400 600>
LayerCount: 2
Fore
SplineSet
50 800 m 1,0,-1
 250 800 l 1,1,-1
 250 556 l 2,2,3
 250 400 250 400 350 400 c 2,4,-1
 450 400 l 1,5,-1
 450 600 l 1,6,-1
 650 600 l 1,7,-1
 650 400 l 1,8,-1
 850 400 l 1,9,-1
 850 200 l 1,10,-1
 650 200 l 1,11,-1
 650 0 l 1,12,-1
 450 0 l 1,13,-1
 450 200 l 1,14,-1
 350 200 l 2,15,16
 50 200 50 200 50 550 c 2,17,-1
 50 800 l 1,0,-1
EndSplineSet
EndChar

StartChar: NameMe.217
Encoding: 1114140 -1 215
Width: 500
Flags: W
HStem: 0 200<50 185.938> 600 200<288.024 411.976>
VStem: 250 200<246.387 550 638.024 761.976>
LayerCount: 2
Fore
SplineSet
450 300 m 2,0,1
 450 0 450 0 50 0 c 1,2,-1
 50 200 l 1,3,4
 250 200 250 200 250 300 c 6,5,-1
 250 550 l 1,6,-1
 450 550 l 1,7,-1
 450 300 l 2,0,1
279.5 629.5 m 128,-1,9
 250 659 250 659 250 700 c 128,-1,10
 250 741 250 741 279.5 770.5 c 128,-1,11
 309 800 309 800 350 800 c 128,-1,12
 391 800 391 800 420.5 770.5 c 128,-1,13
 450 741 450 741 450 700 c 128,-1,14
 450 659 450 659 420.5 629.5 c 128,-1,15
 391 600 391 600 350 600 c 128,-1,8
 309 600 309 600 279.5 629.5 c 128,-1,9
EndSplineSet
EndChar

StartChar: NameMe.218
Encoding: 1114141 -1 216
Width: 800
Flags: W
HStem: 0 21G<50 250 550 750> 0 21G<50 250 550 750> 200 200<250 504.858> 780 20G<50 250> 780 20G<50 250>
VStem: 50 200<0 200 400 800> 550 200<0 169.805 461.337 600>
LayerCount: 2
Fore
SplineSet
450 200 m 2,0,-1
 250 200 l 1,1,-1
 250 0 l 1,2,-1
 50 0 l 1,3,-1
 50 600 l 1,4,-1
 250 600 l 1,5,-1
 250 400 l 1,6,-1
 450 400 l 2,7,8
 550 400 550 400 550 600 c 1,9,-1
 750 600 l 1,10,11
 750 382 750 382 650 300 c 1,12,13
 750 217 750 217 750 0 c 1,14,-1
 550 0 l 1,15,16
 550 200 550 200 450 200 c 2,0,-1
EndSplineSet
EndChar

StartChar: NameMe.219
Encoding: 1114142 -1 217
Width: 800
Flags: W
HStem: 0 21G<50 250 550 750> 0 21G<50 250 550 750> 200 200<250 521.777> 780 20G<50 250> 780 20G<50 250>
VStem: 50 200<0 200 400 800> 550 200<0 169.805 430.195 600>
LayerCount: 2
Fore
SplineSet
450 200 m 2,0,-1
 250 200 l 1,1,-1
 250 0 l 1,2,-1
 50 0 l 1,3,-1
 50 800 l 1,4,-1
 250 800 l 1,5,-1
 250 400 l 1,6,-1
 450 400 l 2,7,8
 550 400 550 400 550 500 c 6,9,-1
 550 600 l 1,10,-1
 750 600 l 1,11,-1
 750 500 l 6,12,13
 750 383 750 383 650 300 c 1,14,15
 750 217 750 217 750 100 c 2,16,-1
 750 0 l 1,17,-1
 550 0 l 1,18,-1
 550 100 l 2,19,20
 550 200 550 200 450 200 c 2,0,-1
EndSplineSet
EndChar

StartChar: NameMe.220
Encoding: 1114143 -1 218
Width: 1200
Flags: W
HStem: 0 200<299.17 900.83> 400 200<299.17 900> 780 20G<950 1150> 780 20G<950 1150>
VStem: 50 200<242.725 357.275> 950 200<246.387 800>
LayerCount: 2
Fore
SplineSet
400 600 m 6,0,-1
 900 600 l 5,1,-1
 900 400 l 5,2,-1
 400 400 l 6,3,4
 250 400 250 400 250 300 c 132,-1,5
 250 200 250 200 400 200 c 6,6,-1
 800 200 l 6,7,8
 950 200 950 200 950 300 c 6,9,-1
 950 800 l 5,10,-1
 1150 800 l 5,11,-1
 1150 300 l 6,12,13
 1150 0 1150 0 800 0 c 6,14,-1
 400 0 l 6,15,16
 50 0 50 0 50 300 c 132,-1,17
 50 600 50 600 400 600 c 6,0,-1
EndSplineSet
EndChar

StartChar: NameMe.221
Encoding: 1114144 -1 219
Width: 1200
Flags: W
HStem: 0 200<279.688 920.312> 400 200<279.688 900> 780 20G<950 1150> 780 20G<950 1150>
VStem: 50 200<228.955 371.045> 950 200<229.688 800>
LayerCount: 2
Fore
SplineSet
350 600 m 2,0,-1
 900 600 l 1,1,-1
 900 400 l 1,2,-1
 350 400 l 2,3,4
 250 400 250 400 250 300 c 128,-1,5
 250 200 250 200 350 200 c 2,6,-1
 850 200 l 6,7,8
 950 200 950 200 950 300 c 2,9,-1
 950 800 l 1,10,-1
 1150 800 l 1,11,-1
 1150 300 l 2,12,13
 1150 0 1150 0 850 0 c 6,14,-1
 350 0 l 2,15,16
 50 0 50 0 50 300 c 128,-1,17
 50 600 50 600 350 600 c 2,0,-1
EndSplineSet
EndChar

StartChar: NameMe.222
Encoding: 1114145 -1 220
Width: 500
Flags: W
LayerCount: 2
Fore
SplineSet
50 800 m 1,0,-1
 250 800 l 1,1,-1
 250 300 l 2,2,3
 250 200 250 200 450 200 c 1,4,-1
 450 0 l 1,5,6
 50 0 50 0 50 300 c 2,7,-1
 50 800 l 1,0,-1
EndSplineSet
EndChar

StartChar: NameMe.223
Encoding: 1114146 -1 221
Width: 500
Flags: W
LayerCount: 2
Fore
SplineSet
50 800 m 5,0,-1
 250 800 l 5,1,-1
 250 300 l 6,2,3
 250 200 250 200 350 200 c 6,4,-1
 450 200 l 5,5,-1
 450 0 l 5,6,-1
 350 0 l 6,7,8
 50 0 50 0 50 300 c 6,9,-1
 50 800 l 5,0,-1
EndSplineSet
EndChar

StartChar: NameMe.224
Encoding: 1114147 -1 222
Width: 500
Flags: W
HStem: 0 200<50 220.312> 600 200<288.024 411.976>
VStem: 250 200<229.688 550 638.024 761.976>
LayerCount: 2
Fore
SplineSet
450 300 m 2,0,1
 450 0 450 0 50 0 c 1,2,-1
 50 200 l 1,3,4
 250 200 250 200 250 300 c 6,5,-1
 250 550 l 1,6,-1
 450 550 l 1,7,-1
 450 300 l 2,0,1
279.5 629.5 m 128,-1,9
 250 659 250 659 250 700 c 128,-1,10
 250 741 250 741 279.5 770.5 c 128,-1,11
 309 800 309 800 350 800 c 128,-1,12
 391 800 391 800 420.5 770.5 c 128,-1,13
 450 741 450 741 450 700 c 128,-1,14
 450 659 450 659 420.5 629.5 c 128,-1,15
 391 600 391 600 350 600 c 128,-1,8
 309 600 309 600 279.5 629.5 c 128,-1,9
EndSplineSet
EndChar

StartChar: NameMe.225
Encoding: 1114148 -1 223
Width: 700
Flags: W
LayerCount: 2
Fore
SplineSet
650 300 m 2,0,1
 650 0 650 0 250 0 c 2,2,-1
 50 0 l 1,3,-1
 50 200 l 1,4,-1
 250 200 l 2,5,6
 450 200 450 200 450 300 c 2,7,-1
 450 550 l 1,8,-1
 650 550 l 1,9,-1
 650 300 l 2,0,1
479.5 629.5 m 128,-1,11
 450 659 450 659 450 700 c 128,-1,12
 450 741 450 741 479.5 770.5 c 128,-1,13
 509 800 509 800 550 800 c 128,-1,14
 591 800 591 800 620.5 770.5 c 128,-1,15
 650 741 650 741 650 700 c 128,-1,16
 650 659 650 659 620.5 629.5 c 128,-1,17
 591 600 591 600 550 600 c 128,-1,10
 509 600 509 600 479.5 629.5 c 128,-1,11
EndSplineSet
EndChar

StartChar: NameMe.226
Encoding: 1114149 -1 224
Width: 800
Flags: W
LayerCount: 2
Fore
SplineSet
750 300 m 2,0,1
 750 0 750 0 450 0 c 2,2,-1
 50 0 l 1,3,-1
 50 200 l 1,4,-1
 450 200 l 2,5,6
 550 200 550 200 550 300 c 2,7,-1
 550 550 l 1,8,-1
 750 550 l 1,9,-1
 750 300 l 2,0,1
579.5 629.5 m 128,-1,11
 550 659 550 659 550 700 c 128,-1,12
 550 741 550 741 579.5 770.5 c 128,-1,13
 609 800 609 800 650 800 c 128,-1,14
 691 800 691 800 720.5 770.5 c 128,-1,15
 750 741 750 741 750 700 c 128,-1,16
 750 659 750 659 720.5 629.5 c 128,-1,17
 691 600 691 600 650 600 c 128,-1,10
 609 600 609 600 579.5 629.5 c 128,-1,11
EndSplineSet
EndChar

StartChar: NameMe.227
Encoding: 1114150 -1 225
Width: 800
Flags: W
LayerCount: 2
Fore
SplineSet
250 300 m 1,0,1
 250 0 l 1,2,-1
 50 0 l 1,3,-1
 50 800 l 1,4,-1
 250 800 l 1,5,6
 250 500 l 1,7,8
 650 500 650 500 650 200 c 2,9,-1
 650 0 l 1,10,-1
 450 0 l 1,11,-1
 450 200 l 2,12,13
 450 300 450 300 250 300 c 1,0,1
EndSplineSet
EndChar

StartChar: NameMe.229
Encoding: 1114152 -1 227
Width: 1000
Flags: W
LayerCount: 2
Fore
SplineSet
50 500 m 128,-1,1
 50 800 50 800 400 800 c 2,2,-1
 550 800 l 2,3,4
 850 800 850 800 850 500 c 2,5,-1
 850 350 l 2,6,7
 850 200 850 200 950 200 c 1,8,-1
 950 0 l 1,9,10
 650 0 650 0 650 350 c 2,11,-1
 650 500 l 2,12,13
 650 600 650 600 550 600 c 2,14,-1
 400 600 l 2,15,16
 250 600 250 600 250 500 c 128,-1,17
 250 400 250 400 400 400 c 2,18,-1
 600 400 l 1,19,-1
 600 200 l 1,20,-1
 400 200 l 2,21,0
 50 200 50 200 50 500 c 128,-1,1
EndSplineSet
EndChar

StartChar: NameMe.230
Encoding: 1114153 -1 228
Width: 1000
Flags: W
LayerCount: 2
Fore
SplineSet
50 500 m 128,-1,1
 50 800 50 800 400 800 c 2,2,-1
 550 800 l 2,3,4
 850 800 850 800 850 500 c 2,5,-1
 850 350 l 2,6,7
 850 200 850 200 950 200 c 1,8,-1
 950 0 l 1,9,10
 650 0 650 0 650 350 c 2,11,-1
 650 500 l 2,12,13
 650 600 650 600 550 600 c 2,14,-1
 400 600 l 2,15,16
 250 600 250 600 250 500 c 128,-1,17
 250 400 250 400 400 400 c 2,18,-1
 600 400 l 1,19,-1
 600 200 l 1,20,-1
 400 200 l 2,21,0
 50 200 50 200 50 500 c 128,-1,1
EndSplineSet
EndChar

StartChar: NameMe.231
Encoding: 1114154 -1 229
Width: 500
Flags: W
LayerCount: 2
Fore
SplineSet
50 200 m 1,0,1
 150 200 150 200 150 300 c 0,2,3
 150 380 150 380 200 380 c 0,4,5
 220 380 220 380 220 400 c 128,-1,6
 220 420 220 420 200 420 c 0,7,8
 150 420 150 420 150 500 c 0,9,10
 150 600 150 600 50 600 c 1,11,-1
 50 800 l 1,12,-1
 150 800 l 2,13,14
 350 800 350 800 350 600 c 0,15,16
 350 500 350 500 400 500 c 128,-1,17
 450 500 450 500 450 400 c 128,-1,18
 450 300 450 300 400 300 c 128,-1,19
 350 300 350 300 350 200 c 0,20,21
 350 0 350 0 150 0 c 6,22,-1
 50 0 l 1,23,-1
 50 200 l 1,0,1
EndSplineSet
EndChar

StartChar: NameMe.232
Encoding: 1114155 -1 230
Width: 500
Flags: W
LayerCount: 2
Fore
SplineSet
50 200 m 1,0,1
 150 200 150 200 150 300 c 0,2,3
 150 380 150 380 200 380 c 0,4,5
 220 380 220 380 220 400 c 128,-1,6
 220 420 220 420 200 420 c 0,7,8
 150 420 150 420 150 500 c 0,9,10
 150 600 150 600 50 600 c 1,11,-1
 50 800 l 1,12,-1
 150 800 l 2,13,14
 350 800 350 800 350 600 c 0,15,16
 350 500 350 500 400 500 c 128,-1,17
 450 500 450 500 450 400 c 128,-1,18
 450 300 450 300 400 300 c 128,-1,19
 350 300 350 300 350 200 c 0,20,21
 350 0 350 0 150 0 c 2,22,-1
 50 0 l 1,23,-1
 50 200 l 1,0,1
EndSplineSet
EndChar

StartChar: NameMe.233
Encoding: 1114156 -1 231
Width: 500
Flags: W
LayerCount: 2
Fore
SplineSet
50 200 m 1,0,1
 150 200 150 200 150 300 c 0,2,3
 150 380 150 380 200 380 c 0,4,5
 220 380 220 380 220 400 c 128,-1,6
 220 420 220 420 200 420 c 0,7,8
 150 420 150 420 150 500 c 0,9,10
 150 600 150 600 50 600 c 1,11,-1
 50 800 l 1,12,-1
 150 800 l 6,13,14
 350 800 350 800 350 600 c 2,15,-1
 350 550 l 2,16,17
 350 500 350 500 400 500 c 128,-1,18
 450 500 450 500 450 400 c 128,-1,19
 450 300 450 300 400 300 c 128,-1,20
 350 300 350 300 350 250 c 2,21,-1
 350 200 l 2,22,23
 350 0 350 0 150 0 c 6,24,-1
 50 0 l 1,25,-1
 50 200 l 1,0,1
EndSplineSet
EndChar

StartChar: NameMe.234
Encoding: 1114157 -1 232
Width: 500
Flags: W
LayerCount: 2
Fore
SplineSet
450 0 m 1,0,-1
 350 0 l 2,1,2
 150 0 150 0 150 250 c 0,3,4
 150 300 150 300 100 300 c 128,-1,5
 50 300 50 300 50 400 c 128,-1,6
 50 500 50 500 100 500 c 128,-1,7
 150 500 150 500 150 550 c 0,8,9
 150 800 150 800 350 800 c 2,10,-1
 450 800 l 1,11,-1
 450 600 l 1,12,13
 350 600 350 600 350 500 c 0,14,15
 350 420 350 420 300 420 c 0,16,17
 280 420 280 420 280 400 c 128,-1,18
 280 380 280 380 300 380 c 0,19,20
 350 380 350 380 350 300 c 0,21,22
 350 200 350 200 450 200 c 1,23,-1
 450 0 l 1,0,-1
EndSplineSet
EndChar

StartChar: NameMe.235
Encoding: 1114158 -1 233
Width: 500
Flags: W
LayerCount: 2
Fore
SplineSet
450 0 m 1,0,-1
 350 0 l 2,1,2
 150 0 150 0 150 200 c 6,3,-1
 150 250 l 2,4,5
 150 300 150 300 100 300 c 128,-1,6
 50 300 50 300 50 400 c 128,-1,7
 50 500 50 500 100 500 c 128,-1,8
 150 500 150 500 150 550 c 2,9,-1
 150 600 l 6,10,11
 150 800 150 800 350 800 c 2,12,-1
 450 800 l 1,13,-1
 450 600 l 1,14,15
 350 600 350 600 350 500 c 0,16,17
 350 420 350 420 300 420 c 0,18,19
 280 420 280 420 280 400 c 128,-1,20
 280 380 280 380 300 380 c 0,21,22
 350 380 350 380 350 300 c 0,23,24
 350 200 350 200 450 200 c 1,25,-1
 450 0 l 1,0,-1
EndSplineSet
EndChar

StartChar: NameMe.236
Encoding: 1114159 -1 234
Width: 1000
Flags: W
LayerCount: 2
Fore
SplineSet
267.219 250 m 1,0,1
 53.0332 250 l 1,2,3
 85 500 85 500 450 500 c 2,4,-1
 700 500 l 2,5,6
 750 500 750 500 750 550 c 128,-1,7
 750 600 750 600 700 600 c 2,8,-1
 50 600 l 1,9,-1
 50 800 l 1,10,-1
 650 800 l 2,11,12
 950 800 950 800 950 548.5 c 0,13,14
 950 300 950 300 650 300 c 2,15,-1
 450 300 l 2,16,17
 309 300 309 300 267.219 250 c 1,0,1
220.5 170.5 m 128,-1,19
 250 141 250 141 250 100 c 128,-1,20
 250 59 250 59 220.5 29.5 c 128,-1,21
 191 0 191 0 150 0 c 128,-1,22
 109 0 109 0 79.5 29.5 c 128,-1,23
 50 59 50 59 50 100 c 128,-1,24
 50 141 50 141 79.5 170.5 c 128,-1,25
 109 200 109 200 150 200 c 128,-1,18
 191 200 191 200 220.5 170.5 c 128,-1,19
EndSplineSet
EndChar

StartChar: AMP.237
Encoding: 1114160 -1 235
Width: 1150
Flags: W
HStem: 0 200<296.387 768.741> 250 200<505.908 791> 500 200<500 644.092 1012.46 1100> 800 200<505.383 644.092>
VStem: 50 200<245.752 462.016> 300 200<461.816 491 700 787.537> 650 200<709.186 790.814> 900 200<0 130.623>
LayerCount: 2
Fore
SplineSet
500 1000 m 2,0,-1
 650 1000 l 2,1,2
 850 1000 850 1000 850 750 c 130,-1,3
 850 500 850 500 650 500 c 2,4,-1
 500 500 l 1,5,6
 500 450 500 450 550 450 c 2,7,-1
 800 450 l 1,8,9
 800 700 800 700 1050 700 c 2,10,-1
 1100 700 l 1,11,-1
 1100 500 l 1,12,-1
 1050 500 l 2,13,14
 1000 500 1000 500 1000 450 c 2,15,-1
 1000 445 l 1,16,17
 1100 422 1100 422 1100 200 c 2,18,-1
 1100 0 l 1,19,-1
 900 0 l 1,20,-1
 900 100 l 2,21,22
 900 119 900 119 893 131 c 1,23,24
 862 0 862 0 700 0 c 2,25,-1
 350 0 l 2,26,27
 50 0 50 0 50 350 c 0,28,29
 50 696 50 696 300 696 c 1,30,-1
 300 750 l 2,31,32
 300 1000 300 1000 500 1000 c 2,0,-1
550 800 m 2,33,34
 500 800 500 800 500 753 c 0,35,36
 500 752 500 752 500 750 c 2,37,-1
 500 700 l 1,38,-1
 600 700 l 2,39,40
 650 700 650 700 650 750 c 130,-1,41
 650 800 650 800 600 800 c 2,42,-1
 550 800 l 2,33,34
300 491 m 1,43,44
 250 471 250 471 250 350 c 0,45,46
 250 200 250 200 350 200 c 2,47,-1
 700 200 l 2,48,49
 771 200 771 200 791 250 c 1,50,-1
 500 250 l 2,51,52
 306 250 306 250 300 491 c 1,43,44
EndSplineSet
EndChar

StartChar: NameMe.238
Encoding: 1114161 -1 236
Width: 1000
Flags: W
HStem: 0 200<50 703.613> 300 200<262.463 650> 600 200<262.463 703.613>
VStem: 50 200<509.186 590.814> 750 200<256.445 543.555>
CounterMasks: 1 e0
LayerCount: 2
Fore
SplineSet
300 800 m 2,0,-1
 650 800 l 2,1,2
 950 800 950 800 950 550 c 2,3,-1
 950 251 l 2,4,5
 950 0 950 0 650 0 c 2,6,-1
 50 0 l 1,7,-1
 50 200 l 1,8,-1
 650 200 l 2,9,10
 750 200 750 200 750 400 c 128,-1,11
 750 600 750 600 650 600 c 2,12,-1
 300 600 l 2,13,14
 250 600 250 600 250 550 c 128,-1,15
 250 500 250 500 300 500 c 2,16,-1
 650 500 l 1,17,-1
 650 300 l 1,18,-1
 300 300 l 2,19,20
 50 300 50 300 50 550 c 128,-1,21
 50 800 50 800 300 800 c 2,0,-1
EndSplineSet
EndChar

StartChar: NameMe.239
Encoding: 1114162 -1 237
Width: 1000
Flags: W
HStem: 0 200<350 703.613> 300 200<262.463 650> 600 200<262.463 703.613>
VStem: 50 200<509.186 590.814> 750 200<256.445 543.555>
CounterMasks: 1 e0
LayerCount: 2
Fore
SplineSet
300 800 m 2,0,-1
 650 800 l 2,1,2
 950 800 950 800 950 550 c 2,3,-1
 950 251 l 2,4,5
 950 0 950 0 650 0 c 2,6,-1
 350 0 l 5,7,-1
 350 200 l 5,8,-1
 650 200 l 2,9,10
 750 200 750 200 750 400 c 128,-1,11
 750 600 750 600 650 600 c 2,12,-1
 300 600 l 2,13,14
 250 600 250 600 250 550 c 128,-1,15
 250 500 250 500 300 500 c 2,16,-1
 650 500 l 1,17,-1
 650 300 l 1,18,-1
 300 300 l 2,19,20
 50 300 50 300 50 550 c 128,-1,21
 50 800 50 800 300 800 c 2,0,-1
EndSplineSet
EndChar

StartChar: NameMe.240
Encoding: 1114163 -1 238
Width: 1200
Flags: W
HStem: 0 200<50 903.613> 300 200<262.463 850> 600 200<262.463 903.613>
VStem: 50 200<509.186 590.814> 950 200<260.254 539.746>
CounterMasks: 1 e0
LayerCount: 2
Fore
SplineSet
300 800 m 2,0,-1
 850 800 l 2,1,2
 1150 800 1150 800 1150 400 c 128,-1,3
 1150 0 1150 0 850 0 c 2,4,-1
 50 0 l 5,5,-1
 50 200 l 5,6,-1
 850 200 l 2,7,8
 950 200 950 200 950 400 c 128,-1,9
 950 600 950 600 850 600 c 2,10,-1
 300 600 l 2,11,12
 250 600 250 600 250 550 c 128,-1,13
 250 500 250 500 300 500 c 2,14,-1
 850 500 l 1,15,-1
 850 300 l 1,16,-1
 300 300 l 2,17,18
 50 300 50 300 50 550 c 128,-1,19
 50 800 50 800 300 800 c 2,0,-1
EndSplineSet
EndChar

StartChar: NameMe.241
Encoding: 1114164 -1 239
Width: 850
Flags: W
HStem: 0 200<50 553.613> 300 200<262.463 500> 600 200<262.463 553.613>
VStem: 50 200<509.186 590.814> 600 200<260.254 539.746>
CounterMasks: 1 e0
LayerCount: 2
Fore
SplineSet
300 800 m 2,0,-1
 500 800 l 2,1,2
 800 800 800 800 800 400 c 128,-1,3
 800 0 800 0 500 0 c 2,4,-1
 50 0 l 1,5,-1
 50 200 l 1,6,-1
 500 200 l 2,7,8
 600 200 600 200 600 400 c 128,-1,9
 600 600 600 600 500 600 c 2,10,-1
 300 600 l 2,11,12
 250 600 250 600 250 550 c 128,-1,13
 250 500 250 500 300 500 c 2,14,-1
 500 500 l 1,15,-1
 500 300 l 1,16,-1
 300 300 l 2,17,18
 50 300 50 300 50 550 c 128,-1,19
 50 800 50 800 300 800 c 2,0,-1
EndSplineSet
EndChar

StartChar: NameMe.242
Encoding: 1114165 -1 240
Width: 850
Flags: W
HStem: 0 200<50 553.613> 300 200<262.463 500> 600 200<262.463 553.613>
VStem: 50 200<509.186 590.814> 600 200<260.254 539.746>
CounterMasks: 1 e0
LayerCount: 2
Fore
SplineSet
300 800 m 2,0,-1
 500 800 l 2,1,2
 800 800 800 800 800 400 c 128,-1,3
 800 0 800 0 500 0 c 2,4,-1
 50 0 l 1,5,-1
 50 200 l 1,6,-1
 500 200 l 2,7,8
 600 200 600 200 600 400 c 128,-1,9
 600 600 600 600 500 600 c 2,10,-1
 300 600 l 2,11,12
 250 600 250 600 250 550 c 128,-1,13
 250 500 250 500 300 500 c 2,14,-1
 500 500 l 1,15,-1
 500 300 l 1,16,-1
 300 300 l 2,17,18
 50 300 50 300 50 550 c 128,-1,19
 50 800 50 800 300 800 c 2,0,-1
EndSplineSet
EndChar

StartChar: NameMe.243
Encoding: 1114166 -1 241
Width: 725
Flags: W
HStem: 0 21G<300 425> 0 21G<300 425> 300 62.5<116.012 183.984 540.285 609.712> 437.5 62.5<116.016 183.989 541.016 608.989> 780 20G<299.999 425> 780 20G<299.999 425>
VStem: 50 62.5<366.016 433.987> 187.5 62.5<366.038 433.984> 300 125<0 800> 475 62.5<366.016 433.987> 612.5 62.5<366.038 433.984>
LayerCount: 2
Fore
SplineSet
612.5 400 m 128,-1,1
 612.506 437.5 612.506 437.5 575 437.5 c 128,-1,2
 537.5 437.503 537.5 437.503 537.5 400 c 128,-1,3
 537.496 362.5 537.496 362.5 575 362.5 c 128,-1,0
 612.5 362.527 612.5 362.527 612.5 400 c 128,-1,1
675 400 m 128,-1,5
 674.998 300.074 674.998 300.074 575 300 c 128,-1,6
 474.988 300 474.988 300 475 400 c 128,-1,7
 475 500.01 475 500.01 575 500 c 128,-1,4
 675.015 500 675.015 500 675 400 c 128,-1,5
112.5 400 m 0,8,9
 112 362 112 362 150 362.5 c 128,-1,10
 188 363 188 363 187.5 400 c 0,11,12
 188 438 188 438 150 437.5 c 0,13,14
 112 438 112 438 112.5 400 c 0,8,9
50 400 m 128,-1,16
 50 500.01 50 500.01 150 500 c 128,-1,17
 250.014 500 250.014 500 250 400 c 128,-1,18
 249.998 300.074 249.998 300.074 150 300 c 128,-1,15
 49.9881 300 49.9881 300 50 400 c 128,-1,16
425 0 m 1,19,-1
 300 0 l 1,20,-1
 299.999 800 l 1,21,-1
 425 800 l 1,22,-1
 425 0 l 1,19,-1
EndSplineSet
EndChar

StartChar: NameMe.245
Encoding: 1114168 -1 243
Width: 500
Flags: W
HStem: 0 200<279.688 450> 400 200<250 450> 780 20G<50 250> 780 20G<50 250>
VStem: 50 200<229.688 400 600 800>
LayerCount: 2
Fore
SplineSet
350 0 m 2,0,1
 50 0 50 0 50 300 c 2,2,-1
 50 800 l 1,3,-1
 250 800 l 1,4,-1
 250 600 l 1,5,-1
 450 600 l 5,6,-1
 450 400 l 5,7,-1
 250 400 l 1,8,-1
 250 300 l 2,9,10
 250 200 250 200 350 200 c 2,11,-1
 450 200 l 5,12,-1
 450 0 l 5,13,-1
 350 0 l 2,0,1
EndSplineSet
EndChar

StartChar: NameMe.246
Encoding: 1114169 -1 244
Width: 900
Flags: W
HStem: 0 200<250 850 350 850> 400 200<250 850 250 850> 780 20G<50 250 250 250>
VStem: 50 200<300 400 600 800>
LayerCount: 2
Fore
SplineSet
350 0 m 2,0,1
 50 0 50 0 50 300 c 2,2,-1
 50 800 l 1,3,-1
 250 800 l 1,4,-1
 250 600 l 1,5,-1
 850 600 l 5,6,-1
 850 400 l 5,7,-1
 250 400 l 1,8,-1
 250 300 l 2,9,10
 250 199.995 250 199.995 350 200 c 2,11,-1
 850 200 l 5,12,-1
 850 0 l 5,13,-1
 350 0 l 2,0,1
EndSplineSet
EndChar

StartChar: NameMe.247
Encoding: 1114170 -1 245
Width: 1100
Flags: W
HStem: 0 200<296.387 1100> 300 200<350 887.537> 600 200<296.387 887.537>
VStem: 50 200<260.406 539.746> 900 200<509.186 590.814>
CounterMasks: 1 e0
LayerCount: 2
Fore
SplineSet
1100 550 m 128,-1,1
 1100 300 1100 300 850 300 c 2,2,-1
 350 300 l 1,3,-1
 350 500 l 1,4,-1
 850 500 l 2,5,6
 900 500 900 500 900 550 c 128,-1,7
 900 600 900 600 850 600 c 2,8,-1
 350 600 l 2,9,10
 250 600 250 600 250 400 c 128,-1,11
 250 200 250 200 350 200 c 2,12,-1
 1100 200 l 1,13,-1
 1100 0 l 1,14,-1
 350 0 l 1,15,16
 50 1 50 1 50 400 c 0,17,18
 50 800 50 800 350 800 c 2,19,-1
 850 800 l 2,20,0
 1100 800 1100 800 1100 550 c 128,-1,1
EndSplineSet
EndChar

StartChar: NameMe.248
Encoding: 1114171 -1 246
Width: 1200
Flags: W
HStem: 0 200<300 944.092> 300 200<300 944.092> 600 200<278.223 944.092>
VStem: 50 200<0 571.777> 950 200<209.186 293.983 506.017 590.814>
CounterMasks: 1 e0
LayerCount: 2
Fore
SplineSet
50 0 m 1,0,-1
 50 600 l 2,1,2
 50 800 50 800 250 800 c 2,3,-1
 850 800 l 2,4,5
 1150 800 1150 800 1150 550 c 0,6,7
 1150 458 1150 458 1109 400 c 1,8,9
 1150 342 1150 342 1150 250 c 0,10,11
 1150 0 1150 0 850 0 c 2,12,-1
 300 0 l 1,13,-1
 300 200 l 1,14,-1
 900 200 l 2,15,16
 950 200 950 200 950 250 c 128,-1,17
 950 300 950 300 900 300 c 2,18,-1
 300 300 l 1,19,-1
 300 500 l 1,20,-1
 900 500 l 2,21,22
 950 500 950 500 950 550 c 128,-1,23
 950 600 950 600 900 600 c 2,24,-1
 350 600 l 2,25,26
 250 600 250 600 250 500 c 2,27,-1
 250 0 l 1,28,-1
 50 0 l 1,0,-1
EndSplineSet
EndChar

StartChar: NameMe.249
Encoding: 1114172 -1 247
Width: 1200
Flags: W
HStem: 0 200<279.688 920.312> 400 200<300 920.312> 780 20G<50 250> 780 20G<50 250>
VStem: 50 200<229.688 800> 950 200<228.955 371.045>
LayerCount: 2
Fore
SplineSet
1150 300 m 128,-1,1
 1150 0 1150 0 850 0 c 2,2,-1
 350 0 l 2,3,4
 50 0 50 0 50 300 c 2,5,-1
 50 800 l 1,6,-1
 250 800 l 1,7,-1
 250 300 l 2,8,9
 250 200 250 200 350 200 c 2,10,-1
 850 200 l 2,11,12
 950 200 950 200 950 300 c 128,-1,13
 950 400 950 400 850 400 c 2,14,-1
 300 400 l 1,15,-1
 300 600 l 1,16,-1
 850 600 l 2,17,0
 1150 600 1150 600 1150 300 c 128,-1,1
EndSplineSet
EndChar

StartChar: NameMe.250
Encoding: 1114173 -1 248
Width: 1200
Flags: W
HStem: 0 200<279.688 900> 600 200<279.688 920.312>
VStem: 50 200<229.688 570.312> 950 200<0 570.312>
LayerCount: 2
Fore
SplineSet
50 300 m 2,0,-1
 50 500 l 2,1,2
 50 800 50 800 350 800 c 2,3,-1
 850 800 l 2,4,5
 1150 800 1150 800 1150 500 c 2,6,-1
 1150 0 l 1,7,-1
 950 0 l 1,8,-1
 950 500 l 2,9,10
 950 600 950 600 850 600 c 2,11,-1
 350 600 l 2,12,13
 250 600 250 600 250 500 c 2,14,-1
 250 300 l 2,15,16
 250 200 250 200 350 200 c 2,17,-1
 900 200 l 1,18,-1
 900 0 l 1,19,-1
 350 0 l 2,20,21
 50 0 50 0 50 300 c 2,0,-1
EndSplineSet
EndChar

StartChar: NameMe.251
Encoding: 1114174 -1 249
Width: 1200
Flags: W
HStem: 0 200<262.463 903.613> 300 200<262.463 850> 600 200<50 903.613>
VStem: 50 200<209.186 290.814> 950 200<260.254 539.746>
CounterMasks: 1 e0
LayerCount: 2
Fore
SplineSet
50 250 m 128,-1,1
 50 500 50 500 300 500 c 2,2,-1
 850 500 l 1,3,-1
 850 300 l 1,4,-1
 300 300 l 2,5,6
 250 300 250 300 250 250 c 128,-1,7
 250 200 250 200 300 200 c 2,8,-1
 850 200 l 2,9,10
 950 200 950 200 950 400 c 128,-1,11
 950 600 950 600 850 600 c 2,12,-1
 50 600 l 1,13,-1
 50 800 l 1,14,-1
 850 800 l 2,15,16
 1150 800 1150 800 1150 400 c 128,-1,17
 1150 0 1150 0 850 0 c 2,18,-1
 300 0 l 2,19,0
 50 0 50 0 50 250 c 128,-1,1
EndSplineSet
EndChar

StartChar: NameMe.252
Encoding: 1114175 -1 250
Width: 1000
Flags: W
HStem: 0 200<250 950> 300 200<279.688 720.312> 600 200<50 750>
VStem: 50 900<0 200 300 500 600 800>
CounterMasks: 1 e0
LayerCount: 2
Fore
SplineSet
50 0 m 1,0,-1
 50 200 l 2,1,2
 50 500 50 500 350 500 c 2,3,-1
 650 500 l 2,4,5
 750 500 750 500 750 600 c 1,6,-1
 50 600 l 1,7,-1
 50 800 l 1,8,-1
 950 800 l 1,9,-1
 950 600 l 2,10,11
 950 300 950 300 650 300 c 2,12,-1
 350 300 l 2,13,14
 250 300 250 300 250 200 c 1,15,-1
 950 200 l 1,16,-1
 950 0 l 1,17,-1
 50 0 l 1,0,-1
EndSplineSet
EndChar

StartChar: NameMe.253
Encoding: 1114176 -1 251
Width: 900
Flags: W
HStem: 0 21G<450 650 450 450> 100 200<250 450 250 450 650 850> 500 200<316.665 600 350 600 600 616.665 350 650> 780 20G<650 850 850 850>
VStem: 50 200<300 400 300 400 300 500> 450 200<0 100 0 100 300 400>
LayerCount: 2
Fore
SplineSet
850 100 m 1,0,-1
 650 100 l 1,1,-1
 650 0 l 1,2,-1
 450 0 l 1,3,-1
 450 100 l 1,4,-1
 250 100 l 0,5,6
 50 100 50 100 50 400 c 131,-1,7
 50 700 50 700 350 700 c 2,8,-1
 600 700 l 2,9,10
 650 700 650 700 650 750 c 2,11,-1
 650 800 l 1,12,-1
 850 800 l 1,13,-1
 850 750 l 2,14,15
 850 500 850 500 650 500 c 2,16,-1
 350 500 l 2,17,18
 250 500 250 500 250 400 c 2,19,-1
 250 300 l 1,20,-1
 450 300 l 1,21,-1
 450 400 l 1,22,-1
 650 400 l 1,23,-1
 650 300 l 1,24,-1
 850 300 l 1,25,-1
 850 100 l 1,0,-1
EndSplineSet
EndChar

StartChar: NameMe.254
Encoding: 1114177 -1 252
Width: 900
Flags: W
HStem: 0 21G<450 650> 100 200<271.973 450 650 850> 500 200<271.973 644.092> 780 20G<650 850>
VStem: 50 200<323.478 478.442> 450 200<0 100 300 400>
LayerCount: 2
Fore
SplineSet
850 100 m 1,0,-1
 650 100 l 1,1,-1
 650 0 l 1,2,-1
 450 0 l 1,3,-1
 450 100 l 1,4,5
 50 100 50 100 50 390 c 0,6,7
 50 700 50 700 350 700 c 2,8,-1
 600 700 l 2,9,10
 650 700 650 700 650 800 c 1,11,-1
 850 800 l 1,12,-1
 850 750 l 2,13,14
 850 500 850 500 650 500 c 2,15,-1
 350 500 l 24,16,17
 250 500 250 500 250 400 c 259,18,19
 250 300 250 300 450 300 c 1,20,-1
 450 400 l 1,21,-1
 650 400 l 1,22,-1
 650 300 l 1,23,-1
 850 300 l 1,24,-1
 850 100 l 1,0,-1
EndSplineSet
EndChar

StartChar: NameMe.255
Encoding: 1114178 -1 253
Width: 900
Flags: W
HStem: 0 21G<450 650 450 450> 100 200<250 450 250 450 650 850> 500 200<316.665 600 350 600 600 616.665 350 650> 780 20G<650 850 850 850>
VStem: 50 200<300 400 300 400 300 500> 450 200<0 100 0 100 300 400>
LayerCount: 2
Fore
SplineSet
850 100 m 1,0,-1
 650 100 l 1,1,-1
 650 0 l 1,2,-1
 450 0 l 1,3,-1
 450 100 l 1,4,-1
 50 100 l 1,5,-1
 50 400 l 2,6,7
 50 700 50 700 350 700 c 2,8,-1
 600 700 l 2,9,10
 649.995 700 649.995 700 650 750 c 2,11,-1
 650 800 l 1,12,-1
 850 800 l 1,13,-1
 850 750 l 2,14,15
 850 499.995 850 499.995 650 500 c 2,16,-1
 350 500 l 2,17,18
 249.995 500 249.995 500 250 400 c 2,19,-1
 250 300 l 1,20,-1
 450 300 l 1,21,-1
 450 400 l 1,22,-1
 650 400 l 1,23,-1
 650 300 l 1,24,-1
 850 300 l 1,25,-1
 850 100 l 1,0,-1
EndSplineSet
EndChar
